G04*
G04 #@! TF.GenerationSoftware,Altium Limited,Altium Designer,21.3.2 (30)*
G04*
G04 Layer_Color=128*
%FSTAX24Y24*%
%MOIN*%
G70*
G04*
G04 #@! TF.SameCoordinates,529C8F2E-CDB4-460A-A293-509601535585*
G04*
G04*
G04 #@! TF.FilePolarity,Positive*
G04*
G01*
G75*
%ADD54C,0.0020*%
D54*
X145243Y03545D02*
X145557D01*
X1454Y035293D02*
Y035607D01*
X144243Y03545D02*
X144557D01*
X1444Y035293D02*
Y035607D01*
X139573Y04715D02*
X139927D01*
X13975Y046973D02*
Y047327D01*
X138573Y04715D02*
X138927D01*
X13875Y046973D02*
Y047327D01*
X140573Y04715D02*
X140927D01*
X14075Y046973D02*
Y047327D01*
X137573Y04715D02*
X137927D01*
X13775Y046973D02*
Y047327D01*
X136573Y04715D02*
X136927D01*
X13675Y046973D02*
Y047327D01*
X135573Y04715D02*
X135927D01*
X13575Y046973D02*
Y047327D01*
X134573Y04715D02*
X134927D01*
X13475Y046973D02*
Y047327D01*
X133573Y04715D02*
X133927D01*
X13375Y046973D02*
Y047327D01*
X132573Y04715D02*
X132927D01*
X13275Y046973D02*
Y047327D01*
X131573Y04715D02*
X131927D01*
X13175Y046973D02*
Y047327D01*
X130573Y04715D02*
X130927D01*
X13075Y046973D02*
Y047327D01*
X129573Y04715D02*
X129927D01*
X12975Y046973D02*
Y047327D01*
X128573Y04715D02*
X128927D01*
X12875Y046973D02*
Y047327D01*
X127573Y04715D02*
X127927D01*
X12775Y046973D02*
Y047327D01*
X126573Y04715D02*
X126927D01*
X12675Y046973D02*
Y047327D01*
X139543Y03715D02*
X139897D01*
X13972Y036973D02*
Y037327D01*
X138543Y03715D02*
X138897D01*
X13872Y036973D02*
Y037327D01*
X137543Y03715D02*
X137897D01*
X13772Y036973D02*
Y037327D01*
X136543Y03715D02*
X136897D01*
X13672Y036973D02*
Y037327D01*
X135543Y03715D02*
X135897D01*
X13572Y036973D02*
Y037327D01*
X134543Y03715D02*
X134897D01*
X13472Y036973D02*
Y037327D01*
X133543Y03715D02*
X133897D01*
X13372Y036973D02*
Y037327D01*
X132543Y03715D02*
X132897D01*
X13272Y036973D02*
Y037327D01*
X131543Y03715D02*
X131897D01*
X13172Y036973D02*
Y037327D01*
X130543Y03715D02*
X130897D01*
X13072Y036973D02*
Y037327D01*
X129543Y03715D02*
X129897D01*
X12972Y036973D02*
Y037327D01*
X128543Y03715D02*
X128897D01*
X12872Y036973D02*
Y037327D01*
X127543Y03715D02*
X127897D01*
X12772Y036973D02*
Y037327D01*
X126543Y03715D02*
X126897D01*
X12672Y036973D02*
Y037327D01*
X140543Y03715D02*
X140897D01*
X14072Y036973D02*
Y037327D01*
X153899Y0426D02*
X154301D01*
X1541Y042399D02*
Y042801D01*
X152899Y0426D02*
X153301D01*
X1531Y042399D02*
Y042801D01*
X151899Y0426D02*
X152301D01*
X1521Y042399D02*
Y042801D01*
X150899Y0426D02*
X151301D01*
X1511Y042399D02*
Y042801D01*
X149899Y0426D02*
X150301D01*
X1501Y042399D02*
Y042801D01*
X148899Y0426D02*
X149301D01*
X1491Y042399D02*
Y042801D01*
X147899Y0426D02*
X148301D01*
X1481Y042399D02*
Y042801D01*
X146899Y0426D02*
X147301D01*
X1471Y042399D02*
Y042801D01*
X153109Y0379D02*
X154291D01*
X1537Y037309D02*
Y038491D01*
X147009Y03785D02*
X148191D01*
X1476Y037259D02*
Y038441D01*
X133563Y0486D02*
X133917D01*
X13374Y048423D02*
Y048777D01*
X134573Y0486D02*
X134927D01*
X13475Y048423D02*
Y048777D01*
X135553Y0486D02*
X135907D01*
X13573Y048423D02*
Y048777D01*
X136563Y0486D02*
X136917D01*
X13674Y048423D02*
Y048777D01*
X150495Y04625D02*
X150805D01*
X15065Y046095D02*
Y046405D01*
X150495Y04425D02*
X150805D01*
X15065Y044095D02*
Y044405D01*
X130221Y051151D02*
X130561D01*
X130391Y050981D02*
Y051321D01*
X134221Y051151D02*
X134561D01*
X134391Y050981D02*
Y051321D01*
X133221Y051151D02*
X133561D01*
X133391Y050981D02*
Y051321D01*
X132221Y051151D02*
X132561D01*
X132391Y050981D02*
Y051321D01*
X131221Y051151D02*
X131561D01*
X131391Y050981D02*
Y051321D01*
X146495Y0491D02*
X146805D01*
X14665Y048945D02*
Y049255D01*
X142995Y0491D02*
X143305D01*
X14315Y048945D02*
Y049255D01*
X142145Y0491D02*
X142455D01*
X1423Y048945D02*
Y049255D01*
X138645Y0491D02*
X138955D01*
X1388Y048945D02*
Y049255D01*
X133225Y02795D02*
X133575D01*
X1334Y027775D02*
Y028125D01*
X136725Y02795D02*
X137075D01*
X1369Y027775D02*
Y028125D01*
X136743Y0297D02*
X137057D01*
X1369Y029543D02*
Y029857D01*
X136743Y0312D02*
X137057D01*
X1369Y031043D02*
Y031357D01*
X130293Y03335D02*
X130607D01*
X13045Y033193D02*
Y033507D01*
X130293Y03185D02*
X130607D01*
X13045Y031693D02*
Y032007D01*
X140945Y03445D02*
X141255D01*
X1411Y034295D02*
Y034605D01*
X140945Y03595D02*
X141255D01*
X1411Y035795D02*
Y036105D01*
X139395Y0312D02*
X139705D01*
X13955Y031045D02*
Y031355D01*
X139395Y0297D02*
X139705D01*
X13955Y029545D02*
Y029855D01*
X126745Y03335D02*
X127055D01*
X1269Y033195D02*
Y033505D01*
X126745Y03185D02*
X127055D01*
X1269Y031695D02*
Y032005D01*
X10337Y0286D02*
X10463D01*
X104Y02797D02*
Y02923D01*
X10337Y0509D02*
X10463D01*
X104Y05027D02*
Y05153D01*
X15887Y0509D02*
X16013D01*
X1595Y05027D02*
Y05153D01*
X15887Y0286D02*
X16013D01*
X1595Y02797D02*
Y02923D01*
X120037Y032383D02*
X121297D01*
X120667Y031753D02*
Y033013D01*
X10547Y032383D02*
X10673D01*
X1061Y031753D02*
Y033013D01*
X120037Y04695D02*
X121297D01*
X120667Y04632D02*
Y04758D01*
X10547Y04695D02*
X10673D01*
X1061Y04632D02*
Y04758D01*
X13355Y03375D02*
X13389D01*
X13372Y03358D02*
Y03392D01*
X13555Y03375D02*
X13589D01*
X13572Y03358D02*
Y03392D01*
X13655Y03375D02*
X13689D01*
X13672Y03358D02*
Y03392D01*
X13755Y03375D02*
X13789D01*
X13772Y03358D02*
Y03392D01*
X13855Y03375D02*
X13889D01*
X13872Y03358D02*
Y03392D01*
X13455Y03375D02*
X13489D01*
X13472Y03358D02*
Y03392D01*
X127523Y03535D02*
X127877D01*
X1277Y035173D02*
Y035527D01*
X128523Y03535D02*
X128877D01*
X1287Y035173D02*
Y035527D01*
X132523Y03535D02*
X132877D01*
X1327Y035173D02*
Y035527D01*
X131523Y03535D02*
X131877D01*
X1317Y035173D02*
Y035527D01*
X130523Y03535D02*
X130877D01*
X1307Y035173D02*
Y035527D01*
X129523Y03535D02*
X129877D01*
X1297Y035173D02*
Y035527D01*
X126523Y03535D02*
X126877D01*
X1267Y035173D02*
Y035527D01*
X147243Y04465D02*
X147557D01*
X1474Y044493D02*
Y044807D01*
X147243Y04565D02*
X147557D01*
X1474Y045493D02*
Y045807D01*
X140923Y0332D02*
X141277D01*
X1411Y033023D02*
Y033377D01*
X140923Y0322D02*
X141277D01*
X1411Y032023D02*
Y032377D01*
X140923Y028D02*
X141277D01*
X1411Y027823D02*
Y028177D01*
X140923Y029D02*
X141277D01*
X1411Y028823D02*
Y029177D01*
X148223Y028D02*
X148577D01*
X1484Y027823D02*
Y028177D01*
X148223Y029D02*
X148577D01*
X1484Y028823D02*
Y029177D01*
X148223Y0322D02*
X148577D01*
X1484Y032023D02*
Y032377D01*
X148223Y0332D02*
X148577D01*
X1484Y033023D02*
Y033377D01*
X12465Y0286D02*
X12515D01*
X1249Y02835D02*
Y02885D01*
X12665Y0286D02*
X12715D01*
X1269Y02835D02*
Y02885D01*
X1293Y0286D02*
X1298D01*
X12955Y02835D02*
Y02885D01*
X1313Y0286D02*
X1318D01*
X13155Y02835D02*
Y02885D01*
M02*
