G04*
G04 #@! TF.GenerationSoftware,Altium Limited,Altium Designer,21.3.2 (30)*
G04*
G04 Layer_Color=16711935*
%FSTAX24Y24*%
%MOIN*%
G70*
G04*
G04 #@! TF.SameCoordinates,529C8F2E-CDB4-460A-A293-509601535585*
G04*
G04*
G04 #@! TF.FilePolarity,Negative*
G04*
G01*
G75*
%ADD16C,0.0710*%
%ADD17R,0.0710X0.0710*%
%ADD18C,0.0080*%
%ADD19R,0.0710X0.0710*%
%ADD20R,0.0678X0.0678*%
%ADD21C,0.0678*%
%ADD22C,0.1458*%
G04:AMPARAMS|DCode=23|XSize=71mil|YSize=71mil|CornerRadius=19.7mil|HoleSize=0mil|Usage=FLASHONLY|Rotation=180.000|XOffset=0mil|YOffset=0mil|HoleType=Round|Shape=RoundedRectangle|*
%AMROUNDEDRECTD23*
21,1,0.0710,0.0315,0,0,180.0*
21,1,0.0315,0.0710,0,0,180.0*
1,1,0.0395,-0.0157,0.0157*
1,1,0.0395,0.0157,0.0157*
1,1,0.0395,0.0157,-0.0157*
1,1,0.0395,-0.0157,-0.0157*
%
%ADD23ROUNDEDRECTD23*%
%ADD24C,0.0780*%
%ADD25O,0.0830X0.0980*%
%ADD26R,0.0830X0.0980*%
%ADD27C,0.0880*%
%ADD28R,0.0880X0.0880*%
%ADD29C,0.2049*%
%ADD30C,0.0789*%
%ADD31C,0.1180*%
D16*
X1454Y03545D02*
D03*
X13975Y04715D02*
D03*
X13875D02*
D03*
X14075D02*
D03*
X13775D02*
D03*
X13675D02*
D03*
X13575D02*
D03*
X13475D02*
D03*
X13375D02*
D03*
X13175D02*
D03*
X13075D02*
D03*
X12975D02*
D03*
X12875D02*
D03*
X12775D02*
D03*
X12675D02*
D03*
X13972Y03715D02*
D03*
X13872D02*
D03*
X13772D02*
D03*
X13672D02*
D03*
X13572D02*
D03*
X13472D02*
D03*
X13372D02*
D03*
X13272D02*
D03*
X13172D02*
D03*
X13072D02*
D03*
X12972D02*
D03*
X12872D02*
D03*
X12772D02*
D03*
X12672D02*
D03*
X13374Y0486D02*
D03*
X13475D02*
D03*
X13573D02*
D03*
X1369Y0312D02*
D03*
X13045Y03335D02*
D03*
X1277Y03535D02*
D03*
X1287D02*
D03*
X1317D02*
D03*
X1307D02*
D03*
X1297D02*
D03*
X1267D02*
D03*
X1474Y04565D02*
D03*
D17*
X1444Y03545D02*
D03*
D18*
X13275Y04715D02*
D03*
X131391Y051151D02*
D03*
D19*
X14072Y03715D02*
D03*
X1369Y0297D02*
D03*
X13045Y03185D02*
D03*
X1474Y04465D02*
D03*
D20*
X1541Y0426D02*
D03*
D21*
X1531D02*
D03*
X1521D02*
D03*
X1511D02*
D03*
X1501D02*
D03*
X1491D02*
D03*
X1481D02*
D03*
X1471D02*
D03*
D22*
X1537Y0379D02*
D03*
X1476Y03785D02*
D03*
D23*
X13674Y0486D02*
D03*
X1327Y03535D02*
D03*
D24*
X15065Y04625D02*
D03*
Y04425D02*
D03*
X14665Y0491D02*
D03*
X14315D02*
D03*
X1423D02*
D03*
X1388D02*
D03*
X1411Y03445D02*
D03*
Y03595D02*
D03*
X13955Y0312D02*
D03*
Y0297D02*
D03*
X1269Y03335D02*
D03*
Y03185D02*
D03*
D25*
X130391Y051151D02*
D03*
X133391D02*
D03*
X132391D02*
D03*
X13372Y03375D02*
D03*
X13572D02*
D03*
X13672D02*
D03*
X13772D02*
D03*
X13472D02*
D03*
D26*
X134391Y051151D02*
D03*
X13872Y03375D02*
D03*
D27*
X1334Y02795D02*
D03*
D28*
X1369D02*
D03*
D29*
X104Y0286D02*
D03*
Y0509D02*
D03*
X1595D02*
D03*
Y0286D02*
D03*
X120667Y032383D02*
D03*
X1061D02*
D03*
X120667Y04695D02*
D03*
X1061D02*
D03*
D30*
X1411Y0332D02*
D03*
Y0322D02*
D03*
Y028D02*
D03*
Y029D02*
D03*
X1484Y028D02*
D03*
Y029D02*
D03*
Y0322D02*
D03*
Y0332D02*
D03*
D31*
X1249Y0286D02*
D03*
X1269D02*
D03*
X12955D02*
D03*
X13155D02*
D03*
M02*
