M48
;Layer_Color=9474304
;FILE_FORMAT=2:4
INCH,LZ
;TYPE=PLATED
T1F00S00C0.0310
T2F00S00C0.0315
T3F00S00C0.0340
T4F00S00C0.0350
T5F00S00C0.0354
T6F00S00C0.0402
T7F00S00C0.0500
T8F00S00C0.1181
T9F00S00C0.1260
%
T01
X13955Y0297
Y0312
X1269Y03185
Y03335
X1411Y03445
Y03595
X15065Y04425
Y04625
X14665Y0491
X14315
X1423
X1388
T02
X1369Y0297
Y0312
X13045Y03185
Y03335
X1444Y03545
X1454
X1474Y04465
Y04565
T03
X13372Y03375
X13472
X13572
X13672
X13772
X13872
X134391Y051151
X133391
X132391
X131391
X130391
T04
X1334Y02795
X1369
T05
X1411Y028
Y029
X1484
Y028
X13972Y03715
X13872
X13772
X13672
X13572
X13472
X13372
X13272
X13172
X13072
X12972
X12872
X12772
X12672
X1267Y03535
X1277
X1287
X1297
X1307
X1317
X1327
X14072Y03715
X1411Y0332
Y0322
X1484
Y0332
X14075Y04715
X13975
X13875
X13775
X13675
X13575
X13475
X13375
X13275
X13175
X13075
X12975
X12875
X12775
X12675
X13374Y0486
X13475
X13573
X13674
T06
X1541Y0426
X1531
X1521
X1511
X1501
X1491
X1481
X1471
T07
X1269Y0286
X12955
X13155
X1249
T08
X1537Y0379
X1476Y03785
T09
X1595Y0286
X104
X1061Y032383
X120667
X1595Y0509
X120667Y04695
X1061
X104Y0509
M30
