G04*
G04 #@! TF.GenerationSoftware,Altium Limited,Altium Designer,21.3.2 (30)*
G04*
G04 Layer_Physical_Order=2*
G04 Layer_Color=16711680*
%FSTAX24Y24*%
%MOIN*%
G70*
G04*
G04 #@! TF.SameCoordinates,529C8F2E-CDB4-460A-A293-509601535585*
G04*
G04*
G04 #@! TF.FilePolarity,Positive*
G04*
G01*
G75*
%ADD32C,0.0394*%
%ADD33C,0.0630*%
%ADD34R,0.0630X0.0630*%
%ADD35R,0.0630X0.0630*%
%ADD36R,0.0598X0.0598*%
%ADD37C,0.0598*%
%ADD38C,0.1378*%
G04:AMPARAMS|DCode=39|XSize=63mil|YSize=63mil|CornerRadius=15.7mil|HoleSize=0mil|Usage=FLASHONLY|Rotation=180.000|XOffset=0mil|YOffset=0mil|HoleType=Round|Shape=RoundedRectangle|*
%AMROUNDEDRECTD39*
21,1,0.0630,0.0315,0,0,180.0*
21,1,0.0315,0.0630,0,0,180.0*
1,1,0.0315,-0.0157,0.0157*
1,1,0.0315,0.0157,0.0157*
1,1,0.0315,0.0157,-0.0157*
1,1,0.0315,-0.0157,-0.0157*
%
%ADD39ROUNDEDRECTD39*%
%ADD40C,0.0700*%
%ADD41O,0.0750X0.0900*%
%ADD42R,0.0750X0.0900*%
%ADD43C,0.0800*%
%ADD44R,0.0800X0.0800*%
%ADD45C,0.1969*%
%ADD46C,0.0709*%
%ADD47C,0.1100*%
%ADD48C,0.0197*%
%ADD49C,0.0591*%
%ADD50C,0.0315*%
%ADD51C,0.0787*%
%ADD52C,0.0157*%
%ADD53C,0.0236*%
G36*
X102752Y052265D02*
X160803D01*
X160809Y052266D01*
X160887Y052256D01*
X160965Y052224D01*
X161033Y052172D01*
X161084Y052104D01*
X161117Y052026D01*
X161128Y051943D01*
X161127Y051941D01*
X161127D01*
X16113Y051927D01*
Y0274D01*
X16113Y02735D01*
X161125Y027302D01*
X16112Y027266D01*
X161087Y027187D01*
X161035Y02712D01*
X160968Y027068D01*
X160889Y027035D01*
X160809Y027025D01*
X160805Y027025D01*
X133073D01*
X133056Y027075D01*
X133091Y027102D01*
X133417Y027428D01*
X133469D01*
X133602Y027464D01*
X133721Y027532D01*
X133818Y027629D01*
X133886Y027748D01*
X133922Y027881D01*
Y028019D01*
X133886Y028152D01*
X133818Y028271D01*
X133721Y028368D01*
X133602Y028436D01*
X133469Y028472D01*
X133331D01*
X133198Y028436D01*
X133079Y028368D01*
X132982Y028271D01*
X132914Y028152D01*
X1329Y028102D01*
X132619Y027821D01*
X13007D01*
X129971Y02792D01*
Y028073D01*
X129978Y028078D01*
X130072Y028172D01*
X130146Y028282D01*
X130196Y028404D01*
X130222Y028534D01*
Y028666D01*
X130221Y028673D01*
X130818Y02927D01*
X130818Y02927D01*
X1309Y029378D01*
X130952Y029503D01*
X13097Y029638D01*
X13097Y029638D01*
Y03185D01*
X130952Y031985D01*
X1309Y03211D01*
X130887Y032128D01*
Y032287D01*
X130728D01*
X13071Y032301D01*
X130585Y032352D01*
X13045Y03237D01*
X1269D01*
X126765Y032352D01*
X12664Y032301D01*
X126532Y032218D01*
X126449Y03211D01*
X126398Y031985D01*
X12638Y03185D01*
Y02903D01*
X126378Y029028D01*
X126304Y028918D01*
X126254Y028796D01*
X126228Y028666D01*
Y028534D01*
X126254Y028404D01*
X126304Y028282D01*
X126378Y028172D01*
X126472Y028078D01*
X126582Y028004D01*
X126704Y027954D01*
X126834Y027928D01*
X126966D01*
X127096Y027954D01*
X127218Y028004D01*
X127328Y028078D01*
X127422Y028172D01*
X127496Y028282D01*
X127546Y028404D01*
X127572Y028534D01*
Y028666D01*
X127546Y028796D01*
X127496Y028918D01*
X127422Y029028D01*
X12742Y02903D01*
Y03133D01*
X12993D01*
Y029853D01*
X129301Y029224D01*
X129232Y029196D01*
X129122Y029122D01*
X129028Y029028D01*
X128954Y028918D01*
X128904Y028796D01*
X128878Y028666D01*
Y028534D01*
X128904Y028404D01*
X128954Y028282D01*
X129028Y028172D01*
X129122Y028078D01*
X129129Y028073D01*
Y027746D01*
X129129Y027746D01*
X129143Y027637D01*
X129185Y027535D01*
X129252Y027448D01*
X129598Y027102D01*
X129598Y027102D01*
X129633Y027075D01*
X129616Y027025D01*
X10275D01*
X102746Y027025D01*
X102666Y027035D01*
X102587Y027068D01*
X10252Y02712D01*
X102468Y027187D01*
X102435Y027266D01*
X102425Y027346D01*
X102425Y02735D01*
Y051924D01*
X102429Y051942D01*
X102429D01*
X102428Y051943D01*
X102439Y052026D01*
X102471Y052105D01*
X102523Y052172D01*
X102591Y052224D01*
X102669Y052256D01*
X102746Y052266D01*
X102752Y052265D01*
D02*
G37*
%LPC*%
G36*
X130341Y051698D02*
X130267Y051689D01*
X130151Y051641D01*
X130052Y051565D01*
X129976Y051465D01*
X129928Y05135D01*
X129912Y051226D01*
Y051201D01*
X130341D01*
Y051698D01*
D02*
G37*
G36*
Y051101D02*
X129912D01*
Y051076D01*
X129928Y050952D01*
X129976Y050836D01*
X130052Y050737D01*
X130151Y050661D01*
X130267Y050613D01*
X130341Y050603D01*
Y051101D01*
D02*
G37*
G36*
X159587Y052006D02*
X159413D01*
X159241Y051979D01*
X159075Y051925D01*
X15892Y051846D01*
X158779Y051744D01*
X158656Y051621D01*
X158554Y05148D01*
X158475Y051325D01*
X158421Y051159D01*
X158394Y050987D01*
Y050813D01*
X158421Y050641D01*
X158475Y050475D01*
X158554Y05032D01*
X158656Y050179D01*
X158779Y050056D01*
X15892Y049954D01*
X159075Y049875D01*
X159241Y049821D01*
X159413Y049794D01*
X159587D01*
X159759Y049821D01*
X159925Y049875D01*
X16008Y049954D01*
X160221Y050056D01*
X160344Y050179D01*
X160446Y05032D01*
X160525Y050475D01*
X160579Y050641D01*
X160606Y050813D01*
Y050987D01*
X160579Y051159D01*
X160525Y051325D01*
X160446Y05148D01*
X160344Y051621D01*
X160221Y051744D01*
X16008Y051846D01*
X159925Y051925D01*
X159759Y051979D01*
X159587Y052006D01*
D02*
G37*
G36*
X104087D02*
X103913D01*
X103741Y051979D01*
X103575Y051925D01*
X10342Y051846D01*
X103279Y051744D01*
X103156Y051621D01*
X103054Y05148D01*
X102975Y051325D01*
X102921Y051159D01*
X102894Y050987D01*
Y050813D01*
X102921Y050641D01*
X102975Y050475D01*
X103054Y05032D01*
X103156Y050179D01*
X103279Y050056D01*
X10342Y049954D01*
X103575Y049875D01*
X103741Y049821D01*
X103913Y049794D01*
X104087D01*
X104259Y049821D01*
X104425Y049875D01*
X10458Y049954D01*
X104721Y050056D01*
X104844Y050179D01*
X104946Y05032D01*
X105025Y050475D01*
X105079Y050641D01*
X105106Y050813D01*
Y050987D01*
X105079Y051159D01*
X105025Y051325D01*
X104946Y05148D01*
X104844Y051621D01*
X104721Y051744D01*
X10458Y051846D01*
X104425Y051925D01*
X104259Y051979D01*
X104087Y052006D01*
D02*
G37*
G36*
X146709Y04955D02*
X1467D01*
Y04915D01*
X1471D01*
Y049159D01*
X147069Y049274D01*
X14701Y049376D01*
X146926Y04946D01*
X146824Y049519D01*
X146709Y04955D01*
D02*
G37*
G36*
X1466D02*
X146591D01*
X146476Y049519D01*
X146374Y04946D01*
X14629Y049376D01*
X146231Y049274D01*
X1462Y049159D01*
Y04915D01*
X1466D01*
Y04955D01*
D02*
G37*
G36*
X1471Y04905D02*
X1467D01*
Y04865D01*
X146709D01*
X146824Y048681D01*
X146926Y04874D01*
X14701Y048824D01*
X147069Y048926D01*
X1471Y049041D01*
Y04905D01*
D02*
G37*
G36*
X1466D02*
X1462D01*
Y049041D01*
X146231Y048926D01*
X14629Y048824D01*
X146374Y04874D01*
X146476Y048681D01*
X146591Y04865D01*
X1466D01*
Y04905D01*
D02*
G37*
G36*
X134155Y04855D02*
X13379D01*
Y048185D01*
X133795D01*
X1339Y048213D01*
X133995Y048268D01*
X134072Y048345D01*
X134127Y04844D01*
X134155Y048545D01*
Y04855D01*
D02*
G37*
G36*
X13369D02*
X133325D01*
Y048545D01*
X133353Y04844D01*
X133408Y048345D01*
X133485Y048268D01*
X13358Y048213D01*
X133685Y048185D01*
X13369D01*
Y04855D01*
D02*
G37*
G36*
X139805Y047565D02*
X1398D01*
Y0472D01*
X140165D01*
Y047205D01*
X140137Y04731D01*
X140082Y047405D01*
X140005Y047482D01*
X13991Y047537D01*
X139805Y047565D01*
D02*
G37*
G36*
X1397D02*
X139695D01*
X13959Y047537D01*
X139495Y047482D01*
X139418Y047405D01*
X139363Y04731D01*
X139335Y047205D01*
Y0472D01*
X1397D01*
Y047565D01*
D02*
G37*
G36*
X132789Y047449D02*
X132711D01*
X132635Y047429D01*
X132566Y047389D01*
X132511Y047334D01*
X132471Y047265D01*
X132451Y047189D01*
Y047111D01*
X132471Y047035D01*
X132511Y046966D01*
X132566Y046911D01*
X132635Y046871D01*
X132711Y046851D01*
X132789D01*
X132865Y046871D01*
X132934Y046911D01*
X132989Y046966D01*
X133029Y047035D01*
X133049Y047111D01*
Y047189D01*
X133029Y047265D01*
X132989Y047334D01*
X132934Y047389D01*
X132865Y047429D01*
X132789Y047449D01*
D02*
G37*
G36*
X140165Y0471D02*
X1398D01*
Y046735D01*
X139805D01*
X13991Y046763D01*
X140005Y046818D01*
X140082Y046895D01*
X140137Y04699D01*
X140165Y047095D01*
Y0471D01*
D02*
G37*
G36*
X1397D02*
X139335D01*
Y047095D01*
X139363Y04699D01*
X139418Y046895D01*
X139495Y046818D01*
X13959Y046763D01*
X139695Y046735D01*
X1397D01*
Y0471D01*
D02*
G37*
G36*
X133808Y047587D02*
X133692D01*
X133581Y047557D01*
X133482Y0475D01*
X1334Y047418D01*
X133343Y047319D01*
X133313Y047208D01*
Y047092D01*
X133343Y046981D01*
X1334Y046882D01*
X133482Y0468D01*
X133581Y046743D01*
X133692Y046713D01*
X133808D01*
X133919Y046743D01*
X134018Y0468D01*
X1341Y046882D01*
X134157Y046981D01*
X134187Y047092D01*
Y047208D01*
X134157Y047319D01*
X1341Y047418D01*
X134018Y0475D01*
X133919Y047557D01*
X133808Y047587D01*
D02*
G37*
G36*
X131808D02*
X131692D01*
X131581Y047557D01*
X131482Y0475D01*
X1314Y047418D01*
X131343Y047319D01*
X131313Y047208D01*
Y047092D01*
X131343Y046981D01*
X1314Y046882D01*
X131482Y0468D01*
X131581Y046743D01*
X131692Y046713D01*
X131808D01*
X131919Y046743D01*
X132018Y0468D01*
X1321Y046882D01*
X132157Y046981D01*
X132187Y047092D01*
Y047208D01*
X132157Y047319D01*
X1321Y047418D01*
X132018Y0475D01*
X131919Y047557D01*
X131808Y047587D01*
D02*
G37*
G36*
X129808D02*
X129692D01*
X129581Y047557D01*
X129482Y0475D01*
X1294Y047418D01*
X129343Y047319D01*
X129313Y047208D01*
Y047092D01*
X129343Y046981D01*
X1294Y046882D01*
X129482Y0468D01*
X129581Y046743D01*
X129692Y046713D01*
X129808D01*
X129919Y046743D01*
X130018Y0468D01*
X1301Y046882D01*
X130157Y046981D01*
X130187Y047092D01*
Y047208D01*
X130157Y047319D01*
X1301Y047418D01*
X130018Y0475D01*
X129919Y047557D01*
X129808Y047587D01*
D02*
G37*
G36*
X128808D02*
X128692D01*
X128581Y047557D01*
X128482Y0475D01*
X1284Y047418D01*
X128343Y047319D01*
X128313Y047208D01*
Y047092D01*
X128343Y046981D01*
X1284Y046882D01*
X128482Y0468D01*
X128581Y046743D01*
X128692Y046713D01*
X128808D01*
X128919Y046743D01*
X129018Y0468D01*
X1291Y046882D01*
X129157Y046981D01*
X129187Y047092D01*
Y047208D01*
X129157Y047319D01*
X1291Y047418D01*
X129018Y0475D01*
X128919Y047557D01*
X128808Y047587D01*
D02*
G37*
G36*
X126808D02*
X126692D01*
X126581Y047557D01*
X126482Y0475D01*
X1264Y047418D01*
X126343Y047319D01*
X126313Y047208D01*
Y047092D01*
X126343Y046981D01*
X1264Y046882D01*
X126482Y0468D01*
X126581Y046743D01*
X126692Y046713D01*
X126808D01*
X126919Y046743D01*
X127018Y0468D01*
X1271Y046882D01*
X127157Y046981D01*
X127187Y047092D01*
Y047208D01*
X127157Y047319D01*
X1271Y047418D01*
X127018Y0475D01*
X126919Y047557D01*
X126808Y047587D01*
D02*
G37*
G36*
X150709Y0467D02*
X1507D01*
Y0463D01*
X1511D01*
Y046309D01*
X151069Y046424D01*
X15101Y046526D01*
X150926Y04661D01*
X150824Y046669D01*
X150709Y0467D01*
D02*
G37*
G36*
X1506D02*
X150591D01*
X150476Y046669D01*
X150374Y04661D01*
X15029Y046526D01*
X150231Y046424D01*
X1502Y046309D01*
Y0463D01*
X1506D01*
Y0467D01*
D02*
G37*
G36*
X120754Y048056D02*
X12058D01*
X120408Y048029D01*
X120242Y047975D01*
X120087Y047896D01*
X119946Y047794D01*
X119823Y047671D01*
X119721Y04753D01*
X119642Y047375D01*
X119588Y047209D01*
X119561Y047037D01*
Y046863D01*
X119588Y046691D01*
X119642Y046525D01*
X119721Y04637D01*
X119823Y046229D01*
X119946Y046106D01*
X120087Y046004D01*
X120242Y045925D01*
X120408Y045871D01*
X12058Y045844D01*
X120754D01*
X120926Y045871D01*
X121092Y045925D01*
X121247Y046004D01*
X121388Y046106D01*
X121511Y046229D01*
X121613Y04637D01*
X121692Y046525D01*
X121746Y046691D01*
X121773Y046863D01*
Y047037D01*
X121746Y047209D01*
X121692Y047375D01*
X121613Y04753D01*
X121511Y047671D01*
X121388Y047794D01*
X121247Y047896D01*
X121092Y047975D01*
X120926Y048029D01*
X120754Y048056D01*
D02*
G37*
G36*
X106187D02*
X106013D01*
X105841Y048029D01*
X105675Y047975D01*
X10552Y047896D01*
X105379Y047794D01*
X105256Y047671D01*
X105154Y04753D01*
X105075Y047375D01*
X105021Y047209D01*
X104994Y047037D01*
Y046863D01*
X105021Y046691D01*
X105075Y046525D01*
X105154Y04637D01*
X105256Y046229D01*
X105379Y046106D01*
X10552Y046004D01*
X105675Y045925D01*
X105841Y045871D01*
X106013Y045844D01*
X106187D01*
X106359Y045871D01*
X106525Y045925D01*
X10668Y046004D01*
X106821Y046106D01*
X106944Y046229D01*
X107046Y04637D01*
X107125Y046525D01*
X107179Y046691D01*
X107206Y046863D01*
Y047037D01*
X107179Y047209D01*
X107125Y047375D01*
X107046Y04753D01*
X106944Y047671D01*
X106821Y047794D01*
X10668Y047896D01*
X106525Y047975D01*
X106359Y048029D01*
X106187Y048056D01*
D02*
G37*
G36*
X1511Y0462D02*
X1507D01*
Y0458D01*
X150709D01*
X150824Y045831D01*
X150926Y04589D01*
X15101Y045974D01*
X151069Y046076D01*
X1511Y046191D01*
Y0462D01*
D02*
G37*
G36*
X1506D02*
X1502D01*
Y046191D01*
X150231Y046076D01*
X15029Y045974D01*
X150374Y04589D01*
X150476Y045831D01*
X150591Y0458D01*
X1506D01*
Y0462D01*
D02*
G37*
G36*
X147455Y046065D02*
X14745D01*
Y0457D01*
X147815D01*
Y045705D01*
X147787Y04581D01*
X147732Y045905D01*
X147655Y045982D01*
X14756Y046037D01*
X147455Y046065D01*
D02*
G37*
G36*
X14735D02*
X147345D01*
X14724Y046037D01*
X147145Y045982D01*
X147068Y045905D01*
X147013Y04581D01*
X146985Y045705D01*
Y0457D01*
X14735D01*
Y046065D01*
D02*
G37*
G36*
X147815Y0456D02*
X14745D01*
Y045235D01*
X147455D01*
X14756Y045263D01*
X147655Y045318D01*
X147732Y045395D01*
X147787Y04549D01*
X147815Y045595D01*
Y0456D01*
D02*
G37*
G36*
X140808Y047587D02*
X140692D01*
X140581Y047557D01*
X140482Y0475D01*
X1404Y047418D01*
X140343Y047319D01*
X140313Y047208D01*
Y047092D01*
X140343Y046981D01*
X1404Y046882D01*
X140482Y0468D01*
X140581Y046743D01*
X140692Y046713D01*
X140788D01*
X141911Y045591D01*
X141969Y045546D01*
X142037Y045518D01*
X14211Y045508D01*
X146143D01*
X146963Y044688D01*
Y044213D01*
X147438D01*
X147601Y044051D01*
X147659Y044006D01*
X147727Y043978D01*
X1478Y043968D01*
X150268D01*
X150272Y04396D01*
X15036Y043872D01*
X150468Y04381D01*
X150588Y043778D01*
X150712D01*
X150832Y04381D01*
X15094Y043872D01*
X151028Y04396D01*
X151032Y043968D01*
X152333D01*
X153295Y043006D01*
X153265Y042966D01*
X153254Y042972D01*
X153153Y042999D01*
X15315D01*
Y04265D01*
X153499D01*
Y042653D01*
X153472Y042754D01*
X153466Y042765D01*
X153506Y042795D01*
X153679Y042623D01*
Y042179D01*
X154521D01*
Y043021D01*
X154077D01*
X152649Y044449D01*
X152591Y044494D01*
X152523Y044522D01*
X15245Y044532D01*
X151032D01*
X151028Y04454D01*
X15094Y044628D01*
X150832Y04469D01*
X150712Y044722D01*
X150588D01*
X150468Y04469D01*
X15036Y044628D01*
X150272Y04454D01*
X150268Y044532D01*
X147917D01*
X147837Y044612D01*
Y045087D01*
X147362D01*
X147236Y045213D01*
X147262Y045257D01*
X147345Y045235D01*
X14735D01*
Y0456D01*
X146985D01*
Y045595D01*
X147007Y045512D01*
X146963Y045486D01*
X146459Y045989D01*
X146401Y046034D01*
X146333Y046062D01*
X14626Y046072D01*
X142227D01*
X141187Y047112D01*
Y047208D01*
X141157Y047319D01*
X1411Y047418D01*
X141018Y0475D01*
X140919Y047557D01*
X140808Y047587D01*
D02*
G37*
G36*
X15305Y042999D02*
X153047D01*
X152946Y042972D01*
X152855Y042919D01*
X152781Y042845D01*
X152728Y042754D01*
X152701Y042653D01*
Y04265D01*
X15305D01*
Y042999D01*
D02*
G37*
G36*
X153499Y04255D02*
X15315D01*
Y042201D01*
X153153D01*
X153254Y042228D01*
X153345Y042281D01*
X153419Y042355D01*
X153472Y042446D01*
X153499Y042547D01*
Y04255D01*
D02*
G37*
G36*
X15305D02*
X152701D01*
Y042547D01*
X152728Y042446D01*
X152781Y042355D01*
X152855Y042281D01*
X152946Y042228D01*
X153047Y042201D01*
X15305D01*
Y04255D01*
D02*
G37*
G36*
X130808Y047587D02*
X130692D01*
X130581Y047557D01*
X130482Y0475D01*
X1304Y047418D01*
X130343Y047319D01*
X130313Y047208D01*
Y047092D01*
X130343Y046981D01*
X1304Y046882D01*
X130468Y046814D01*
Y04284D01*
X130478Y042767D01*
X130506Y042699D01*
X130551Y042641D01*
X131396Y041796D01*
X131454Y041751D01*
X131522Y041723D01*
X131595Y041713D01*
X150945D01*
X151018Y041723D01*
X151086Y041751D01*
X151145Y041796D01*
X151299Y04195D01*
X151344Y042009D01*
X151372Y042077D01*
X151382Y04215D01*
Y042286D01*
X151437Y042341D01*
X151493Y042437D01*
X151521Y042545D01*
Y042655D01*
X151493Y042763D01*
X151437Y042859D01*
X151359Y042937D01*
X151263Y042993D01*
X151155Y043021D01*
X151045D01*
X150937Y042993D01*
X150841Y042937D01*
X150763Y042859D01*
X150707Y042763D01*
X150679Y042655D01*
Y042545D01*
X150707Y042437D01*
X150763Y042341D01*
X150777Y042327D01*
X150757Y042277D01*
X150438D01*
X150419Y042323D01*
X150437Y042341D01*
X150493Y042437D01*
X150521Y042545D01*
Y042655D01*
X150493Y042763D01*
X150437Y042859D01*
X150359Y042937D01*
X150263Y042993D01*
X150155Y043021D01*
X150045D01*
X149937Y042993D01*
X149841Y042937D01*
X149763Y042859D01*
X149707Y042763D01*
X149679Y042655D01*
Y042545D01*
X149707Y042437D01*
X149763Y042341D01*
X149781Y042323D01*
X149762Y042277D01*
X149438D01*
X149419Y042323D01*
X149437Y042341D01*
X149493Y042437D01*
X149521Y042545D01*
Y042655D01*
X149493Y042763D01*
X149437Y042859D01*
X149359Y042937D01*
X149263Y042993D01*
X149155Y043021D01*
X149045D01*
X148937Y042993D01*
X148841Y042937D01*
X148763Y042859D01*
X148707Y042763D01*
X148679Y042655D01*
Y042545D01*
X148707Y042437D01*
X148763Y042341D01*
X148781Y042323D01*
X148762Y042277D01*
X148438D01*
X148419Y042323D01*
X148437Y042341D01*
X148493Y042437D01*
X148521Y042545D01*
Y042655D01*
X148493Y042763D01*
X148437Y042859D01*
X148359Y042937D01*
X148263Y042993D01*
X148155Y043021D01*
X148045D01*
X147937Y042993D01*
X147841Y042937D01*
X147763Y042859D01*
X147707Y042763D01*
X147679Y042655D01*
Y042545D01*
X147707Y042437D01*
X147763Y042341D01*
X147781Y042323D01*
X147762Y042277D01*
X147438D01*
X147419Y042323D01*
X147437Y042341D01*
X147493Y042437D01*
X147521Y042545D01*
Y042655D01*
X147493Y042763D01*
X147437Y042859D01*
X147359Y042937D01*
X147263Y042993D01*
X147155Y043021D01*
X147045D01*
X146937Y042993D01*
X146841Y042937D01*
X146763Y042859D01*
X146707Y042763D01*
X146679Y042655D01*
Y042545D01*
X146707Y042437D01*
X146763Y042341D01*
X146781Y042323D01*
X146762Y042277D01*
X131712D01*
X131032Y042957D01*
Y046814D01*
X1311Y046882D01*
X131157Y046981D01*
X131187Y047092D01*
Y047208D01*
X131157Y047319D01*
X1311Y047418D01*
X131018Y0475D01*
X130919Y047557D01*
X130808Y047587D01*
D02*
G37*
G36*
X127808D02*
X127692D01*
X127581Y047557D01*
X127482Y0475D01*
X1274Y047418D01*
X127343Y047319D01*
X127313Y047208D01*
Y047092D01*
X127343Y046981D01*
X1274Y046882D01*
X127468Y046814D01*
Y0424D01*
X127478Y042327D01*
X127506Y042259D01*
X127551Y042201D01*
X128901Y040851D01*
X128959Y040806D01*
X129027Y040778D01*
X1291Y040768D01*
X1515D01*
X151573Y040778D01*
X151641Y040806D01*
X151699Y040851D01*
X152299Y041451D01*
X152344Y041509D01*
X152372Y041577D01*
X152382Y04165D01*
Y042286D01*
X152437Y042341D01*
X152493Y042437D01*
X152521Y042545D01*
Y042655D01*
X152493Y042763D01*
X152437Y042859D01*
X152359Y042937D01*
X152263Y042993D01*
X152155Y043021D01*
X152045D01*
X151937Y042993D01*
X151841Y042937D01*
X151763Y042859D01*
X151707Y042763D01*
X151679Y042655D01*
Y042545D01*
X151707Y042437D01*
X151763Y042341D01*
X151818Y042286D01*
Y041767D01*
X151383Y041332D01*
X129217D01*
X128032Y042517D01*
Y046814D01*
X1281Y046882D01*
X128157Y046981D01*
X128187Y047092D01*
Y047208D01*
X128157Y047319D01*
X1281Y047418D01*
X128018Y0475D01*
X127919Y047557D01*
X127808Y047587D01*
D02*
G37*
G36*
X153778Y038689D02*
X15375D01*
Y03795D01*
X154489D01*
Y037978D01*
X154459Y03813D01*
X154399Y038274D01*
X154313Y038403D01*
X154203Y038513D01*
X154074Y038599D01*
X15393Y038659D01*
X153778Y038689D01*
D02*
G37*
G36*
X15365D02*
X153622D01*
X15347Y038659D01*
X153326Y038599D01*
X153197Y038513D01*
X153087Y038403D01*
X153001Y038274D01*
X152941Y03813D01*
X152911Y037978D01*
Y03795D01*
X15365D01*
Y038689D01*
D02*
G37*
G36*
X147678Y038639D02*
X14765D01*
Y0379D01*
X148389D01*
Y037928D01*
X148359Y03808D01*
X148299Y038224D01*
X148213Y038353D01*
X148103Y038463D01*
X147974Y038549D01*
X14783Y038609D01*
X147678Y038639D01*
D02*
G37*
G36*
X14755D02*
X147522D01*
X14737Y038609D01*
X147226Y038549D01*
X147097Y038463D01*
X146987Y038353D01*
X146901Y038224D01*
X146841Y03808D01*
X146811Y037928D01*
Y0379D01*
X14755D01*
Y038639D01*
D02*
G37*
G36*
X139775Y037565D02*
X13977D01*
Y0372D01*
X140135D01*
Y037205D01*
X140107Y03731D01*
X140052Y037405D01*
X139975Y037482D01*
X13988Y037537D01*
X139775Y037565D01*
D02*
G37*
G36*
X13967D02*
X139665D01*
X13956Y037537D01*
X139465Y037482D01*
X139388Y037405D01*
X139333Y03731D01*
X139305Y037205D01*
Y0372D01*
X13967D01*
Y037565D01*
D02*
G37*
G36*
X154489Y03785D02*
X15375D01*
Y037111D01*
X153778D01*
X15393Y037141D01*
X154074Y037201D01*
X154203Y037287D01*
X154313Y037397D01*
X154399Y037526D01*
X154459Y03767D01*
X154489Y037822D01*
Y03785D01*
D02*
G37*
G36*
X15365D02*
X152911D01*
Y037822D01*
X152941Y03767D01*
X153001Y037526D01*
X153087Y037397D01*
X153197Y037287D01*
X153326Y037201D01*
X15347Y037141D01*
X153622Y037111D01*
X15365D01*
Y03785D01*
D02*
G37*
G36*
X148389Y0378D02*
X14765D01*
Y037061D01*
X147678D01*
X14783Y037091D01*
X147974Y037151D01*
X148103Y037237D01*
X148213Y037347D01*
X148299Y037476D01*
X148359Y03762D01*
X148389Y037772D01*
Y0378D01*
D02*
G37*
G36*
X14755D02*
X146811D01*
Y037772D01*
X146841Y03762D01*
X146901Y037476D01*
X146987Y037347D01*
X147097Y037237D01*
X147226Y037151D01*
X14737Y037091D01*
X147522Y037061D01*
X14755D01*
Y0378D01*
D02*
G37*
G36*
X140135Y0371D02*
X13977D01*
Y036735D01*
X139775D01*
X13988Y036763D01*
X139975Y036818D01*
X140052Y036895D01*
X140107Y03699D01*
X140135Y037095D01*
Y0371D01*
D02*
G37*
G36*
X13967D02*
X139305D01*
Y037095D01*
X139333Y03699D01*
X139388Y036895D01*
X139465Y036818D01*
X13956Y036763D01*
X139665Y036735D01*
X13967D01*
Y0371D01*
D02*
G37*
G36*
X145455Y035865D02*
X14545D01*
Y0355D01*
X145815D01*
Y035505D01*
X145787Y03561D01*
X145732Y035705D01*
X145655Y035782D01*
X14556Y035837D01*
X145455Y035865D01*
D02*
G37*
G36*
X14535D02*
X145345D01*
X14524Y035837D01*
X145145Y035782D01*
X145068Y035705D01*
X145013Y03561D01*
X144985Y035505D01*
Y0355D01*
X14535D01*
Y035865D01*
D02*
G37*
G36*
X145815Y0354D02*
X14545D01*
Y035035D01*
X145455D01*
X14556Y035063D01*
X145655Y035118D01*
X145732Y035195D01*
X145787Y03529D01*
X145815Y035395D01*
Y0354D01*
D02*
G37*
G36*
X14535D02*
X144985D01*
Y035395D01*
X145013Y03529D01*
X145068Y035195D01*
X145145Y035118D01*
X14524Y035063D01*
X145345Y035035D01*
X14535D01*
Y0354D01*
D02*
G37*
G36*
X131778Y037587D02*
X131662D01*
X131551Y037557D01*
X131452Y0375D01*
X13137Y037418D01*
X131313Y037319D01*
X131283Y037208D01*
Y037092D01*
X131313Y036981D01*
X13137Y036882D01*
X131398Y036854D01*
Y035666D01*
X13135Y035618D01*
X131293Y035519D01*
X131263Y035408D01*
Y035292D01*
X131293Y035181D01*
X13135Y035082D01*
X131432Y035D01*
X131531Y034943D01*
X131642Y034913D01*
X131758D01*
X131869Y034943D01*
X131968Y035D01*
X13205Y035082D01*
X132107Y035181D01*
X132137Y035292D01*
Y035408D01*
X132107Y035519D01*
X13205Y035618D01*
X132042Y035626D01*
Y036854D01*
X13207Y036882D01*
X132127Y036981D01*
X132157Y037092D01*
Y037208D01*
X132127Y037319D01*
X13207Y037418D01*
X131988Y0375D01*
X131889Y037557D01*
X131778Y037587D01*
D02*
G37*
G36*
X130778D02*
X130662D01*
X130551Y037557D01*
X130452Y0375D01*
X13037Y037418D01*
X130313Y037319D01*
X130283Y037208D01*
Y037092D01*
X130313Y036981D01*
X13037Y036882D01*
X130398Y036854D01*
Y035666D01*
X13035Y035618D01*
X130293Y035519D01*
X130263Y035408D01*
Y035292D01*
X130293Y035181D01*
X13035Y035082D01*
X130432Y035D01*
X130531Y034943D01*
X130642Y034913D01*
X130758D01*
X130869Y034943D01*
X130968Y035D01*
X13105Y035082D01*
X131107Y035181D01*
X131137Y035292D01*
Y035408D01*
X131107Y035519D01*
X13105Y035618D01*
X131042Y035626D01*
Y036854D01*
X13107Y036882D01*
X131127Y036981D01*
X131157Y037092D01*
Y037208D01*
X131127Y037319D01*
X13107Y037418D01*
X130988Y0375D01*
X130889Y037557D01*
X130778Y037587D01*
D02*
G37*
G36*
X129778D02*
X129662D01*
X129551Y037557D01*
X129452Y0375D01*
X12937Y037418D01*
X129313Y037319D01*
X129283Y037208D01*
Y037092D01*
X129313Y036981D01*
X12937Y036882D01*
X129398Y036854D01*
Y035666D01*
X12935Y035618D01*
X129293Y035519D01*
X129263Y035408D01*
Y035292D01*
X129293Y035181D01*
X12935Y035082D01*
X129432Y035D01*
X129531Y034943D01*
X129642Y034913D01*
X129758D01*
X129869Y034943D01*
X129968Y035D01*
X13005Y035082D01*
X130107Y035181D01*
X130137Y035292D01*
Y035408D01*
X130107Y035519D01*
X13005Y035618D01*
X130042Y035626D01*
Y036854D01*
X13007Y036882D01*
X130127Y036981D01*
X130157Y037092D01*
Y037208D01*
X130127Y037319D01*
X13007Y037418D01*
X129988Y0375D01*
X129889Y037557D01*
X129778Y037587D01*
D02*
G37*
G36*
X128778D02*
X128662D01*
X128551Y037557D01*
X128452Y0375D01*
X12837Y037418D01*
X128313Y037319D01*
X128283Y037208D01*
Y037092D01*
X128313Y036981D01*
X12837Y036882D01*
X128398Y036854D01*
Y035666D01*
X12835Y035618D01*
X128293Y035519D01*
X128263Y035408D01*
Y035292D01*
X128293Y035181D01*
X12835Y035082D01*
X128432Y035D01*
X128531Y034943D01*
X128642Y034913D01*
X128758D01*
X128869Y034943D01*
X128968Y035D01*
X12905Y035082D01*
X129107Y035181D01*
X129137Y035292D01*
Y035408D01*
X129107Y035519D01*
X12905Y035618D01*
X129042Y035626D01*
Y036854D01*
X12907Y036882D01*
X129127Y036981D01*
X129157Y037092D01*
Y037208D01*
X129127Y037319D01*
X12907Y037418D01*
X128988Y0375D01*
X128889Y037557D01*
X128778Y037587D01*
D02*
G37*
G36*
X127778D02*
X127662D01*
X127551Y037557D01*
X127452Y0375D01*
X12737Y037418D01*
X127313Y037319D01*
X127283Y037208D01*
Y037092D01*
X127313Y036981D01*
X12737Y036882D01*
X127398Y036854D01*
Y035666D01*
X12735Y035618D01*
X127293Y035519D01*
X127263Y035408D01*
Y035292D01*
X127293Y035181D01*
X12735Y035082D01*
X127432Y035D01*
X127531Y034943D01*
X127642Y034913D01*
X127758D01*
X127869Y034943D01*
X127968Y035D01*
X12805Y035082D01*
X128107Y035181D01*
X128137Y035292D01*
Y035408D01*
X128107Y035519D01*
X12805Y035618D01*
X128042Y035626D01*
Y036854D01*
X12807Y036882D01*
X128127Y036981D01*
X128157Y037092D01*
Y037208D01*
X128127Y037319D01*
X12807Y037418D01*
X127988Y0375D01*
X127889Y037557D01*
X127778Y037587D01*
D02*
G37*
G36*
X126778D02*
X126662D01*
X126551Y037557D01*
X126452Y0375D01*
X12637Y037418D01*
X126313Y037319D01*
X126283Y037208D01*
Y037092D01*
X126313Y036981D01*
X12637Y036882D01*
X126398Y036854D01*
Y035666D01*
X12635Y035618D01*
X126293Y035519D01*
X126263Y035408D01*
Y035292D01*
X126293Y035181D01*
X12635Y035082D01*
X126432Y035D01*
X126531Y034943D01*
X126642Y034913D01*
X126758D01*
X126869Y034943D01*
X126968Y035D01*
X12705Y035082D01*
X127107Y035181D01*
X127137Y035292D01*
Y035408D01*
X127107Y035519D01*
X12705Y035618D01*
X127042Y035626D01*
Y036854D01*
X12707Y036882D01*
X127127Y036981D01*
X127157Y037092D01*
Y037208D01*
X127127Y037319D01*
X12707Y037418D01*
X126988Y0375D01*
X126889Y037557D01*
X126778Y037587D01*
D02*
G37*
G36*
X132778D02*
X132662D01*
X132551Y037557D01*
X132452Y0375D01*
X13237Y037418D01*
X132313Y037319D01*
X132283Y037208D01*
Y037092D01*
X132313Y036981D01*
X13237Y036882D01*
X132398Y036854D01*
Y035749D01*
X132343Y035707D01*
X132298Y035648D01*
X13227Y03558D01*
X132261Y035507D01*
Y035193D01*
X13227Y03512D01*
X132298Y035052D01*
X132343Y034993D01*
X132402Y034948D01*
X13247Y03492D01*
X132543Y034911D01*
X132857D01*
X13293Y03492D01*
X132998Y034948D01*
X133057Y034993D01*
X133102Y035052D01*
X13313Y03512D01*
X133139Y035193D01*
Y035507D01*
X13313Y03558D01*
X133102Y035648D01*
X133057Y035707D01*
X133042Y035719D01*
Y036854D01*
X13307Y036882D01*
X133127Y036981D01*
X133157Y037092D01*
Y037208D01*
X133127Y037319D01*
X13307Y037418D01*
X132988Y0375D01*
X132889Y037557D01*
X132778Y037587D01*
D02*
G37*
G36*
X141159Y0349D02*
X14115D01*
Y0345D01*
X14155D01*
Y034509D01*
X141519Y034624D01*
X14146Y034726D01*
X141376Y03481D01*
X141274Y034869D01*
X141159Y0349D01*
D02*
G37*
G36*
X14105D02*
X141041D01*
X140926Y034869D01*
X140824Y03481D01*
X14074Y034726D01*
X140681Y034624D01*
X14065Y034509D01*
Y0345D01*
X14105D01*
Y0349D01*
D02*
G37*
G36*
X138778Y037587D02*
X138662D01*
X138551Y037557D01*
X138452Y0375D01*
X13837Y037418D01*
X138313Y037319D01*
X138283Y037208D01*
Y037092D01*
X138313Y036981D01*
X13837Y036882D01*
X138398Y036854D01*
Y034322D01*
X138223D01*
Y03404D01*
X138173Y03403D01*
X138154Y034076D01*
X138075Y034179D01*
X138042Y034205D01*
Y036854D01*
X13807Y036882D01*
X138127Y036981D01*
X138157Y037092D01*
Y037208D01*
X138127Y037319D01*
X13807Y037418D01*
X137988Y0375D01*
X137889Y037557D01*
X137778Y037587D01*
X137662D01*
X137551Y037557D01*
X137452Y0375D01*
X13737Y037418D01*
X137313Y037319D01*
X137283Y037208D01*
Y037092D01*
X137313Y036981D01*
X13737Y036882D01*
X137398Y036854D01*
Y034205D01*
X137366Y034179D01*
X137286Y034076D01*
X137247Y033982D01*
X137193D01*
X137154Y034076D01*
X137074Y034179D01*
X137042Y034205D01*
Y036854D01*
X13707Y036882D01*
X137127Y036981D01*
X137157Y037092D01*
Y037208D01*
X137127Y037319D01*
X13707Y037418D01*
X136988Y0375D01*
X136889Y037557D01*
X136778Y037587D01*
X136662D01*
X136551Y037557D01*
X136452Y0375D01*
X13637Y037418D01*
X136313Y037319D01*
X136283Y037208D01*
Y037092D01*
X136313Y036981D01*
X13637Y036882D01*
X136398Y036854D01*
Y034205D01*
X136365Y034179D01*
X136286Y034076D01*
X136247Y033982D01*
X136193D01*
X136154Y034076D01*
X136074Y034179D01*
X136042Y034205D01*
Y036854D01*
X13607Y036882D01*
X136127Y036981D01*
X136157Y037092D01*
Y037208D01*
X136127Y037319D01*
X13607Y037418D01*
X135988Y0375D01*
X135889Y037557D01*
X135778Y037587D01*
X135662D01*
X135551Y037557D01*
X135452Y0375D01*
X13537Y037418D01*
X135313Y037319D01*
X135283Y037208D01*
Y037092D01*
X135313Y036981D01*
X13537Y036882D01*
X135398Y036854D01*
Y034205D01*
X135365Y034179D01*
X135286Y034076D01*
X135247Y033982D01*
X135193D01*
X135154Y034076D01*
X135075Y034179D01*
X135042Y034205D01*
Y036854D01*
X13507Y036882D01*
X135127Y036981D01*
X135157Y037092D01*
Y037208D01*
X135127Y037319D01*
X13507Y037418D01*
X134988Y0375D01*
X134889Y037557D01*
X134778Y037587D01*
X134662D01*
X134551Y037557D01*
X134452Y0375D01*
X13437Y037418D01*
X134313Y037319D01*
X134283Y037208D01*
Y037092D01*
X134313Y036981D01*
X13437Y036882D01*
X134398Y036854D01*
Y034205D01*
X134366Y034179D01*
X134286Y034076D01*
X134247Y033982D01*
X134193D01*
X134154Y034076D01*
X134074Y034179D01*
X134042Y034205D01*
Y036854D01*
X13407Y036882D01*
X134127Y036981D01*
X134157Y037092D01*
Y037208D01*
X134127Y037319D01*
X13407Y037418D01*
X133988Y0375D01*
X133889Y037557D01*
X133778Y037587D01*
X133662D01*
X133551Y037557D01*
X133452Y0375D01*
X13337Y037418D01*
X133313Y037319D01*
X133283Y037208D01*
Y037092D01*
X133313Y036981D01*
X13337Y036882D01*
X133398Y036854D01*
Y034205D01*
X133365Y034179D01*
X133286Y034076D01*
X133236Y033955D01*
X133219Y033825D01*
Y033675D01*
X133236Y033545D01*
X133286Y033424D01*
X133365Y033321D01*
X133469Y033241D01*
X13359Y033191D01*
X13372Y033174D01*
X13385Y033191D01*
X133971Y033241D01*
X134074Y033321D01*
X134154Y033424D01*
X134193Y033518D01*
X134247D01*
X134286Y033424D01*
X134366Y033321D01*
X134469Y033241D01*
X13459Y033191D01*
X13472Y033174D01*
X13485Y033191D01*
X134971Y033241D01*
X135075Y033321D01*
X135154Y033424D01*
X135193Y033518D01*
X135247D01*
X135286Y033424D01*
X135365Y033321D01*
X135469Y033241D01*
X13559Y033191D01*
X13572Y033174D01*
X13585Y033191D01*
X135971Y033241D01*
X136074Y033321D01*
X136154Y033424D01*
X136193Y033518D01*
X136247D01*
X136286Y033424D01*
X136365Y033321D01*
X136469Y033241D01*
X13659Y033191D01*
X13672Y033174D01*
X13685Y033191D01*
X136971Y033241D01*
X137074Y033321D01*
X137154Y033424D01*
X137193Y033518D01*
X137247D01*
X137286Y033424D01*
X137366Y033321D01*
X137469Y033241D01*
X13759Y033191D01*
X13772Y033174D01*
X13785Y033191D01*
X137971Y033241D01*
X138075Y033321D01*
X138154Y033424D01*
X138173Y03347D01*
X138223Y03346D01*
Y033178D01*
X139217D01*
Y034322D01*
X139042D01*
Y036854D01*
X13907Y036882D01*
X139127Y036981D01*
X139157Y037092D01*
Y037208D01*
X139127Y037319D01*
X13907Y037418D01*
X138988Y0375D01*
X138889Y037557D01*
X138778Y037587D01*
D02*
G37*
G36*
X14155Y0344D02*
X14115D01*
Y034D01*
X141159D01*
X141274Y034031D01*
X141376Y03409D01*
X14146Y034174D01*
X141519Y034276D01*
X14155Y034391D01*
Y0344D01*
D02*
G37*
G36*
X14105D02*
X14065D01*
Y034391D01*
X140681Y034276D01*
X14074Y034174D01*
X140824Y03409D01*
X140926Y034031D01*
X141041Y034D01*
X14105D01*
Y0344D01*
D02*
G37*
G36*
X130505Y033765D02*
X1305D01*
Y0334D01*
X130865D01*
Y033405D01*
X130837Y03351D01*
X130782Y033605D01*
X130705Y033682D01*
X13061Y033737D01*
X130505Y033765D01*
D02*
G37*
G36*
X126959Y0338D02*
X12695D01*
Y0334D01*
X12735D01*
Y033409D01*
X127319Y033524D01*
X12726Y033626D01*
X127176Y03371D01*
X127074Y033769D01*
X126959Y0338D01*
D02*
G37*
G36*
X1304Y033765D02*
X130395D01*
X13029Y033737D01*
X130195Y033682D01*
X130118Y033605D01*
X130063Y03351D01*
X130035Y033405D01*
Y0334D01*
X1304D01*
Y033765D01*
D02*
G37*
G36*
X12685Y0338D02*
X126841D01*
X126726Y033769D01*
X126624Y03371D01*
X12654Y033626D01*
X126481Y033524D01*
X12645Y033409D01*
Y0334D01*
X12685D01*
Y0338D01*
D02*
G37*
G36*
X14846Y033654D02*
X14845D01*
Y03325D01*
X148854D01*
Y03326D01*
X148823Y033375D01*
X148764Y033479D01*
X148679Y033564D01*
X148575Y033623D01*
X14846Y033654D01*
D02*
G37*
G36*
X14835D02*
X14834D01*
X148225Y033623D01*
X148121Y033564D01*
X148036Y033479D01*
X147977Y033375D01*
X147946Y03326D01*
Y03325D01*
X14835D01*
Y033654D01*
D02*
G37*
G36*
X14116D02*
X14115D01*
Y03325D01*
X141554D01*
Y03326D01*
X141523Y033375D01*
X141464Y033479D01*
X141379Y033564D01*
X141275Y033623D01*
X14116Y033654D01*
D02*
G37*
G36*
X14105D02*
X14104D01*
X140925Y033623D01*
X140821Y033564D01*
X140736Y033479D01*
X140677Y033375D01*
X140646Y03326D01*
Y03325D01*
X14105D01*
Y033654D01*
D02*
G37*
G36*
X130865Y0333D02*
X1305D01*
Y032935D01*
X130505D01*
X13061Y032963D01*
X130705Y033018D01*
X130782Y033095D01*
X130837Y03319D01*
X130865Y033295D01*
Y0333D01*
D02*
G37*
G36*
X1304D02*
X130035D01*
Y033295D01*
X130063Y03319D01*
X130118Y033095D01*
X130195Y033018D01*
X13029Y032963D01*
X130395Y032935D01*
X1304D01*
Y0333D01*
D02*
G37*
G36*
X12735D02*
X12695D01*
Y0329D01*
X126959D01*
X127074Y032931D01*
X127176Y03299D01*
X12726Y033074D01*
X127319Y033176D01*
X12735Y033291D01*
Y0333D01*
D02*
G37*
G36*
X12685D02*
X12645D01*
Y033291D01*
X126481Y033176D01*
X12654Y033074D01*
X126624Y03299D01*
X126726Y032931D01*
X126841Y0329D01*
X12685D01*
Y0333D01*
D02*
G37*
G36*
X148854Y03315D02*
X14845D01*
Y032746D01*
X14846D01*
X148575Y032777D01*
X148679Y032836D01*
X148764Y032921D01*
X148823Y033025D01*
X148854Y03314D01*
Y03315D01*
D02*
G37*
G36*
X14835D02*
X147946D01*
Y03314D01*
X147977Y033025D01*
X148036Y032921D01*
X148121Y032836D01*
X148225Y032777D01*
X14834Y032746D01*
X14835D01*
Y03315D01*
D02*
G37*
G36*
X141554D02*
X14115D01*
Y032746D01*
X14116D01*
X141275Y032777D01*
X141379Y032836D01*
X141464Y032921D01*
X141523Y033025D01*
X141554Y03314D01*
Y03315D01*
D02*
G37*
G36*
X14105D02*
X140646D01*
Y03314D01*
X140677Y033025D01*
X140736Y032921D01*
X140821Y032836D01*
X140925Y032777D01*
X14104Y032746D01*
X14105D01*
Y03315D01*
D02*
G37*
G36*
X14846Y032654D02*
X14845D01*
Y03225D01*
X148854D01*
Y03226D01*
X148823Y032375D01*
X148764Y032479D01*
X148679Y032564D01*
X148575Y032623D01*
X14846Y032654D01*
D02*
G37*
G36*
X14835D02*
X14834D01*
X148225Y032623D01*
X148121Y032564D01*
X148036Y032479D01*
X147977Y032375D01*
X147946Y03226D01*
Y03225D01*
X14835D01*
Y032654D01*
D02*
G37*
G36*
X14116D02*
X14115D01*
Y03225D01*
X141554D01*
Y03226D01*
X141523Y032375D01*
X141464Y032479D01*
X141379Y032564D01*
X141275Y032623D01*
X14116Y032654D01*
D02*
G37*
G36*
X14105D02*
X14104D01*
X140925Y032623D01*
X140821Y032564D01*
X140736Y032479D01*
X140677Y032375D01*
X140646Y03226D01*
Y03225D01*
X14105D01*
Y032654D01*
D02*
G37*
G36*
X148854Y03215D02*
X14845D01*
Y031746D01*
X14846D01*
X148575Y031777D01*
X148679Y031836D01*
X148764Y031921D01*
X148823Y032025D01*
X148854Y03214D01*
Y03215D01*
D02*
G37*
G36*
X14835D02*
X147946D01*
Y03214D01*
X147977Y032025D01*
X148036Y031921D01*
X148121Y031836D01*
X148225Y031777D01*
X14834Y031746D01*
X14835D01*
Y03215D01*
D02*
G37*
G36*
X141554D02*
X14115D01*
Y031746D01*
X14116D01*
X141275Y031777D01*
X141379Y031836D01*
X141464Y031921D01*
X141523Y032025D01*
X141554Y03214D01*
Y03215D01*
D02*
G37*
G36*
X14105D02*
X140646D01*
Y03214D01*
X140677Y032025D01*
X140736Y031921D01*
X140821Y031836D01*
X140925Y031777D01*
X14104Y031746D01*
X14105D01*
Y03215D01*
D02*
G37*
G36*
X120754Y033489D02*
X12058D01*
X120408Y033462D01*
X120242Y033408D01*
X120087Y033329D01*
X119946Y033227D01*
X119823Y033104D01*
X119721Y032963D01*
X119642Y032808D01*
X119588Y032642D01*
X119561Y03247D01*
Y032296D01*
X119588Y032124D01*
X119642Y031958D01*
X119721Y031803D01*
X119823Y031662D01*
X119946Y031539D01*
X120087Y031437D01*
X120242Y031358D01*
X120408Y031304D01*
X12058Y031277D01*
X120754D01*
X120926Y031304D01*
X121092Y031358D01*
X121247Y031437D01*
X121388Y031539D01*
X121511Y031662D01*
X121613Y031803D01*
X121692Y031958D01*
X121746Y032124D01*
X121773Y032296D01*
Y03247D01*
X121746Y032642D01*
X121692Y032808D01*
X121613Y032963D01*
X121511Y033104D01*
X121388Y033227D01*
X121247Y033329D01*
X121092Y033408D01*
X120926Y033462D01*
X120754Y033489D01*
D02*
G37*
G36*
X106187D02*
X106013D01*
X105841Y033462D01*
X105675Y033408D01*
X10552Y033329D01*
X105379Y033227D01*
X105256Y033104D01*
X105154Y032963D01*
X105075Y032808D01*
X105021Y032642D01*
X104994Y03247D01*
Y032296D01*
X105021Y032124D01*
X105075Y031958D01*
X105154Y031803D01*
X105256Y031662D01*
X105379Y031539D01*
X10552Y031437D01*
X105675Y031358D01*
X105841Y031304D01*
X106013Y031277D01*
X106187D01*
X106359Y031304D01*
X106525Y031358D01*
X10668Y031437D01*
X106821Y031539D01*
X106944Y031662D01*
X107046Y031803D01*
X107125Y031958D01*
X107179Y032124D01*
X107206Y032296D01*
Y03247D01*
X107179Y032642D01*
X107125Y032808D01*
X107046Y032963D01*
X106944Y033104D01*
X106821Y033227D01*
X10668Y033329D01*
X106525Y033408D01*
X106359Y033462D01*
X106187Y033489D01*
D02*
G37*
G36*
X139609Y03165D02*
X1396D01*
Y03125D01*
X14D01*
Y031259D01*
X139969Y031374D01*
X13991Y031476D01*
X139826Y03156D01*
X139724Y031619D01*
X139609Y03165D01*
D02*
G37*
G36*
X136955Y031615D02*
X13695D01*
Y03125D01*
X137315D01*
Y031255D01*
X137287Y03136D01*
X137232Y031455D01*
X137155Y031532D01*
X13706Y031587D01*
X136955Y031615D01*
D02*
G37*
G36*
X13685D02*
X136845D01*
X13674Y031587D01*
X136645Y031532D01*
X136568Y031455D01*
X136513Y03136D01*
X136485Y031255D01*
Y03125D01*
X13685D01*
Y031615D01*
D02*
G37*
G36*
X1395Y03165D02*
X139491D01*
X139376Y031619D01*
X139274Y03156D01*
X13919Y031476D01*
X139131Y031374D01*
X1391Y031259D01*
Y03125D01*
X1395D01*
Y03165D01*
D02*
G37*
G36*
X137315Y03115D02*
X13695D01*
Y030785D01*
X136955D01*
X13706Y030813D01*
X137155Y030868D01*
X137232Y030945D01*
X137287Y03104D01*
X137315Y031145D01*
Y03115D01*
D02*
G37*
G36*
X13685D02*
X136485D01*
Y031145D01*
X136513Y03104D01*
X136568Y030945D01*
X136645Y030868D01*
X13674Y030813D01*
X136845Y030785D01*
X13685D01*
Y03115D01*
D02*
G37*
G36*
X14D02*
X1396D01*
Y03075D01*
X139609D01*
X139724Y030781D01*
X139826Y03084D01*
X13991Y030924D01*
X139969Y031026D01*
X14Y031141D01*
Y03115D01*
D02*
G37*
G36*
X1395D02*
X1391D01*
Y031141D01*
X139131Y031026D01*
X13919Y030924D01*
X139274Y03084D01*
X139376Y030781D01*
X139491Y03075D01*
X1395D01*
Y03115D01*
D02*
G37*
G36*
X133666Y052175D02*
X13125D01*
X131164Y052158D01*
X131091Y052109D01*
X130841Y051859D01*
X130792Y051786D01*
X130775Y0517D01*
Y05158D01*
X130758Y051574D01*
X130725Y051568D01*
X13063Y051641D01*
X130515Y051689D01*
X130441Y051698D01*
Y051151D01*
X130391D01*
D01*
X130441D01*
Y050603D01*
X130515Y050613D01*
X13063Y050661D01*
X130725Y050734D01*
X130758Y050727D01*
X130775Y050721D01*
Y049465D01*
X130792Y049379D01*
X130841Y049306D01*
X131106Y049041D01*
X131179Y048992D01*
X131265Y048975D01*
X133469D01*
X133478Y048925D01*
X133408Y048855D01*
X133353Y04876D01*
X133325Y048655D01*
Y04865D01*
X13374D01*
X134155D01*
Y048655D01*
X134127Y04876D01*
X134072Y048855D01*
X134002Y048925D01*
X134011Y048975D01*
X134436D01*
X134457Y048925D01*
X1344Y048868D01*
X134343Y048769D01*
X134313Y048658D01*
Y048542D01*
X134343Y048431D01*
X1344Y048332D01*
X134428Y048304D01*
Y047446D01*
X1344Y047418D01*
X134343Y047319D01*
X134313Y047208D01*
Y047092D01*
X134343Y046981D01*
X1344Y046882D01*
X134482Y0468D01*
X134581Y046743D01*
X134692Y046713D01*
X134808D01*
X134919Y046743D01*
X135018Y0468D01*
X1351Y046882D01*
X135157Y046981D01*
X135187Y047092D01*
Y047208D01*
X135157Y047319D01*
X1351Y047418D01*
X135072Y047446D01*
Y048304D01*
X1351Y048332D01*
X135157Y048431D01*
X135187Y048542D01*
Y048658D01*
X135157Y048769D01*
X1351Y048868D01*
X135043Y048925D01*
X135064Y048975D01*
X135416D01*
X135437Y048925D01*
X13538Y048868D01*
X135323Y048769D01*
X135293Y048658D01*
Y048542D01*
X135323Y048431D01*
X13538Y048332D01*
X135418Y048294D01*
Y047436D01*
X1354Y047418D01*
X135343Y047319D01*
X135313Y047208D01*
Y047092D01*
X135343Y046981D01*
X1354Y046882D01*
X135482Y0468D01*
X135581Y046743D01*
X135692Y046713D01*
X135808D01*
X135919Y046743D01*
X136018Y0468D01*
X1361Y046882D01*
X136157Y046981D01*
X136187Y047092D01*
Y047208D01*
X136157Y047319D01*
X1361Y047418D01*
X136062Y047456D01*
Y048314D01*
X13608Y048332D01*
X136137Y048431D01*
X136167Y048542D01*
Y048658D01*
X136137Y048769D01*
X13608Y048868D01*
X136023Y048925D01*
X136044Y048975D01*
X136334D01*
X136359Y048925D01*
X136338Y048898D01*
X13631Y04883D01*
X136301Y048757D01*
Y048443D01*
X13631Y04837D01*
X136338Y048302D01*
X136383Y048243D01*
X136442Y048198D01*
X13651Y04817D01*
X136583Y048161D01*
X136897D01*
X13697Y04817D01*
X137038Y048198D01*
X137097Y048243D01*
X137142Y048302D01*
X13717Y04837D01*
X137179Y048443D01*
Y048757D01*
X13717Y04883D01*
X137142Y048898D01*
X137097Y048957D01*
X137038Y049002D01*
X13697Y04903D01*
X136897Y049039D01*
X136888D01*
Y049085D01*
X136871Y049171D01*
X136822Y049244D01*
X136707Y049359D01*
X136634Y049408D01*
X136548Y049425D01*
X131358D01*
X131225Y049558D01*
Y050859D01*
X131268Y050884D01*
X131278Y050879D01*
X131352Y050859D01*
X131429D01*
X131503Y050879D01*
X13157Y050917D01*
X131624Y050971D01*
X131663Y051038D01*
X131683Y051112D01*
Y051189D01*
X131663Y051263D01*
X131624Y05133D01*
X13157Y051384D01*
X131503Y051423D01*
X131429Y051443D01*
X131352D01*
X131278Y051423D01*
X131268Y051417D01*
X131225Y051442D01*
Y051607D01*
X131343Y051725D01*
X132167D01*
X132177Y051675D01*
X13214Y05166D01*
X132036Y05158D01*
X131956Y051476D01*
X131906Y051356D01*
X131889Y051226D01*
Y051076D01*
X131906Y050946D01*
X131956Y050825D01*
X132036Y050721D01*
X132069Y050696D01*
Y050009D01*
X13208Y049926D01*
X132112Y049849D01*
X132163Y049782D01*
X132323Y049623D01*
X132389Y049571D01*
X132467Y049539D01*
X13255Y049528D01*
X138501D01*
X138514Y04948D01*
X13851Y049478D01*
X138454Y049422D01*
X138D01*
X137917Y049411D01*
X137839Y049379D01*
X137773Y049327D01*
X137523Y049077D01*
X137471Y049011D01*
X137439Y048933D01*
X137428Y04885D01*
Y047446D01*
X1374Y047418D01*
X137343Y047319D01*
X137313Y047208D01*
Y047092D01*
X137343Y046981D01*
X1374Y046882D01*
X137482Y0468D01*
X137581Y046743D01*
X137692Y046713D01*
X137808D01*
X137919Y046743D01*
X137975Y046775D01*
X138025Y046747D01*
Y046693D01*
X137857Y046525D01*
X137043D01*
X136975Y046593D01*
Y046775D01*
X137018Y0468D01*
X1371Y046882D01*
X137157Y046981D01*
X137187Y047092D01*
Y047208D01*
X137157Y047319D01*
X1371Y047418D01*
X137018Y0475D01*
X136919Y047557D01*
X136808Y047587D01*
X136692D01*
X136581Y047557D01*
X136482Y0475D01*
X1364Y047418D01*
X136343Y047319D01*
X136313Y047208D01*
Y047092D01*
X136343Y046981D01*
X1364Y046882D01*
X136482Y0468D01*
X136525Y046775D01*
Y0465D01*
X136542Y046414D01*
X136591Y046341D01*
X136791Y046141D01*
X136864Y046092D01*
X13695Y046075D01*
X13795D01*
X138036Y046092D01*
X138109Y046141D01*
X138409Y046441D01*
X138458Y046514D01*
X138475Y0466D01*
Y046747D01*
X138525Y046775D01*
X138581Y046743D01*
X138692Y046713D01*
X138808D01*
X138919Y046743D01*
X139018Y0468D01*
X1391Y046882D01*
X139157Y046981D01*
X139187Y047092D01*
Y047208D01*
X139157Y047319D01*
X1391Y047418D01*
X139018Y0475D01*
X138919Y047557D01*
X138808Y047587D01*
X138692D01*
X138581Y047557D01*
X138525Y047525D01*
X138475Y047553D01*
Y047807D01*
X138767Y048099D01*
X144009D01*
X144095Y048116D01*
X144168Y048165D01*
X144459Y048456D01*
X144508Y048529D01*
X144525Y048615D01*
Y0499D01*
X144508Y049986D01*
X144459Y050059D01*
X144059Y050459D01*
X143986Y050508D01*
X1439Y050525D01*
X134302D01*
X1343Y050529D01*
X134326Y050579D01*
X134888D01*
Y050829D01*
X153616D01*
X157328Y047117D01*
Y031833D01*
X155967Y030472D01*
X14866D01*
X14865Y030544D01*
X148618Y030621D01*
X148567Y030688D01*
X144722Y034533D01*
Y035013D01*
X144837D01*
Y035887D01*
X143963D01*
Y035772D01*
X143283D01*
X142877Y036177D01*
X142811Y036229D01*
X142733Y036261D01*
X14265Y036272D01*
X141446D01*
X14139Y036328D01*
X141282Y03639D01*
X14124Y036401D01*
X141042Y036599D01*
Y036713D01*
X141157D01*
Y037587D01*
X140283D01*
Y036713D01*
X140398D01*
Y036466D01*
X140409Y036383D01*
X140441Y036305D01*
X140493Y036239D01*
X140647Y036084D01*
X140628Y036012D01*
Y035888D01*
X14066Y035768D01*
X140722Y03566D01*
X14081Y035572D01*
X140918Y03551D01*
X141038Y035478D01*
X141162D01*
X141282Y03551D01*
X14139Y035572D01*
X141446Y035628D01*
X142517D01*
X142923Y035223D01*
X142989Y035171D01*
X143067Y035139D01*
X14315Y035128D01*
X143963D01*
Y035013D01*
X144078D01*
Y0344D01*
X144089Y034317D01*
X144121Y034239D01*
X144173Y034173D01*
X148018Y030327D01*
Y0302D01*
Y029291D01*
X147956Y029184D01*
X147924Y029063D01*
Y028937D01*
X147956Y028816D01*
X148019Y028707D01*
X148078Y028648D01*
Y028352D01*
X148019Y028293D01*
X147956Y028184D01*
X147924Y028063D01*
Y027937D01*
X147956Y027816D01*
X148019Y027708D01*
X148108Y027619D01*
X148216Y027556D01*
X148337Y027524D01*
X148463D01*
X148584Y027556D01*
X148693Y027619D01*
X148781Y027708D01*
X148844Y027816D01*
X148876Y027937D01*
Y028063D01*
X148844Y028184D01*
X148781Y028293D01*
X148722Y028352D01*
Y028648D01*
X148781Y028707D01*
X148844Y028816D01*
X148876Y028937D01*
Y029063D01*
X148844Y029184D01*
X148781Y029293D01*
X148693Y029381D01*
X148661Y029399D01*
Y029828D01*
X1561D01*
X156183Y029839D01*
X156261Y029871D01*
X156327Y029923D01*
X157877Y031473D01*
X157929Y031539D01*
X157961Y031617D01*
X157972Y0317D01*
Y04725D01*
X157961Y047333D01*
X157929Y047411D01*
X157877Y047477D01*
X153977Y051378D01*
X15391Y051429D01*
X153833Y051461D01*
X153749Y051472D01*
X134888D01*
Y051723D01*
X134211D01*
X133825Y052109D01*
X133752Y052158D01*
X133666Y052175D01*
D02*
G37*
G36*
X139612Y030172D02*
X139488D01*
X139368Y03014D01*
X139335Y030121D01*
X137337D01*
Y030137D01*
X136463D01*
Y029263D01*
X136479D01*
Y028472D01*
X136378D01*
Y027428D01*
X137422D01*
Y028472D01*
X137321D01*
Y029263D01*
X137337D01*
Y029279D01*
X139335D01*
X139368Y02926D01*
X139404Y02925D01*
X139952Y028702D01*
X139952Y028702D01*
X14004Y028635D01*
X140141Y028593D01*
X14025Y028579D01*
X140679D01*
Y028224D01*
X140656Y028184D01*
X140624Y028063D01*
Y027937D01*
X140656Y027816D01*
X140719Y027708D01*
X140808Y027619D01*
X140916Y027556D01*
X141037Y027524D01*
X141163D01*
X141284Y027556D01*
X141392Y027619D01*
X141481Y027708D01*
X141544Y027816D01*
X141576Y027937D01*
Y028063D01*
X141544Y028184D01*
X141521Y028224D01*
Y028776D01*
X141544Y028816D01*
X141576Y028937D01*
Y029063D01*
X141544Y029184D01*
X141481Y029293D01*
X141392Y029381D01*
X141284Y029444D01*
X141163Y029476D01*
X141037D01*
X140916Y029444D01*
X140876Y029421D01*
X140424D01*
X14Y029846D01*
X13999Y029882D01*
X139928Y02999D01*
X13984Y030078D01*
X139732Y03014D01*
X139612Y030172D01*
D02*
G37*
G36*
X131614Y02925D02*
X1316D01*
Y02865D01*
X1322D01*
Y028664D01*
X132175Y02879D01*
X132126Y028908D01*
X132055Y029014D01*
X131964Y029105D01*
X131858Y029176D01*
X13174Y029225D01*
X131614Y02925D01*
D02*
G37*
G36*
X1315D02*
X131486D01*
X13136Y029225D01*
X131242Y029176D01*
X131136Y029105D01*
X131045Y029014D01*
X130974Y028908D01*
X130925Y02879D01*
X1309Y028664D01*
Y02865D01*
X1315D01*
Y02925D01*
D02*
G37*
G36*
X124964D02*
X12495D01*
Y02865D01*
X12555D01*
Y028664D01*
X125525Y02879D01*
X125476Y028908D01*
X125405Y029014D01*
X125314Y029105D01*
X125208Y029176D01*
X12509Y029225D01*
X124964Y02925D01*
D02*
G37*
G36*
X12485D02*
X124836D01*
X12471Y029225D01*
X124592Y029176D01*
X124486Y029105D01*
X124395Y029014D01*
X124324Y028908D01*
X124275Y02879D01*
X12425Y028664D01*
Y02865D01*
X12485D01*
Y02925D01*
D02*
G37*
G36*
X1322Y02855D02*
X1316D01*
Y02795D01*
X131614D01*
X13174Y027975D01*
X131858Y028024D01*
X131964Y028095D01*
X132055Y028186D01*
X132126Y028292D01*
X132175Y02841D01*
X1322Y028536D01*
Y02855D01*
D02*
G37*
G36*
X1315D02*
X1309D01*
Y028536D01*
X130925Y02841D01*
X130974Y028292D01*
X131045Y028186D01*
X131136Y028095D01*
X131242Y028024D01*
X13136Y027975D01*
X131486Y02795D01*
X1315D01*
Y02855D01*
D02*
G37*
G36*
X12555D02*
X12495D01*
Y02795D01*
X124964D01*
X12509Y027975D01*
X125208Y028024D01*
X125314Y028095D01*
X125405Y028186D01*
X125476Y028292D01*
X125525Y02841D01*
X12555Y028536D01*
Y02855D01*
D02*
G37*
G36*
X12485D02*
X12425D01*
Y028536D01*
X124275Y02841D01*
X124324Y028292D01*
X124395Y028186D01*
X124486Y028095D01*
X124592Y028024D01*
X12471Y027975D01*
X124836Y02795D01*
X12485D01*
Y02855D01*
D02*
G37*
G36*
X159587Y029706D02*
X159413D01*
X159241Y029679D01*
X159075Y029625D01*
X15892Y029546D01*
X158779Y029444D01*
X158656Y029321D01*
X158554Y02918D01*
X158475Y029025D01*
X158421Y028859D01*
X158394Y028687D01*
Y028513D01*
X158421Y028341D01*
X158475Y028175D01*
X158554Y02802D01*
X158656Y027879D01*
X158779Y027756D01*
X15892Y027654D01*
X159075Y027575D01*
X159241Y027521D01*
X159413Y027494D01*
X159587D01*
X159759Y027521D01*
X159925Y027575D01*
X16008Y027654D01*
X160221Y027756D01*
X160344Y027879D01*
X160446Y02802D01*
X160525Y028175D01*
X160579Y028341D01*
X160606Y028513D01*
Y028687D01*
X160579Y028859D01*
X160525Y029025D01*
X160446Y02918D01*
X160344Y029321D01*
X160221Y029444D01*
X16008Y029546D01*
X159925Y029625D01*
X159759Y029679D01*
X159587Y029706D01*
D02*
G37*
G36*
X104087D02*
X103913D01*
X103741Y029679D01*
X103575Y029625D01*
X10342Y029546D01*
X103279Y029444D01*
X103156Y029321D01*
X103054Y02918D01*
X102975Y029025D01*
X102921Y028859D01*
X102894Y028687D01*
Y028513D01*
X102921Y028341D01*
X102975Y028175D01*
X103054Y02802D01*
X103156Y027879D01*
X103279Y027756D01*
X10342Y027654D01*
X103575Y027575D01*
X103741Y027521D01*
X103913Y027494D01*
X104087D01*
X104259Y027521D01*
X104425Y027575D01*
X10458Y027654D01*
X104721Y027756D01*
X104844Y027879D01*
X104946Y02802D01*
X105025Y028175D01*
X105079Y028341D01*
X105106Y028513D01*
Y028687D01*
X105079Y028859D01*
X105025Y029025D01*
X104946Y02918D01*
X104844Y029321D01*
X104721Y029444D01*
X10458Y029546D01*
X104425Y029625D01*
X104259Y029679D01*
X104087Y029706D01*
D02*
G37*
%LPD*%
D32*
X139981Y04795D02*
X146569D01*
X13975Y04715D02*
Y047719D01*
X139981Y04795D01*
X1476Y03785D02*
X15535D01*
X15635Y03885D01*
Y0406D01*
X12872Y03535D02*
Y03715D01*
X13272Y03535D02*
Y03715D01*
X12972Y03535D02*
Y03715D01*
X12672Y03535D02*
Y03715D01*
X13072Y03535D02*
Y03715D01*
X12772Y03535D02*
Y03715D01*
X13172Y03535D02*
Y03715D01*
X13372Y03375D02*
Y03715D01*
X13472Y03375D02*
Y03715D01*
X13572Y03375D02*
Y03715D01*
X13672Y03375D02*
Y03715D01*
X13772Y03375D02*
Y03715D01*
X13872Y03375D02*
Y03715D01*
X1411Y0332D02*
Y03445D01*
X139765Y037195D02*
Y038015D01*
X14055Y0388D01*
X13972Y03715D02*
X139765Y037195D01*
X14665Y0388D02*
X1476Y03785D01*
X14055Y0388D02*
X14665D01*
X14265Y03595D02*
X14315Y03545D01*
X1444D01*
X1411Y03595D02*
X14265D01*
X1444Y0344D02*
X14834Y03046D01*
X14072Y036466D02*
Y03715D01*
Y036466D02*
X1411Y036086D01*
X13972Y03583D02*
X1411Y03445D01*
X13972Y03583D02*
Y03715D01*
X1444Y0344D02*
Y03545D01*
X145445Y035495D02*
Y036895D01*
X1464Y03785D01*
X1476D01*
X1454Y03545D02*
X145445Y035495D01*
X1476Y03764D02*
Y03785D01*
X13255Y04985D02*
X142185D01*
X1423Y049735D01*
X132391Y050009D02*
X13255Y04985D01*
X1423Y0491D02*
Y049735D01*
X132391Y050009D02*
Y051151D01*
X13374Y048536D02*
Y0486D01*
X13775Y04715D02*
Y04885D01*
X138Y0491D02*
X1388D01*
X13775Y04885D02*
X138Y0491D01*
X130391Y048831D02*
Y051151D01*
Y048831D02*
X130621Y0486D01*
X13374D01*
X134391Y051151D02*
Y051226D01*
X153749Y051151D02*
X15765Y04725D01*
Y0317D02*
Y04725D01*
X134391Y051151D02*
X153749D01*
X1423Y0491D02*
X14315D01*
X146635Y049085D02*
X14665Y0491D01*
X146635Y048015D02*
Y049085D01*
Y048015D02*
X1474Y04725D01*
X14834Y0302D02*
Y03046D01*
Y02906D02*
Y0302D01*
X14839Y03015D02*
X1561D01*
X14834Y0302D02*
X14839Y03015D01*
X1561D02*
X15765Y0317D01*
X15345Y0406D02*
X15635D01*
Y04545D01*
X15555Y04625D02*
X15635Y04545D01*
X15065Y04625D02*
X15555D01*
X13475Y04715D02*
Y0486D01*
X13574Y04716D02*
Y04859D01*
Y04716D02*
X13575Y04715D01*
X13573Y0486D02*
X13574Y04859D01*
X1531Y04095D02*
X15345Y0406D01*
X1531Y04095D02*
Y0426D01*
X14834Y02906D02*
X1484Y029D01*
Y0332D02*
Y03684D01*
X1476Y03764D02*
X1484Y03684D01*
Y0322D02*
Y0332D01*
X1474Y04565D02*
Y04725D01*
Y04565D02*
X15005D01*
X1411Y0322D02*
Y0332D01*
X1484Y028D02*
Y029D01*
X15005Y04565D02*
X15065Y04625D01*
X14055Y0322D02*
X1411D01*
X13955Y0312D02*
X14055Y0322D01*
X1344Y0312D02*
X1369D01*
X13155Y02835D02*
X1344Y0312D01*
X1369D02*
X13955D01*
D33*
X1454Y03545D02*
D03*
X13975Y04715D02*
D03*
X13875D02*
D03*
X14075D02*
D03*
X13775D02*
D03*
X13675D02*
D03*
X13575D02*
D03*
X13475D02*
D03*
X13375D02*
D03*
X13175D02*
D03*
X13075D02*
D03*
X12975D02*
D03*
X12875D02*
D03*
X12775D02*
D03*
X12675D02*
D03*
X13972Y03715D02*
D03*
X13872D02*
D03*
X13772D02*
D03*
X13672D02*
D03*
X13572D02*
D03*
X13472D02*
D03*
X13372D02*
D03*
X13272D02*
D03*
X13172D02*
D03*
X13072D02*
D03*
X12972D02*
D03*
X12872D02*
D03*
X12772D02*
D03*
X12672D02*
D03*
X13374Y0486D02*
D03*
X13475D02*
D03*
X13573D02*
D03*
X1369Y0312D02*
D03*
X13045Y03335D02*
D03*
X1277Y03535D02*
D03*
X1287D02*
D03*
X1317D02*
D03*
X1307D02*
D03*
X1297D02*
D03*
X1267D02*
D03*
X1474Y04565D02*
D03*
D34*
X1444Y03545D02*
D03*
D35*
X14072Y03715D02*
D03*
X1369Y0297D02*
D03*
X13045Y03185D02*
D03*
X1474Y04465D02*
D03*
D36*
X1541Y0426D02*
D03*
D37*
X1531D02*
D03*
X1521D02*
D03*
X1511D02*
D03*
X1501D02*
D03*
X1491D02*
D03*
X1481D02*
D03*
X1471D02*
D03*
D38*
X1537Y0379D02*
D03*
X1476Y03785D02*
D03*
D39*
X13674Y0486D02*
D03*
X1327Y03535D02*
D03*
D40*
X15065Y04625D02*
D03*
Y04425D02*
D03*
X14665Y0491D02*
D03*
X14315D02*
D03*
X1423D02*
D03*
X1388D02*
D03*
X1411Y03445D02*
D03*
Y03595D02*
D03*
X13955Y0312D02*
D03*
Y0297D02*
D03*
X1269Y03335D02*
D03*
Y03185D02*
D03*
D41*
X130391Y051151D02*
D03*
X133391D02*
D03*
X132391D02*
D03*
X13372Y03375D02*
D03*
X13572D02*
D03*
X13672D02*
D03*
X13772D02*
D03*
X13472D02*
D03*
D42*
X134391Y051151D02*
D03*
X13872Y03375D02*
D03*
D43*
X1334Y02795D02*
D03*
D44*
X1369D02*
D03*
D45*
X104Y0286D02*
D03*
Y0509D02*
D03*
X1595D02*
D03*
Y0286D02*
D03*
X120667Y032383D02*
D03*
X1061D02*
D03*
X120667Y04695D02*
D03*
X1061D02*
D03*
D46*
X1411Y0332D02*
D03*
Y0322D02*
D03*
Y028D02*
D03*
Y029D02*
D03*
X1484Y028D02*
D03*
Y029D02*
D03*
Y0322D02*
D03*
Y0332D02*
D03*
D47*
X1249Y0286D02*
D03*
X1269D02*
D03*
X12955D02*
D03*
X13155D02*
D03*
D48*
X13365Y0503D02*
X1439D01*
X133391Y051151D02*
X13341Y051132D01*
Y05054D02*
X13365Y0503D01*
X13341Y05054D02*
Y051132D01*
X144085Y0484D02*
X1443Y048615D01*
X13825Y0479D02*
X13875Y0484D01*
X144085D01*
X131Y0517D02*
X13125Y05195D01*
X133666D02*
X134391Y051226D01*
X13125Y05195D02*
X133666D01*
X1411Y03595D02*
Y036086D01*
X1443Y048615D02*
Y0499D01*
X1439Y0503D02*
X1443Y0499D01*
X13974Y04714D02*
X13975Y04715D01*
X136663Y048677D02*
X13674Y0486D01*
X136548Y0492D02*
X136663Y049085D01*
X131265Y0492D02*
X136548D01*
X136663Y048677D02*
Y049085D01*
X131Y049465D02*
X131265Y0492D01*
X131Y049465D02*
Y0517D01*
D49*
X12955Y027746D02*
Y028738D01*
Y027746D02*
X129896Y0274D01*
X132793D01*
X133343Y02795D01*
X1334D01*
X1411Y028D02*
Y029D01*
X1369Y02795D02*
Y0297D01*
X14025Y029D02*
X1411D01*
X13955Y0297D02*
X14025Y029D01*
X1369Y0297D02*
X13955D01*
D50*
X13075Y04284D02*
Y04715D01*
Y04284D02*
X131595Y041995D01*
X1291Y04105D02*
X1515D01*
X1521Y04165D02*
Y0426D01*
X1515Y04105D02*
X1521Y04165D01*
X1511Y04215D02*
Y0426D01*
X131595Y041995D02*
X150945D01*
X1511Y04215D01*
X15245Y04425D02*
X1541Y0426D01*
X15065Y04425D02*
X15245D01*
X12775Y0424D02*
X1291Y04105D01*
X12775Y0424D02*
Y04715D01*
X1478Y04425D02*
X15065D01*
X1474Y04465D02*
X1478Y04425D01*
X14626Y04579D02*
X1474Y04465D01*
X14211Y04579D02*
X14626D01*
X14075Y04715D02*
X14211Y04579D01*
D51*
X1269Y03335D02*
X13045D01*
X1253D02*
X1269D01*
X1249Y0286D02*
Y03295D01*
X1253Y03335D01*
X13045Y029638D02*
Y03185D01*
X12955Y028738D02*
X13045Y029638D01*
X13155Y0286D02*
Y03225D01*
X13045Y03335D02*
X13155Y03225D01*
X1269Y0286D02*
Y03185D01*
X13045D01*
D52*
X13695Y0463D02*
X13795D01*
X13675Y0465D02*
Y04715D01*
Y0465D02*
X13695Y0463D01*
X13825Y0466D02*
Y0479D01*
X13795Y0463D02*
X13825Y0466D01*
D53*
X13885Y0454D02*
X13974Y04629D01*
Y04714D01*
X1335Y0454D02*
X13885D01*
X13315Y04575D02*
X1335Y0454D01*
X13315Y04575D02*
Y047946D01*
X13374Y048536D01*
M02*
