G04*
G04 #@! TF.GenerationSoftware,Altium Limited,Altium Designer,21.3.2 (30)*
G04*
G04 Layer_Color=65535*
%FSTAX24Y24*%
%MOIN*%
G70*
G04*
G04 #@! TF.SameCoordinates,529C8F2E-CDB4-460A-A293-509601535585*
G04*
G04*
G04 #@! TF.FilePolarity,Positive*
G04*
G01*
G75*
%ADD10C,0.0070*%
%ADD11C,0.0080*%
%ADD12C,0.0100*%
%ADD13C,0.0079*%
%ADD14R,0.0550X0.0100*%
%ADD15R,0.0200X0.1000*%
G36*
X13125Y0341D02*
X13165Y0338D01*
X13195Y0334D01*
X13215Y03285D01*
X13075D01*
Y0329D01*
X130762Y032901D01*
X130785Y032905D01*
X130807Y032914D01*
X130827Y032927D01*
X130835Y032935D01*
X13095Y03305D01*
Y03305D01*
X130972Y033075D01*
X13101Y03313D01*
X131035Y033192D01*
X131048Y033258D01*
X13105Y033291D01*
Y033429D01*
X131049Y033446D01*
X131043Y033479D01*
X13103Y03351D01*
X131011Y033538D01*
X131Y03355D01*
X130999Y033562D01*
X130995Y033585D01*
X130986Y033607D01*
X130973Y033627D01*
X130965Y033635D01*
X13085Y03375D01*
X13085Y03375D01*
X130838Y033761D01*
X13081Y03378D01*
X130779Y033793D01*
X130746Y033799D01*
X130729Y0338D01*
X130221D01*
X130204Y033799D01*
X130171Y033793D01*
X13014Y03378D01*
X130112Y033761D01*
X1301Y03375D01*
X13005Y0337D01*
X130038Y033699D01*
X130015Y033695D01*
X129993Y033686D01*
X129973Y033673D01*
X129965Y033665D01*
X1299Y0336D01*
Y0336D01*
X129889Y033588D01*
X12987Y03356D01*
X129857Y033529D01*
X129851Y033496D01*
X12985Y033479D01*
Y0332D01*
X1302Y03285D01*
X12875D01*
X1288Y03305D01*
X129Y0335D01*
X1293Y03385D01*
X12975Y03415D01*
X13025Y0343D01*
X13065D01*
X13125Y0341D01*
D02*
G37*
G36*
X1377Y03195D02*
X1381Y03165D01*
X1384Y03125D01*
X1386Y0307D01*
X1372D01*
Y03075D01*
X137212Y030751D01*
X137235Y030755D01*
X137257Y030764D01*
X137277Y030777D01*
X137285Y030785D01*
X1374Y0309D01*
Y0309D01*
X137423Y030925D01*
X13746Y03098D01*
X137485Y031042D01*
X137498Y031108D01*
X1375Y031141D01*
Y031279D01*
X137499Y031296D01*
X137493Y031329D01*
X13748Y03136D01*
X137461Y031388D01*
X13745Y0314D01*
X137449Y031412D01*
X137445Y031435D01*
X137436Y031457D01*
X137423Y031477D01*
X137415Y031485D01*
X1373Y0316D01*
X1373Y0316D01*
X137288Y031611D01*
X13726Y03163D01*
X137229Y031643D01*
X137196Y031649D01*
X137179Y03165D01*
X136671D01*
X136654Y031649D01*
X136621Y031643D01*
X13659Y03163D01*
X136562Y031611D01*
X13655Y0316D01*
X1365Y03155D01*
X136488Y031549D01*
X136465Y031545D01*
X136443Y031536D01*
X136423Y031523D01*
X136415Y031515D01*
X13635Y03145D01*
Y03145D01*
X136339Y031438D01*
X13632Y03141D01*
X136307Y031379D01*
X136301Y031346D01*
X1363Y031329D01*
Y03105D01*
X13665Y0307D01*
X1352D01*
X13525Y0309D01*
X13545Y03135D01*
X13575Y0317D01*
X1362Y032D01*
X1367Y03215D01*
X1371D01*
X1377Y03195D01*
D02*
G37*
G36*
X1308Y0292D02*
X13065D01*
Y02895D01*
X13045D01*
Y0292D01*
X1303D01*
X13055Y02945D01*
X1308Y0292D01*
D02*
G37*
G36*
X12615D02*
X126D01*
Y02895D01*
X1258D01*
Y0292D01*
X12565D01*
X1259Y02945D01*
X12615Y0292D01*
D02*
G37*
G36*
X139125Y035245D02*
X138415D01*
X138765Y034895D01*
Y034885D01*
X139125Y035245D01*
D02*
G37*
G36*
X14555Y0365D02*
Y03581D01*
X14562Y03576D01*
X14569Y0357D01*
X14573Y03565D01*
X14575Y0356D01*
X14577Y0355D01*
Y03539D01*
X14575Y03531D01*
X14572Y03526D01*
X14568Y03521D01*
X14564Y03517D01*
X1456Y03514D01*
X14555Y03511D01*
Y03438D01*
X14564Y03446D01*
X14579Y03459D01*
X14592Y03476D01*
X14607Y03509D01*
X14611Y0353D01*
X146116Y03545D01*
X14607Y03575D01*
X14593Y03612D01*
X14571Y03638D01*
X14555Y0365D01*
D02*
G37*
G36*
X134746Y052646D02*
X134036D01*
X134386Y052296D01*
Y052286D01*
X134746Y052646D01*
D02*
G37*
G36*
X14656Y04565D02*
X14702D01*
X14704Y04577D01*
X14708Y04587D01*
X14713Y04594D01*
X14721Y04599D01*
X1473Y04602D01*
X1474Y04603D01*
X1475Y04602D01*
X14757Y04599D01*
X14764Y04594D01*
X14771Y04588D01*
X14775Y04582D01*
X14778Y04572D01*
Y04565D01*
X14825D01*
X14818Y04573D01*
X14809Y04585D01*
X14799Y04593D01*
X14784Y04602D01*
X14759Y04609D01*
X14731Y04611D01*
X147Y04604D01*
X1468Y04592D01*
X14661Y04575D01*
X14656Y04565D01*
D02*
G37*
G36*
X147095Y030865D02*
X147102Y030864D01*
X147109Y030863D01*
X147118Y030862D01*
X147127Y03086D01*
X147137Y030858D01*
X147148Y030856D01*
X147158Y030852D01*
X147169Y030848D01*
X14718Y030844D01*
X147191Y030838D01*
X147201Y030833D01*
X147211Y030826D01*
X147212Y030825D01*
X147214Y030824D01*
X147216Y030822D01*
X14722Y030818D01*
X147224Y030815D01*
X147229Y03081D01*
X147234Y030804D01*
X14724Y030797D01*
X147246Y03079D01*
X147252Y030782D01*
X147259Y030773D01*
X147264Y030763D01*
X14727Y030752D01*
X147275Y030741D01*
X14728Y030729D01*
X147285Y030716D01*
X147218Y0307D01*
Y030701D01*
X147217Y030702D01*
X147216Y030706D01*
X147215Y03071D01*
X147213Y030714D01*
X14721Y030719D01*
X147205Y030731D01*
X147198Y030745D01*
X147188Y030759D01*
X147178Y030771D01*
X147172Y030777D01*
X147166Y030782D01*
X147165Y030782D01*
X147164Y030783D01*
X147163Y030784D01*
X14716Y030786D01*
X147156Y030788D01*
X147153Y03079D01*
X147148Y030792D01*
X147143Y030795D01*
X147136Y030797D01*
X14713Y030799D01*
X147116Y030803D01*
X147099Y030806D01*
X14709Y030807D01*
X147075D01*
X147071Y030807D01*
X147066Y030806D01*
X14706Y030806D01*
X147053Y030805D01*
X147047Y030804D01*
X14703Y0308D01*
X147014Y030795D01*
X147006Y030792D01*
X146997Y030788D01*
X146989Y030784D01*
X146982Y030779D01*
X146981Y030778D01*
X14698Y030777D01*
X146978Y030776D01*
X146975Y030774D01*
X146972Y030771D01*
X146968Y030767D01*
X146964Y030763D01*
X14696Y030759D01*
X146956Y030753D01*
X146951Y030747D01*
X146942Y030735D01*
X146933Y03072D01*
X146926Y030702D01*
Y030702D01*
X146926Y0307D01*
X146924Y030698D01*
X146924Y030694D01*
X146923Y03069D01*
X146921Y030685D01*
X14692Y030679D01*
X146918Y030673D01*
X146917Y030665D01*
X146916Y030658D01*
X146913Y030641D01*
X146911Y030623D01*
X146911Y030604D01*
Y030604D01*
Y030601D01*
Y030598D01*
X146911Y030593D01*
Y030588D01*
X146912Y030581D01*
X146912Y030574D01*
X146913Y030565D01*
X146914Y030557D01*
X146915Y030548D01*
X146918Y030528D01*
X146923Y030509D01*
X146929Y03049D01*
Y030489D01*
X146931Y030488D01*
X146932Y030485D01*
X146933Y030482D01*
X146935Y030478D01*
X146938Y030473D01*
X146944Y030463D01*
X146952Y030451D01*
X146962Y030439D01*
X146974Y030427D01*
X146981Y030422D01*
X146988Y030417D01*
X146989D01*
X14699Y030416D01*
X146992Y030415D01*
X146996Y030413D01*
X146999Y030412D01*
X147004Y030409D01*
X147009Y030408D01*
X147014Y030406D01*
X147027Y030401D01*
X147042Y030397D01*
X147058Y030394D01*
X147067Y030394D01*
X147075Y030393D01*
X147081D01*
X147085Y030394D01*
X14709Y030394D01*
X147095Y030395D01*
X147102Y030396D01*
X147109Y030397D01*
X147124Y030401D01*
X147132Y030404D01*
X14714Y030407D01*
X147149Y030411D01*
X147156Y030416D01*
X147164Y030421D01*
X147172Y030426D01*
X147173Y030427D01*
X147174Y030428D01*
X147176Y030429D01*
X147179Y030432D01*
X147181Y030436D01*
X147185Y03044D01*
X147189Y030445D01*
X147194Y030451D01*
X147198Y030457D01*
X147203Y030464D01*
X147207Y030472D01*
X147211Y030481D01*
X147215Y03049D01*
X147219Y030501D01*
X147223Y030512D01*
X147226Y030524D01*
X147294Y030507D01*
Y030505D01*
X147292Y030503D01*
X147291Y030499D01*
X147289Y030493D01*
X147287Y030486D01*
X147284Y030478D01*
X14728Y030469D01*
X147276Y030459D01*
X147271Y030449D01*
X147265Y030439D01*
X147259Y030428D01*
X147252Y030417D01*
X147244Y030407D01*
X147236Y030397D01*
X147226Y030388D01*
X147216Y030379D01*
X147216Y030378D01*
X147214Y030377D01*
X147211Y030375D01*
X147206Y030372D01*
X147201Y030369D01*
X147195Y030365D01*
X147188Y030361D01*
X147179Y030357D01*
X147169Y030353D01*
X147159Y03035D01*
X147148Y030346D01*
X147136Y030342D01*
X147123Y03034D01*
X14711Y030337D01*
X147096Y030336D01*
X147081Y030336D01*
X147073D01*
X147067Y030336D01*
X14706Y030337D01*
X147052Y030337D01*
X147043Y030338D01*
X147033Y03034D01*
X147023Y030342D01*
X147012Y030344D01*
X147001Y030347D01*
X146989Y03035D01*
X146978Y030353D01*
X146967Y030358D01*
X146956Y030363D01*
X146946Y030369D01*
X146946Y030369D01*
X146944Y030371D01*
X146941Y030372D01*
X146938Y030375D01*
X146933Y030379D01*
X146928Y030383D01*
X146923Y030388D01*
X146917Y030394D01*
X146911Y030401D01*
X146904Y030408D01*
X146898Y030416D01*
X146891Y030424D01*
X146885Y030434D01*
X146878Y030444D01*
X146873Y030455D01*
X146867Y030467D01*
X146867Y030467D01*
X146866Y030469D01*
X146865Y030473D01*
X146863Y030478D01*
X146861Y030484D01*
X146859Y03049D01*
X146857Y030499D01*
X146854Y030508D01*
X146852Y030518D01*
X146849Y030528D01*
X146847Y030539D01*
X146845Y030552D01*
X146842Y030577D01*
X146841Y03059D01*
X146841Y030604D01*
Y030605D01*
Y030607D01*
Y030611D01*
X146841Y030617D01*
X146842Y030624D01*
X146842Y030633D01*
X146843Y030641D01*
X146845Y030651D01*
X146846Y030662D01*
X146848Y030673D01*
X146853Y030697D01*
X146857Y030709D01*
X146861Y03072D01*
X146866Y030732D01*
X146871Y030744D01*
X146872Y030744D01*
X146873Y030746D01*
X146875Y030749D01*
X146877Y030754D01*
X14688Y030759D01*
X146884Y030764D01*
X146888Y03077D01*
X146893Y030777D01*
X1469Y030784D01*
X146906Y030792D01*
X146913Y030799D01*
X146921Y030807D01*
X146929Y030814D01*
X146938Y030821D01*
X146948Y030828D01*
X146958Y030834D01*
X146958Y030835D01*
X146961Y030835D01*
X146963Y030837D01*
X146968Y030839D01*
X146973Y030841D01*
X146979Y030844D01*
X146987Y030847D01*
X146994Y03085D01*
X147003Y030852D01*
X147013Y030855D01*
X147023Y030858D01*
X147034Y03086D01*
X147057Y030864D01*
X147069Y030865D01*
X147082Y030865D01*
X147089D01*
X147095Y030865D01*
D02*
G37*
G36*
X145823D02*
X14583Y030864D01*
X145838Y030863D01*
X145846Y030862D01*
X145856Y03086D01*
X145866Y030858D01*
X145876Y030856D01*
X145887Y030852D01*
X145898Y030848D01*
X145909Y030844D01*
X145919Y030838D01*
X14593Y030833D01*
X14594Y030826D01*
X14594Y030825D01*
X145942Y030824D01*
X145945Y030822D01*
X145948Y030818D01*
X145953Y030815D01*
X145958Y03081D01*
X145963Y030804D01*
X145969Y030797D01*
X145975Y03079D01*
X145981Y030782D01*
X145987Y030773D01*
X145993Y030763D01*
X145999Y030752D01*
X146004Y030741D01*
X146009Y030729D01*
X146013Y030716D01*
X145947Y0307D01*
Y030701D01*
X145945Y030702D01*
X145945Y030706D01*
X145943Y03071D01*
X145942Y030714D01*
X145939Y030719D01*
X145933Y030731D01*
X145926Y030745D01*
X145917Y030759D01*
X145907Y030771D01*
X145901Y030777D01*
X145894Y030782D01*
X145894Y030782D01*
X145893Y030783D01*
X145891Y030784D01*
X145888Y030786D01*
X145885Y030788D01*
X145881Y03079D01*
X145877Y030792D01*
X145871Y030795D01*
X145865Y030797D01*
X145859Y030799D01*
X145844Y030803D01*
X145828Y030806D01*
X145819Y030807D01*
X145804D01*
X1458Y030807D01*
X145795Y030806D01*
X145788Y030806D01*
X145782Y030805D01*
X145775Y030804D01*
X145759Y0308D01*
X145742Y030795D01*
X145734Y030792D01*
X145726Y030788D01*
X145718Y030784D01*
X14571Y030779D01*
X14571Y030778D01*
X145708Y030777D01*
X145706Y030776D01*
X145703Y030774D01*
X145701Y030771D01*
X145697Y030767D01*
X145693Y030763D01*
X145689Y030759D01*
X145684Y030753D01*
X145679Y030747D01*
X14567Y030735D01*
X145662Y03072D01*
X145655Y030702D01*
Y030702D01*
X145654Y0307D01*
X145653Y030698D01*
X145652Y030694D01*
X145651Y03069D01*
X14565Y030685D01*
X145649Y030679D01*
X145647Y030673D01*
X145645Y030665D01*
X145644Y030658D01*
X145641Y030641D01*
X14564Y030623D01*
X145639Y030604D01*
Y030604D01*
Y030601D01*
Y030598D01*
X14564Y030593D01*
Y030588D01*
X14564Y030581D01*
X145641Y030574D01*
X145641Y030565D01*
X145642Y030557D01*
X145644Y030548D01*
X145647Y030528D01*
X145652Y030509D01*
X145658Y03049D01*
Y030489D01*
X145659Y030488D01*
X14566Y030485D01*
X145661Y030482D01*
X145664Y030478D01*
X145666Y030473D01*
X145672Y030463D01*
X145681Y030451D01*
X145691Y030439D01*
X145703Y030427D01*
X14571Y030422D01*
X145717Y030417D01*
X145717D01*
X145718Y030416D01*
X145721Y030415D01*
X145724Y030413D01*
X145728Y030412D01*
X145732Y030409D01*
X145737Y030408D01*
X145743Y030406D01*
X145756Y030401D01*
X145771Y030397D01*
X145787Y030394D01*
X145795Y030394D01*
X145804Y030393D01*
X145809D01*
X145813Y030394D01*
X145818Y030394D01*
X145824Y030395D01*
X145831Y030396D01*
X145837Y030397D01*
X145853Y030401D01*
X145861Y030404D01*
X145869Y030407D01*
X145877Y030411D01*
X145885Y030416D01*
X145893Y030421D01*
X145901Y030426D01*
X145901Y030427D01*
X145902Y030428D01*
X145904Y030429D01*
X145907Y030432D01*
X14591Y030436D01*
X145914Y03044D01*
X145918Y030445D01*
X145922Y030451D01*
X145927Y030457D01*
X145931Y030464D01*
X145935Y030472D01*
X14594Y030481D01*
X145944Y03049D01*
X145948Y030501D01*
X145952Y030512D01*
X145954Y030524D01*
X146022Y030507D01*
Y030505D01*
X146021Y030503D01*
X14602Y030499D01*
X146018Y030493D01*
X146015Y030486D01*
X146012Y030478D01*
X146009Y030469D01*
X146004Y030459D01*
X145999Y030449D01*
X145994Y030439D01*
X145988Y030428D01*
X14598Y030417D01*
X145973Y030407D01*
X145964Y030397D01*
X145955Y030388D01*
X145945Y030379D01*
X145944Y030378D01*
X145942Y030377D01*
X145939Y030375D01*
X145935Y030372D01*
X14593Y030369D01*
X145923Y030365D01*
X145916Y030361D01*
X145907Y030357D01*
X145898Y030353D01*
X145888Y03035D01*
X145877Y030346D01*
X145864Y030342D01*
X145852Y03034D01*
X145838Y030337D01*
X145824Y030336D01*
X145809Y030336D01*
X145802D01*
X145796Y030336D01*
X145789Y030337D01*
X145781Y030337D01*
X145772Y030338D01*
X145762Y03034D01*
X145751Y030342D01*
X14574Y030344D01*
X145729Y030347D01*
X145718Y03035D01*
X145706Y030353D01*
X145695Y030358D01*
X145685Y030363D01*
X145675Y030369D01*
X145674Y030369D01*
X145672Y030371D01*
X14567Y030372D01*
X145666Y030375D01*
X145662Y030379D01*
X145657Y030383D01*
X145651Y030388D01*
X145645Y030394D01*
X145639Y030401D01*
X145632Y030408D01*
X145626Y030416D01*
X14562Y030424D01*
X145613Y030434D01*
X145607Y030444D01*
X145601Y030455D01*
X145596Y030467D01*
X145595Y030467D01*
X145595Y030469D01*
X145594Y030473D01*
X145592Y030478D01*
X14559Y030484D01*
X145587Y03049D01*
X145585Y030499D01*
X145583Y030508D01*
X14558Y030518D01*
X145578Y030528D01*
X145575Y030539D01*
X145574Y030552D01*
X14557Y030577D01*
X14557Y03059D01*
X145569Y030604D01*
Y030605D01*
Y030607D01*
Y030611D01*
X14557Y030617D01*
X14557Y030624D01*
X145571Y030633D01*
X145572Y030641D01*
X145573Y030651D01*
X145575Y030662D01*
X145576Y030673D01*
X145582Y030697D01*
X145586Y030709D01*
X14559Y03072D01*
X145594Y030732D01*
X1456Y030744D01*
X1456Y030744D01*
X145601Y030746D01*
X145603Y030749D01*
X145605Y030754D01*
X145609Y030759D01*
X145612Y030764D01*
X145617Y03077D01*
X145622Y030777D01*
X145628Y030784D01*
X145634Y030792D01*
X145641Y030799D01*
X145649Y030807D01*
X145657Y030814D01*
X145666Y030821D01*
X145676Y030828D01*
X145686Y030834D01*
X145687Y030835D01*
X145689Y030835D01*
X145692Y030837D01*
X145696Y030839D01*
X145701Y030841D01*
X145708Y030844D01*
X145715Y030847D01*
X145723Y03085D01*
X145732Y030852D01*
X145742Y030855D01*
X145752Y030858D01*
X145763Y03086D01*
X145786Y030864D01*
X145798Y030865D01*
X145811Y030865D01*
X145818D01*
X145823Y030865D01*
D02*
G37*
G36*
X146266Y030498D02*
X146073D01*
Y030561D01*
X146266D01*
Y030498D01*
D02*
G37*
G36*
X142695Y030344D02*
X14263D01*
Y030773D01*
X14248Y030344D01*
X142419D01*
X142271Y03078D01*
Y030344D01*
X142206D01*
Y030856D01*
X142307D01*
X142429Y030493D01*
Y030493D01*
X14243Y030491D01*
X142431Y030488D01*
X142432Y030485D01*
X142433Y030481D01*
X142435Y030476D01*
X142438Y030465D01*
X142442Y030453D01*
X142446Y03044D01*
X14245Y030428D01*
X142452Y030423D01*
X142453Y030418D01*
Y030418D01*
X142454Y030419D01*
X142455Y030421D01*
X142455Y030423D01*
X142456Y030426D01*
X142457Y030429D01*
X142458Y030434D01*
X14246Y030438D01*
X142462Y030444D01*
X142464Y03045D01*
X142466Y030457D01*
X142468Y030464D01*
X142471Y030472D01*
X142474Y030481D01*
X142477Y03049D01*
X142481Y0305D01*
X142604Y030856D01*
X142695D01*
Y030344D01*
D02*
G37*
G36*
X14397Y03079D02*
X143765D01*
X143738Y030652D01*
X143738Y030653D01*
X14374Y030654D01*
X143742Y030655D01*
X143745Y030657D01*
X14375Y030659D01*
X143755Y030662D01*
X14376Y030665D01*
X143767Y030668D01*
X143774Y030671D01*
X143782Y030674D01*
X143798Y030679D01*
X143806Y030681D01*
X143815Y030683D01*
X143825Y030684D01*
X143834Y030684D01*
X143837D01*
X143841Y030684D01*
X143845D01*
X143851Y030683D01*
X143858Y030682D01*
X143865Y03068D01*
X143873Y030679D01*
X143882Y030676D01*
X143891Y030673D01*
X1439Y030669D01*
X14391Y030665D01*
X143919Y030659D01*
X143929Y030653D01*
X143938Y030646D01*
X143947Y030638D01*
X143947Y030637D01*
X143949Y030635D01*
X143951Y030633D01*
X143954Y030629D01*
X143958Y030625D01*
X143962Y030619D01*
X143966Y030613D01*
X14397Y030605D01*
X143975Y030597D01*
X143979Y030588D01*
X143983Y030578D01*
X143986Y030567D01*
X143989Y030556D01*
X143991Y030544D01*
X143993Y030531D01*
X143994Y030518D01*
Y030517D01*
Y030514D01*
Y030511D01*
X143993Y030506D01*
X143992Y0305D01*
X143991Y030493D01*
X14399Y030485D01*
X143989Y030477D01*
X143986Y030468D01*
X143984Y030458D01*
X14398Y030448D01*
X143976Y030438D01*
X143972Y030428D01*
X143966Y030417D01*
X14396Y030407D01*
X143953Y030398D01*
X143952Y030397D01*
X143951Y030395D01*
X143948Y030392D01*
X143944Y030388D01*
X143939Y030383D01*
X143933Y030378D01*
X143926Y030372D01*
X143918Y030367D01*
X143909Y030361D01*
X143899Y030355D01*
X143888Y03035D01*
X143875Y030346D01*
X143863Y030341D01*
X143849Y030338D01*
X143834Y030336D01*
X143819Y030336D01*
X143812D01*
X143807Y030336D01*
X143801Y030337D01*
X143794Y030338D01*
X143787Y030339D01*
X143778Y030341D01*
X143769Y030342D01*
X14376Y030345D01*
X14375Y030348D01*
X143741Y030352D01*
X143732Y030357D01*
X143722Y030362D01*
X143713Y030368D01*
X143704Y030374D01*
X143704Y030375D01*
X143703Y030376D01*
X1437Y030378D01*
X143698Y030382D01*
X143694Y030386D01*
X14369Y03039D01*
X143686Y030396D01*
X143682Y030402D01*
X143677Y030409D01*
X143673Y030417D01*
X143669Y030426D01*
X143665Y030434D01*
X143661Y030444D01*
X143658Y030455D01*
X143656Y030467D01*
X143654Y030478D01*
X14372Y030483D01*
Y030483D01*
X143721Y030481D01*
X143722Y030479D01*
X143722Y030475D01*
X143723Y030472D01*
X143724Y030467D01*
X143727Y030456D01*
X143732Y030444D01*
X143738Y030432D01*
X143745Y030421D01*
X143749Y030416D01*
X143754Y030411D01*
X143754D01*
X143755Y03041D01*
X143757Y030409D01*
X143759Y030407D01*
X143764Y030403D01*
X143772Y030399D01*
X143782Y030395D01*
X143793Y030391D01*
X143805Y030388D01*
X143811Y030388D01*
X143819Y030387D01*
X143823D01*
X143826Y030388D01*
X14383Y030388D01*
X143835Y030389D01*
X143845Y030392D01*
X143858Y030396D01*
X143864Y030398D01*
X14387Y030402D01*
X143877Y030406D01*
X143883Y03041D01*
X143889Y030415D01*
X143895Y030421D01*
X143896Y030422D01*
X143896Y030423D01*
X143898Y030424D01*
X1439Y030427D01*
X143903Y030431D01*
X143905Y030435D01*
X143908Y03044D01*
X143911Y030446D01*
X143914Y030452D01*
X143917Y030458D01*
X14392Y030466D01*
X143922Y030474D01*
X143924Y030483D01*
X143926Y030492D01*
X143926Y030502D01*
X143927Y030512D01*
Y030513D01*
Y030514D01*
Y030517D01*
X143926Y030521D01*
X143926Y030525D01*
X143925Y030531D01*
X143924Y030537D01*
X143923Y030543D01*
X14392Y030557D01*
X143914Y030571D01*
X143911Y030578D01*
X143906Y030584D01*
X143902Y030591D01*
X143896Y030597D01*
X143896Y030598D01*
X143895Y030598D01*
X143893Y0306D01*
X143891Y030602D01*
X143888Y030604D01*
X143884Y030607D01*
X14388Y03061D01*
X143875Y030613D01*
X14387Y030616D01*
X143864Y030619D01*
X14385Y030624D01*
X143843Y030626D01*
X143835Y030628D01*
X143826Y030628D01*
X143818Y030629D01*
X143813D01*
X143806Y030628D01*
X143799Y030627D01*
X14379Y030625D01*
X143781Y030623D01*
X143772Y030619D01*
X143762Y030614D01*
X143761Y030614D01*
X143758Y030612D01*
X143754Y030609D01*
X143748Y030605D01*
X143743Y030599D01*
X143736Y030593D01*
X14373Y030586D01*
X143724Y030578D01*
X143666Y030586D01*
X143715Y03085D01*
X14397D01*
Y03079D01*
D02*
G37*
G36*
X14654Y030856D02*
X146547D01*
X146553Y030855D01*
X146568Y030855D01*
X146583Y030853D01*
X146598Y030851D01*
X146605Y03085D01*
X146611Y030848D01*
X146611D01*
X146613Y030848D01*
X146615Y030847D01*
X146618Y030846D01*
X146622Y030845D01*
X146626Y030844D01*
X146637Y03084D01*
X146649Y030835D01*
X146661Y030829D01*
X146674Y030821D01*
X146686Y030812D01*
X146686Y030811D01*
X146688Y03081D01*
X14669Y030808D01*
X146692Y030806D01*
X146696Y030802D01*
X1467Y030798D01*
X146704Y030794D01*
X146709Y030788D01*
X146714Y030782D01*
X146719Y030775D01*
X146724Y030768D01*
X146729Y03076D01*
X146738Y030743D01*
X146746Y030724D01*
Y030724D01*
X146747Y030722D01*
X146748Y030719D01*
X14675Y030715D01*
X146751Y03071D01*
X146753Y030704D01*
X146755Y030697D01*
X146757Y030689D01*
X146759Y03068D01*
X14676Y030671D01*
X146762Y030661D01*
X146764Y03065D01*
X146765Y030639D01*
X146766Y030628D01*
X146767Y030603D01*
Y030602D01*
Y0306D01*
Y030597D01*
Y030593D01*
X146766Y030588D01*
Y030582D01*
X146766Y030575D01*
X146765Y030568D01*
X146764Y030552D01*
X146761Y030534D01*
X146757Y030517D01*
X146753Y030499D01*
Y030498D01*
X146752Y030497D01*
X146751Y030494D01*
X146751Y030492D01*
X146749Y030488D01*
X146747Y030483D01*
X146744Y030473D01*
X146739Y030461D01*
X146732Y030448D01*
X146726Y030436D01*
X146718Y030424D01*
Y030424D01*
X146717Y030423D01*
X146716Y030422D01*
X146714Y030419D01*
X14671Y030414D01*
X146704Y030408D01*
X146697Y0304D01*
X14669Y030392D01*
X146681Y030385D01*
X146671Y030378D01*
X146671D01*
X14667Y030377D01*
X146667Y030375D01*
X146661Y030372D01*
X146654Y030368D01*
X146645Y030364D01*
X146635Y03036D01*
X146623Y030356D01*
X14661Y030352D01*
X146609D01*
X146608Y030352D01*
X146606D01*
X146604Y030351D01*
X1466Y030351D01*
X146596Y03035D01*
X146591Y030349D01*
X146586Y030348D01*
X146574Y030347D01*
X14656Y030345D01*
X146545Y030345D01*
X146528Y030344D01*
X146343D01*
Y030856D01*
X146534D01*
X14654Y030856D01*
D02*
G37*
G36*
X145268D02*
X145275D01*
X145282Y030855D01*
X145297Y030855D01*
X145312Y030853D01*
X145327Y030851D01*
X145333Y03085D01*
X145339Y030848D01*
X14534D01*
X145342Y030848D01*
X145344Y030847D01*
X145347Y030846D01*
X145351Y030845D01*
X145355Y030844D01*
X145365Y03084D01*
X145377Y030835D01*
X145389Y030829D01*
X145402Y030821D01*
X145414Y030812D01*
X145415Y030811D01*
X145416Y03081D01*
X145418Y030808D01*
X145421Y030806D01*
X145424Y030802D01*
X145428Y030798D01*
X145433Y030794D01*
X145437Y030788D01*
X145442Y030782D01*
X145447Y030775D01*
X145452Y030768D01*
X145457Y03076D01*
X145466Y030743D01*
X145475Y030724D01*
Y030724D01*
X145476Y030722D01*
X145476Y030719D01*
X145478Y030715D01*
X14548Y03071D01*
X145481Y030704D01*
X145483Y030697D01*
X145485Y030689D01*
X145487Y03068D01*
X145489Y030671D01*
X14549Y030661D01*
X145492Y03065D01*
X145494Y030639D01*
X145494Y030628D01*
X145495Y030603D01*
Y030602D01*
Y0306D01*
Y030597D01*
Y030593D01*
X145495Y030588D01*
Y030582D01*
X145494Y030575D01*
X145494Y030568D01*
X145492Y030552D01*
X145489Y030534D01*
X145486Y030517D01*
X145481Y030499D01*
Y030498D01*
X145481Y030497D01*
X14548Y030494D01*
X145479Y030492D01*
X145478Y030488D01*
X145476Y030483D01*
X145472Y030473D01*
X145467Y030461D01*
X145461Y030448D01*
X145454Y030436D01*
X145447Y030424D01*
Y030424D01*
X145445Y030423D01*
X145444Y030422D01*
X145443Y030419D01*
X145439Y030414D01*
X145433Y030408D01*
X145426Y0304D01*
X145418Y030392D01*
X145409Y030385D01*
X1454Y030378D01*
X145399D01*
X145399Y030377D01*
X145395Y030375D01*
X14539Y030372D01*
X145383Y030368D01*
X145374Y030364D01*
X145363Y03036D01*
X145351Y030356D01*
X145338Y030352D01*
X145338D01*
X145337Y030352D01*
X145335D01*
X145332Y030351D01*
X145329Y030351D01*
X145324Y03035D01*
X14532Y030349D01*
X145315Y030348D01*
X145303Y030347D01*
X145289Y030345D01*
X145273Y030345D01*
X145257Y030344D01*
X145072D01*
Y030856D01*
X145263D01*
X145268Y030856D01*
D02*
G37*
G36*
X144714Y030524D02*
X144784D01*
Y030467D01*
X144714D01*
Y030344D01*
X144652D01*
Y030467D01*
X144429D01*
Y030524D01*
X144663Y030856D01*
X144714D01*
Y030524D01*
D02*
G37*
G36*
X143493Y030344D02*
X14343D01*
Y030744D01*
X143429Y030743D01*
X143426Y03074D01*
X143421Y030736D01*
X143414Y030731D01*
X143406Y030724D01*
X143395Y030717D01*
X143384Y030709D01*
X14337Y030701D01*
X14337D01*
X143369Y0307D01*
X143367Y030699D01*
X143364Y030697D01*
X143361Y030695D01*
X143357Y030694D01*
X143348Y030689D01*
X143338Y030684D01*
X143327Y030678D01*
X143315Y030673D01*
X143304Y030669D01*
Y030729D01*
X143305Y03073D01*
X143306Y03073D01*
X143309Y030732D01*
X143313Y030734D01*
X143318Y030736D01*
X143323Y030739D01*
X143329Y030742D01*
X143335Y030746D01*
X14335Y030755D01*
X143365Y030765D01*
X143381Y030776D01*
X143396Y030789D01*
X143397Y03079D01*
X143398Y030791D01*
X1434Y030792D01*
X143403Y030795D01*
X143406Y030799D01*
X14341Y030802D01*
X143418Y030811D01*
X143427Y030821D01*
X143437Y030833D01*
X143445Y030845D01*
X143452Y030858D01*
X143493D01*
Y030344D01*
D02*
G37*
G36*
X143026Y030856D02*
X143039Y030855D01*
X143052Y030854D01*
X143064Y030853D01*
X14307Y030852D01*
X143075Y030851D01*
X143076D01*
X143077Y030851D01*
X143079D01*
X143081Y03085D01*
X143084Y030849D01*
X143088Y030848D01*
X143097Y030846D01*
X143107Y030842D01*
X143118Y030838D01*
X143128Y030833D01*
X143138Y030827D01*
X143139D01*
X143139Y030826D01*
X143143Y030823D01*
X143147Y03082D01*
X143153Y030814D01*
X143159Y030807D01*
X143167Y030799D01*
X143173Y030789D01*
X143179Y030777D01*
Y030777D01*
X14318Y030776D01*
X143181Y030774D01*
X143182Y030772D01*
X143183Y030769D01*
X143184Y030765D01*
X143188Y030757D01*
X14319Y030746D01*
X143193Y030735D01*
X143195Y030721D01*
X143195Y030707D01*
Y030707D01*
Y030705D01*
Y030701D01*
X143195Y030696D01*
X143194Y030691D01*
X143193Y030685D01*
X143192Y030678D01*
X14319Y030669D01*
X143188Y030661D01*
X143185Y030652D01*
X143182Y030643D01*
X143178Y030634D01*
X143173Y030624D01*
X143168Y030615D01*
X143161Y030606D01*
X143154Y030597D01*
X143153Y030596D01*
X143152Y030595D01*
X143149Y030593D01*
X143145Y03059D01*
X143141Y030586D01*
X143135Y030583D01*
X143128Y030579D01*
X143119Y030575D01*
X143109Y03057D01*
X143099Y030567D01*
X143086Y030563D01*
X143073Y030559D01*
X143057Y030557D01*
X143041Y030554D01*
X143023Y030553D01*
X143003Y030552D01*
X142872D01*
Y030344D01*
X142804D01*
Y030856D01*
X143015D01*
X143026Y030856D01*
D02*
G37*
G36*
X144229Y030857D02*
X144235Y030857D01*
X144242Y030856D01*
X144249Y030855D01*
X144257Y030853D01*
X144265Y030851D01*
X144274Y030848D01*
X144283Y030845D01*
X144292Y030841D01*
X144302Y030837D01*
X14431Y030831D01*
X144319Y030826D01*
X144327Y030818D01*
X144327Y030818D01*
X144328Y030817D01*
X14433Y030815D01*
X144333Y030812D01*
X144336Y030808D01*
X144339Y030803D01*
X144343Y030798D01*
X144347Y030792D01*
X144351Y030786D01*
X144355Y030779D01*
X144358Y030771D01*
X144361Y030762D01*
X144364Y030754D01*
X144366Y030744D01*
X144367Y030734D01*
X144368Y030724D01*
Y030724D01*
Y030722D01*
Y030721D01*
Y030718D01*
X144367Y030715D01*
X144366Y030711D01*
X144365Y030703D01*
X144363Y030694D01*
X14436Y030683D01*
X144355Y030673D01*
X144349Y030662D01*
Y030661D01*
X144348Y030661D01*
X144345Y030658D01*
X144341Y030653D01*
X144335Y030647D01*
X144327Y030641D01*
X144317Y030634D01*
X144305Y030628D01*
X144292Y030621D01*
X144293D01*
X144294Y030621D01*
X144297Y03062D01*
X1443Y030619D01*
X144304Y030617D01*
X144308Y030615D01*
X144319Y030609D01*
X14433Y030603D01*
X144342Y030594D01*
X144354Y030584D01*
X144364Y030572D01*
X144364Y030571D01*
X144365Y03057D01*
X144366Y030568D01*
X144368Y030565D01*
X144369Y030562D01*
X144371Y030558D01*
X144374Y030554D01*
X144376Y030549D01*
X144381Y030537D01*
X144385Y030523D01*
X144388Y030508D01*
X144389Y030499D01*
Y03049D01*
Y03049D01*
Y030488D01*
X144388Y030484D01*
Y030479D01*
X144387Y030474D01*
X144386Y030467D01*
X144385Y03046D01*
X144383Y030452D01*
X14438Y030443D01*
X144378Y030434D01*
X144374Y030426D01*
X144369Y030416D01*
X144364Y030407D01*
X144358Y030398D01*
X14435Y030388D01*
X144342Y03038D01*
X144342Y030379D01*
X14434Y030378D01*
X144337Y030376D01*
X144334Y030373D01*
X144329Y030369D01*
X144323Y030366D01*
X144317Y030362D01*
X144309Y030358D01*
X144301Y030354D01*
X144292Y03035D01*
X144282Y030346D01*
X144271Y030343D01*
X144259Y03034D01*
X144247Y030337D01*
X144234Y030336D01*
X14422Y030336D01*
X144217D01*
X144213Y030336D01*
X144207D01*
X144201Y030337D01*
X144193Y030338D01*
X144185Y03034D01*
X144176Y030341D01*
X144167Y030343D01*
X144157Y030347D01*
X144147Y03035D01*
X144136Y030354D01*
X144126Y030359D01*
X144116Y030366D01*
X144106Y030372D01*
X144097Y03038D01*
X144097Y030381D01*
X144095Y030382D01*
X144093Y030384D01*
X14409Y030388D01*
X144087Y030393D01*
X144083Y030398D01*
X144078Y030404D01*
X144075Y030411D01*
X14407Y030419D01*
X144066Y030427D01*
X144062Y030437D01*
X144058Y030446D01*
X144056Y030457D01*
X144053Y030468D01*
X144052Y03048D01*
X144051Y030492D01*
Y030493D01*
Y030494D01*
Y030497D01*
X144052Y0305D01*
Y030505D01*
X144052Y03051D01*
X144053Y030515D01*
X144055Y030522D01*
X144057Y030534D01*
X144062Y030548D01*
X144068Y030562D01*
X144072Y030569D01*
X144076Y030575D01*
X144077Y030576D01*
X144077Y030577D01*
X144079Y030579D01*
X144081Y030581D01*
X144083Y030584D01*
X144087Y030586D01*
X144091Y03059D01*
X144095Y030594D01*
X144105Y030601D01*
X144117Y030609D01*
X144132Y030616D01*
X144148Y030621D01*
X144148D01*
X144147Y030622D01*
X144144Y030623D01*
X144142Y030624D01*
X144139Y030625D01*
X144135Y030628D01*
X144127Y030632D01*
X144117Y030638D01*
X144108Y030645D01*
X144098Y030653D01*
X144091Y030662D01*
Y030663D01*
X14409Y030663D01*
X144089Y030665D01*
X144088Y030667D01*
X144085Y030673D01*
X144081Y03068D01*
X144078Y030689D01*
X144075Y0307D01*
X144072Y030712D01*
X144072Y030726D01*
Y030726D01*
Y030728D01*
X144072Y030731D01*
Y030735D01*
X144073Y03074D01*
X144074Y030745D01*
X144075Y030751D01*
X144077Y030759D01*
X144079Y030766D01*
X144082Y030773D01*
X144085Y030781D01*
X144088Y030789D01*
X144093Y030797D01*
X144098Y030805D01*
X144105Y030812D01*
X144112Y03082D01*
X144112Y03082D01*
X144113Y030821D01*
X144116Y030823D01*
X144119Y030826D01*
X144123Y030828D01*
X144128Y030832D01*
X144133Y030835D01*
X14414Y030839D01*
X144147Y030842D01*
X144156Y030846D01*
X144164Y030849D01*
X144173Y030852D01*
X144184Y030855D01*
X144194Y030856D01*
X144206Y030857D01*
X144218Y030858D01*
X144225D01*
X144229Y030857D01*
D02*
G37*
G36*
X142356Y032554D02*
X142163D01*
Y032617D01*
X142356D01*
Y032554D01*
D02*
G37*
G36*
X143035Y0324D02*
X142965D01*
X142697Y032802D01*
Y0324D01*
X142632D01*
Y032912D01*
X142701D01*
X14297Y03251D01*
Y032912D01*
X143035D01*
Y0324D01*
D02*
G37*
G36*
X142513D02*
X142445D01*
Y032912D01*
X142513D01*
Y0324D01*
D02*
G37*
G36*
X143035Y02815D02*
X142965D01*
X142696Y028552D01*
Y02815D01*
X142631D01*
Y028662D01*
X1427D01*
X14297Y02826D01*
Y028662D01*
X143035D01*
Y02815D01*
D02*
G37*
G36*
X142199Y028432D02*
X142338D01*
Y028373D01*
X142199D01*
Y028233D01*
X142139D01*
Y028373D01*
X142D01*
Y028432D01*
X142139D01*
Y028571D01*
X142199D01*
Y028432D01*
D02*
G37*
G36*
X142512Y02815D02*
X142445D01*
Y028662D01*
X142512D01*
Y02815D01*
D02*
G37*
G36*
X146099Y028441D02*
X146238D01*
Y028382D01*
X146099D01*
Y028242D01*
X146039D01*
Y028382D01*
X1459D01*
Y028441D01*
X146039D01*
Y02858D01*
X146099D01*
Y028441D01*
D02*
G37*
G36*
X147294Y028375D02*
Y028374D01*
Y028372D01*
Y028368D01*
Y028363D01*
X147293Y028356D01*
X147292Y028349D01*
X147292Y02834D01*
X147291Y028331D01*
X147289Y028312D01*
X147286Y028291D01*
X147282Y028271D01*
X147279Y028262D01*
X147276Y028253D01*
Y028252D01*
X147275Y02825D01*
X147274Y028248D01*
X147273Y028245D01*
X14727Y028241D01*
X147268Y028237D01*
X147261Y028227D01*
X147258Y02822D01*
X147253Y028215D01*
X147248Y028208D01*
X147242Y028202D01*
X147235Y028196D01*
X147229Y02819D01*
X147221Y028184D01*
X147213Y028179D01*
X147212Y028178D01*
X14721Y028178D01*
X147208Y028176D01*
X147204Y028174D01*
X1472Y028172D01*
X147194Y02817D01*
X147188Y028167D01*
X14718Y028165D01*
X147173Y028162D01*
X147164Y028159D01*
X147154Y028157D01*
X147143Y028155D01*
X147132Y028153D01*
X147119Y028152D01*
X147107Y028151D01*
X147093Y028151D01*
X147086D01*
X147081Y028151D01*
X147075D01*
X147068Y028152D01*
X14706Y028153D01*
X147052Y028154D01*
X147033Y028157D01*
X147013Y028161D01*
X146993Y028167D01*
X146984Y028171D01*
X146975Y028175D01*
X146974Y028176D01*
X146973Y028176D01*
X146971Y028178D01*
X146968Y028179D01*
X146964Y028182D01*
X146959Y028186D01*
X146955Y028189D01*
X14695Y028193D01*
X146939Y028203D01*
X146928Y028215D01*
X146918Y02823D01*
X146914Y028238D01*
X14691Y028247D01*
Y028247D01*
X14691Y028249D01*
X146908Y028252D01*
X146907Y028255D01*
X146906Y02826D01*
X146904Y028266D01*
X146902Y028273D01*
X146901Y02828D01*
X146898Y028289D01*
X146897Y028299D01*
X146895Y028309D01*
X146894Y028321D01*
X146892Y028333D01*
X146892Y028346D01*
X146891Y02836D01*
Y028375D01*
Y028671D01*
X146958D01*
Y028375D01*
Y028375D01*
Y028373D01*
Y028369D01*
Y028364D01*
X146959Y028359D01*
Y028353D01*
X146959Y028345D01*
X14696Y028338D01*
X146961Y028322D01*
X146963Y028306D01*
X146967Y02829D01*
X146968Y028283D01*
X146971Y028277D01*
Y028277D01*
X146971Y028276D01*
X146972Y028274D01*
X146973Y028272D01*
X146976Y028266D01*
X146981Y028259D01*
X146986Y028251D01*
X146993Y028243D01*
X147002Y028235D01*
X147013Y028228D01*
X147013D01*
X147014Y028228D01*
X147016Y028227D01*
X147018Y028225D01*
X147021Y028224D01*
X147025Y028223D01*
X147029Y028222D01*
X147033Y02822D01*
X147044Y028217D01*
X147057Y028214D01*
X147072Y028212D01*
X147087Y028212D01*
X147094D01*
X147099Y028212D01*
X147105Y028213D01*
X147113Y028213D01*
X14712Y028214D01*
X147129Y028216D01*
X147146Y02822D01*
X147155Y028223D01*
X147164Y028226D01*
X147172Y02823D01*
X14718Y028234D01*
X147187Y028239D01*
X147194Y028245D01*
X147194Y028246D01*
X147195Y028247D01*
X147196Y028249D01*
X147199Y028252D01*
X147201Y028256D01*
X147204Y028261D01*
X147207Y028267D01*
X14721Y028274D01*
X147213Y028283D01*
X147216Y028292D01*
X147219Y028303D01*
X147221Y028314D01*
X147223Y028328D01*
X147225Y028342D01*
X147225Y028358D01*
X147226Y028375D01*
Y028671D01*
X147294D01*
Y028375D01*
D02*
G37*
G36*
X147773Y028611D02*
X147604D01*
Y028159D01*
X147537D01*
Y028611D01*
X147368D01*
Y028671D01*
X147773D01*
Y028611D01*
D02*
G37*
G36*
X146569Y028679D02*
X146576Y028679D01*
X146583Y028678D01*
X146591Y028677D01*
X1466Y028676D01*
X14661Y028674D01*
X14662Y028672D01*
X14663Y028669D01*
X146641Y028666D01*
X146653Y028662D01*
X146664Y028657D01*
X146674Y028652D01*
X146685Y028646D01*
X146686Y028646D01*
X146688Y028644D01*
X146691Y028643D01*
X146695Y02864D01*
X1467Y028637D01*
X146705Y028632D01*
X146711Y028627D01*
X146718Y028622D01*
X146725Y028615D01*
X146732Y028608D01*
X146739Y0286D01*
X146746Y028592D01*
X146753Y028583D01*
X14676Y028573D01*
X146766Y028562D01*
X146772Y028551D01*
X146773Y028551D01*
X146774Y028548D01*
X146775Y028545D01*
X146777Y028541D01*
X14678Y028535D01*
X146782Y028528D01*
X146785Y02852D01*
X146787Y028511D01*
X14679Y028502D01*
X146793Y028491D01*
X146796Y02848D01*
X146798Y028468D01*
X1468Y028455D01*
X146801Y028442D01*
X146802Y028429D01*
X146802Y028414D01*
Y028413D01*
Y028411D01*
Y028406D01*
X146802Y028401D01*
X146801Y028394D01*
X146801Y028386D01*
X1468Y028378D01*
X146799Y028368D01*
X146797Y028357D01*
X146795Y028346D01*
X146792Y028334D01*
X146789Y028323D01*
X146785Y02831D01*
X146781Y028299D01*
X146776Y028287D01*
X146771Y028275D01*
X14677Y028274D01*
X146769Y028272D01*
X146767Y028269D01*
X146765Y028265D01*
X146762Y02826D01*
X146758Y028254D01*
X146753Y028247D01*
X146748Y02824D01*
X146742Y028233D01*
X146735Y028225D01*
X146728Y028217D01*
X14672Y028209D01*
X146711Y028202D01*
X146702Y028195D01*
X146692Y028188D01*
X146681Y028182D01*
X146681Y028181D01*
X146679Y028181D01*
X146676Y028179D01*
X146671Y028177D01*
X146666Y028174D01*
X14666Y028172D01*
X146653Y028169D01*
X146644Y028166D01*
X146635Y028163D01*
X146626Y028161D01*
X146615Y028158D01*
X146605Y028156D01*
X146582Y028152D01*
X146569Y028151D01*
X146557Y028151D01*
X14655D01*
X146545Y028151D01*
X146539Y028152D01*
X146531Y028152D01*
X146523Y028153D01*
X146514Y028155D01*
X146504Y028157D01*
X146494Y028159D01*
X146483Y028162D01*
X146472Y028165D01*
X146461Y028169D01*
X14645Y028174D01*
X146439Y028179D01*
X146428Y028185D01*
X146427Y028186D01*
X146426Y028187D01*
X146422Y028189D01*
X146418Y028192D01*
X146414Y028195D01*
X146408Y028199D01*
X146402Y028204D01*
X146396Y02821D01*
X146388Y028217D01*
X146382Y028224D01*
X146375Y028232D01*
X146367Y02824D01*
X14636Y028249D01*
X146353Y028259D01*
X146347Y028269D01*
X146341Y02828D01*
X146341Y028281D01*
X14634Y028283D01*
X146338Y028287D01*
X146337Y028291D01*
X146335Y028297D01*
X146332Y028303D01*
X14633Y02831D01*
X146327Y028319D01*
X146324Y028328D01*
X146321Y028338D01*
X146319Y028349D01*
X146317Y02836D01*
X146313Y028383D01*
X146313Y028396D01*
X146312Y028408D01*
Y028409D01*
Y02841D01*
Y028411D01*
Y028414D01*
X146313Y028417D01*
Y02842D01*
X146313Y028429D01*
X146315Y02844D01*
X146316Y028452D01*
X146318Y028466D01*
X146321Y028481D01*
X146325Y028497D01*
X146329Y028513D01*
X146335Y02853D01*
X146341Y028546D01*
X146349Y028563D01*
X146358Y028578D01*
X146368Y028594D01*
X146381Y028608D01*
X146381Y028608D01*
X146384Y028611D01*
X146388Y028615D01*
X146393Y028619D01*
X1464Y028625D01*
X146408Y028631D01*
X146417Y028637D01*
X146428Y028644D01*
X146441Y028651D01*
X146454Y028657D01*
X146468Y028663D01*
X146484Y028669D01*
X146501Y028673D01*
X146519Y028677D01*
X146538Y028679D01*
X146558Y02868D01*
X146564D01*
X146569Y028679D01*
D02*
G37*
G36*
X146094Y032563D02*
X1459D01*
Y032626D01*
X146094D01*
Y032563D01*
D02*
G37*
G36*
X147132Y032625D02*
Y032624D01*
Y032622D01*
Y032618D01*
Y032613D01*
X147131Y032606D01*
X14713Y032599D01*
X14713Y03259D01*
X147129Y032581D01*
X147127Y032562D01*
X147124Y032541D01*
X14712Y032521D01*
X147117Y032512D01*
X147114Y032503D01*
Y032502D01*
X147113Y0325D01*
X147112Y032498D01*
X14711Y032495D01*
X147108Y032491D01*
X147106Y032487D01*
X147099Y032477D01*
X147095Y03247D01*
X147091Y032465D01*
X147085Y032458D01*
X14708Y032452D01*
X147073Y032446D01*
X147067Y03244D01*
X147059Y032434D01*
X147051Y032429D01*
X14705Y032428D01*
X147048Y032428D01*
X147046Y032426D01*
X147042Y032424D01*
X147038Y032422D01*
X147032Y03242D01*
X147026Y032417D01*
X147018Y032415D01*
X147011Y032412D01*
X147002Y032409D01*
X146992Y032407D01*
X146981Y032405D01*
X146969Y032403D01*
X146957Y032402D01*
X146945Y032401D01*
X146931Y032401D01*
X146924D01*
X146919Y032401D01*
X146913D01*
X146906Y032402D01*
X146898Y032403D01*
X14689Y032404D01*
X146871Y032407D01*
X146851Y032411D01*
X146831Y032417D01*
X146822Y032421D01*
X146813Y032425D01*
X146812Y032426D01*
X146811Y032426D01*
X146809Y032428D01*
X146806Y032429D01*
X146802Y032432D01*
X146797Y032436D01*
X146793Y032439D01*
X146788Y032443D01*
X146777Y032453D01*
X146766Y032465D01*
X146756Y03248D01*
X146752Y032488D01*
X146748Y032497D01*
Y032497D01*
X146747Y032499D01*
X146746Y032502D01*
X146745Y032505D01*
X146744Y03251D01*
X146742Y032516D01*
X14674Y032523D01*
X146739Y03253D01*
X146736Y032539D01*
X146735Y032549D01*
X146733Y032559D01*
X146732Y032571D01*
X14673Y032583D01*
X14673Y032596D01*
X146729Y03261D01*
Y032625D01*
Y032921D01*
X146796D01*
Y032625D01*
Y032625D01*
Y032623D01*
Y032619D01*
Y032614D01*
X146797Y032609D01*
Y032603D01*
X146797Y032595D01*
X146798Y032588D01*
X146799Y032572D01*
X146801Y032556D01*
X146805Y03254D01*
X146806Y032533D01*
X146809Y032527D01*
Y032527D01*
X146809Y032526D01*
X14681Y032524D01*
X146811Y032522D01*
X146814Y032516D01*
X146819Y032509D01*
X146824Y032501D01*
X146831Y032493D01*
X14684Y032485D01*
X146851Y032478D01*
X146851D01*
X146852Y032478D01*
X146854Y032477D01*
X146856Y032475D01*
X146859Y032474D01*
X146863Y032473D01*
X146867Y032472D01*
X146871Y03247D01*
X146882Y032467D01*
X146895Y032464D01*
X14691Y032462D01*
X146925Y032462D01*
X146932D01*
X146937Y032462D01*
X146943Y032463D01*
X146951Y032463D01*
X146958Y032464D01*
X146967Y032466D01*
X146984Y03247D01*
X146993Y032473D01*
X147002Y032476D01*
X14701Y03248D01*
X147018Y032484D01*
X147025Y032489D01*
X147032Y032495D01*
X147032Y032496D01*
X147033Y032497D01*
X147034Y032499D01*
X147037Y032502D01*
X147039Y032506D01*
X147042Y032511D01*
X147045Y032517D01*
X147048Y032524D01*
X147051Y032533D01*
X147054Y032542D01*
X147057Y032553D01*
X147059Y032564D01*
X147061Y032578D01*
X147063Y032592D01*
X147063Y032608D01*
X147064Y032625D01*
Y032921D01*
X147132D01*
Y032625D01*
D02*
G37*
G36*
X147611Y032861D02*
X147442D01*
Y032409D01*
X147375D01*
Y032861D01*
X147206D01*
Y032921D01*
X147611D01*
Y032861D01*
D02*
G37*
G36*
X146407Y032929D02*
X146414Y032929D01*
X146421Y032928D01*
X146429Y032927D01*
X146438Y032926D01*
X146448Y032924D01*
X146458Y032922D01*
X146468Y032919D01*
X146479Y032916D01*
X146491Y032912D01*
X146502Y032907D01*
X146512Y032902D01*
X146523Y032896D01*
X146524Y032896D01*
X146526Y032894D01*
X146529Y032893D01*
X146533Y03289D01*
X146538Y032887D01*
X146543Y032882D01*
X146549Y032877D01*
X146555Y032872D01*
X146563Y032865D01*
X14657Y032858D01*
X146577Y03285D01*
X146584Y032842D01*
X146591Y032833D01*
X146598Y032823D01*
X146604Y032812D01*
X14661Y032801D01*
X146611Y032801D01*
X146612Y032798D01*
X146613Y032795D01*
X146615Y032791D01*
X146618Y032785D01*
X14662Y032778D01*
X146623Y03277D01*
X146625Y032761D01*
X146628Y032752D01*
X146631Y032741D01*
X146634Y03273D01*
X146636Y032718D01*
X146638Y032705D01*
X146639Y032692D01*
X14664Y032679D01*
X14664Y032664D01*
Y032663D01*
Y032661D01*
Y032656D01*
X14664Y032651D01*
X146639Y032644D01*
X146639Y032636D01*
X146638Y032628D01*
X146636Y032618D01*
X146635Y032607D01*
X146633Y032596D01*
X14663Y032584D01*
X146627Y032573D01*
X146623Y03256D01*
X146619Y032549D01*
X146614Y032537D01*
X146609Y032525D01*
X146608Y032524D01*
X146607Y032522D01*
X146605Y032519D01*
X146603Y032515D01*
X1466Y03251D01*
X146596Y032504D01*
X146591Y032497D01*
X146586Y03249D01*
X14658Y032483D01*
X146573Y032475D01*
X146565Y032467D01*
X146558Y032459D01*
X146549Y032452D01*
X14654Y032445D01*
X14653Y032438D01*
X146519Y032432D01*
X146519Y032431D01*
X146517Y032431D01*
X146514Y032429D01*
X146509Y032427D01*
X146504Y032424D01*
X146498Y032422D01*
X146491Y032419D01*
X146482Y032416D01*
X146473Y032413D01*
X146464Y032411D01*
X146453Y032408D01*
X146443Y032406D01*
X146419Y032402D01*
X146407Y032401D01*
X146395Y032401D01*
X146388D01*
X146383Y032401D01*
X146377Y032402D01*
X146369Y032402D01*
X146361Y032403D01*
X146352Y032405D01*
X146342Y032407D01*
X146332Y032409D01*
X146321Y032412D01*
X14631Y032415D01*
X146299Y032419D01*
X146288Y032424D01*
X146277Y032429D01*
X146266Y032435D01*
X146265Y032436D01*
X146264Y032437D01*
X14626Y032439D01*
X146256Y032442D01*
X146252Y032445D01*
X146246Y032449D01*
X14624Y032454D01*
X146234Y03246D01*
X146226Y032467D01*
X14622Y032474D01*
X146212Y032482D01*
X146205Y03249D01*
X146198Y032499D01*
X146191Y032509D01*
X146185Y032519D01*
X146179Y03253D01*
X146179Y032531D01*
X146178Y032533D01*
X146176Y032537D01*
X146175Y032541D01*
X146173Y032547D01*
X14617Y032553D01*
X146168Y03256D01*
X146165Y032569D01*
X146162Y032578D01*
X146159Y032588D01*
X146157Y032599D01*
X146155Y03261D01*
X146151Y032633D01*
X146151Y032646D01*
X14615Y032658D01*
Y032659D01*
Y03266D01*
Y032661D01*
Y032664D01*
X146151Y032667D01*
Y03267D01*
X146151Y032679D01*
X146153Y03269D01*
X146154Y032702D01*
X146156Y032716D01*
X146159Y032731D01*
X146163Y032747D01*
X146167Y032763D01*
X146173Y03278D01*
X146179Y032796D01*
X146187Y032813D01*
X146196Y032828D01*
X146206Y032844D01*
X146219Y032858D01*
X146219Y032858D01*
X146222Y032861D01*
X146226Y032865D01*
X146231Y032869D01*
X146238Y032875D01*
X146246Y032881D01*
X146255Y032887D01*
X146266Y032894D01*
X146279Y032901D01*
X146292Y032907D01*
X146306Y032913D01*
X146322Y032919D01*
X146339Y032923D01*
X146357Y032927D01*
X146376Y032929D01*
X146396Y03293D01*
X146402D01*
X146407Y032929D01*
D02*
G37*
%LPC*%
G36*
X146529Y030796D02*
X146411D01*
Y030404D01*
X146529D01*
X146533Y030405D01*
X146538D01*
X146549Y030406D01*
X146562Y030407D01*
X146575Y030408D01*
X146588Y030411D01*
X1466Y030413D01*
X1466D01*
X146601Y030414D01*
X146603Y030414D01*
X146605Y030415D01*
X14661Y030417D01*
X146616Y03042D01*
X146624Y030424D01*
X146631Y030428D01*
X146639Y030434D01*
X146646Y03044D01*
X146646Y030441D01*
X146647Y030441D01*
X14665Y030444D01*
X146654Y03045D01*
X14666Y030457D01*
X146665Y030467D01*
X146671Y030478D01*
X146678Y03049D01*
X146683Y030505D01*
Y030505D01*
X146684Y030507D01*
X146684Y030509D01*
X146685Y030512D01*
X146686Y030516D01*
X146688Y030521D01*
X146689Y030527D01*
X14669Y030533D01*
X146691Y030539D01*
X146692Y030547D01*
X146694Y030555D01*
X146695Y030564D01*
X146696Y030583D01*
X146697Y030604D01*
Y030605D01*
Y030607D01*
Y030611D01*
X146696Y030617D01*
Y030624D01*
X146696Y030631D01*
X146695Y03064D01*
X146694Y030649D01*
X14669Y030669D01*
X146686Y03069D01*
X146679Y030709D01*
X146675Y030719D01*
X14667Y030727D01*
X14667Y030727D01*
X146669Y030729D01*
X146668Y030731D01*
X146665Y030734D01*
X146663Y030737D01*
X14666Y030741D01*
X146653Y03075D01*
X146643Y03076D01*
X146632Y03077D01*
X14662Y030779D01*
X146613Y030782D01*
X146606Y030785D01*
X146605D01*
X146605Y030786D01*
X146603Y030786D01*
X146601Y030787D01*
X146598Y030787D01*
X146594Y030789D01*
X14659Y03079D01*
X146585Y030791D01*
X146579Y030791D01*
X146573Y030792D01*
X146565Y030794D01*
X146558Y030794D01*
X146549Y030795D01*
X146539Y030795D01*
X146529Y030796D01*
D02*
G37*
G36*
X145258D02*
X14514D01*
Y030404D01*
X145257D01*
X145262Y030405D01*
X145267D01*
X145278Y030406D01*
X145291Y030407D01*
X145304Y030408D01*
X145317Y030411D01*
X145328Y030413D01*
X145329D01*
X145329Y030414D01*
X145331Y030414D01*
X145333Y030415D01*
X145338Y030417D01*
X145345Y03042D01*
X145352Y030424D01*
X14536Y030428D01*
X145368Y030434D01*
X145374Y03044D01*
X145375Y030441D01*
X145375Y030441D01*
X145378Y030444D01*
X145383Y03045D01*
X145388Y030457D01*
X145394Y030467D01*
X1454Y030478D01*
X145406Y03049D01*
X145412Y030505D01*
Y030505D01*
X145412Y030507D01*
X145413Y030509D01*
X145414Y030512D01*
X145415Y030516D01*
X145416Y030521D01*
X145417Y030527D01*
X145419Y030533D01*
X14542Y030539D01*
X145421Y030547D01*
X145422Y030555D01*
X145423Y030564D01*
X145425Y030583D01*
X145425Y030604D01*
Y030605D01*
Y030607D01*
Y030611D01*
X145425Y030617D01*
Y030624D01*
X145424Y030631D01*
X145423Y03064D01*
X145422Y030649D01*
X145419Y030669D01*
X145414Y03069D01*
X145408Y030709D01*
X145403Y030719D01*
X145399Y030727D01*
X145398Y030727D01*
X145398Y030729D01*
X145396Y030731D01*
X145394Y030734D01*
X145392Y030737D01*
X145388Y030741D01*
X145381Y03075D01*
X145372Y03076D01*
X14536Y03077D01*
X145348Y030779D01*
X145342Y030782D01*
X145334Y030785D01*
X145334D01*
X145333Y030786D01*
X145332Y030786D01*
X145329Y030787D01*
X145326Y030787D01*
X145323Y030789D01*
X145318Y03079D01*
X145313Y030791D01*
X145308Y030791D01*
X145301Y030792D01*
X145294Y030794D01*
X145286Y030794D01*
X145277Y030795D01*
X145268Y030795D01*
X145258Y030796D01*
D02*
G37*
G36*
X144652Y030755D02*
X14449Y030524D01*
X144652D01*
Y030755D01*
D02*
G37*
G36*
X143019Y030796D02*
X142872D01*
Y030613D01*
X14301D01*
X143015Y030613D01*
X14302D01*
X143026Y030614D01*
X143033Y030615D01*
X143041Y030616D01*
X143056Y030619D01*
X143072Y030623D01*
X143079Y030626D01*
X143086Y030629D01*
X143092Y030633D01*
X143098Y030637D01*
X143098Y030638D01*
X143099Y030638D01*
X143101Y03064D01*
X143102Y030641D01*
X143107Y030647D01*
X143112Y030655D01*
X143117Y030665D01*
X143121Y030676D01*
X143124Y03069D01*
X143125Y030697D01*
X143126Y030706D01*
Y030706D01*
Y030707D01*
Y030709D01*
Y030711D01*
X143124Y030717D01*
X143123Y030725D01*
X143122Y030734D01*
X143118Y030742D01*
X143114Y030752D01*
X143109Y030761D01*
X143108Y030762D01*
X143106Y030765D01*
X143102Y030769D01*
X143098Y030773D01*
X143091Y030778D01*
X143084Y030783D01*
X143076Y030787D01*
X143066Y030791D01*
X143066D01*
X143063Y030791D01*
X143058Y030792D01*
X143052Y030794D01*
X143048D01*
X143043Y030794D01*
X143038Y030795D01*
X143032Y030795D01*
X143026D01*
X143019Y030796D01*
D02*
G37*
G36*
X144226Y030806D02*
X144216D01*
X144213Y030806D01*
X144211D01*
X144207Y030805D01*
X144198Y030803D01*
X144189Y030801D01*
X144179Y030796D01*
X144169Y030791D01*
X144159Y030783D01*
X144158Y030782D01*
X144156Y030779D01*
X144152Y030774D01*
X144148Y030767D01*
X144143Y03076D01*
X14414Y03075D01*
X144137Y03074D01*
X144136Y030728D01*
Y030727D01*
Y030726D01*
Y030725D01*
X144137Y030722D01*
Y030719D01*
X144137Y030715D01*
X144139Y030707D01*
X144142Y030697D01*
X144146Y030688D01*
X144151Y030678D01*
X144159Y030669D01*
X14416Y030668D01*
X144163Y030665D01*
X144168Y030661D01*
X144176Y030658D01*
X144184Y030653D01*
X144194Y030649D01*
X144207Y030647D01*
X14422Y030646D01*
X144223D01*
X144226Y030646D01*
X144229D01*
X144233Y030647D01*
X144241Y030649D01*
X14425Y030651D01*
X14426Y030655D01*
X14427Y030661D01*
X14428Y030669D01*
X144281Y03067D01*
X144284Y030673D01*
X144287Y030678D01*
X144292Y030684D01*
X144296Y030692D01*
X144299Y030702D01*
X144302Y030712D01*
X144303Y030724D01*
Y030725D01*
Y030726D01*
Y030727D01*
X144303Y03073D01*
X144302Y030736D01*
X1443Y030745D01*
X144298Y030754D01*
X144293Y030764D01*
X144287Y030773D01*
X144284Y030778D01*
X144279Y030782D01*
Y030783D01*
X144278Y030784D01*
X144275Y030786D01*
X14427Y03079D01*
X144263Y030795D01*
X144254Y030799D01*
X144244Y030802D01*
X144232Y030805D01*
X144226Y030806D01*
D02*
G37*
G36*
X144218Y030594D02*
X144214D01*
X144211Y030594D01*
X144207Y030593D01*
X144203Y030593D01*
X144192Y03059D01*
X144181Y030587D01*
X144168Y030582D01*
X144162Y030579D01*
X144156Y030575D01*
X14415Y03057D01*
X144144Y030565D01*
X144144Y030564D01*
X144143Y030564D01*
X144142Y030562D01*
X14414Y03056D01*
X144138Y030557D01*
X144136Y030553D01*
X144133Y030549D01*
X14413Y030545D01*
X144125Y030534D01*
X14412Y030522D01*
X144117Y030507D01*
X144116Y0305D01*
X144116Y030492D01*
Y030491D01*
Y03049D01*
Y030487D01*
X144116Y030482D01*
X144117Y030475D01*
X144118Y030467D01*
X144121Y030458D01*
X144124Y030449D01*
X144128Y030439D01*
X144128Y030438D01*
X14413Y030436D01*
X144133Y030431D01*
X144137Y030425D01*
X144143Y030419D01*
X144149Y030413D01*
X144157Y030406D01*
X144166Y030401D01*
X144166D01*
X144167Y0304D01*
X14417Y030398D01*
X144175Y030396D01*
X144182Y030394D01*
X14419Y030392D01*
X144199Y030389D01*
X144209Y030388D01*
X14422Y030387D01*
X144224D01*
X144228Y030388D01*
X144232Y030388D01*
X144236Y030389D01*
X144247Y030391D01*
X144258Y030394D01*
X144271Y030399D01*
X144277Y030403D01*
X144283Y030407D01*
X144289Y030411D01*
X144295Y030416D01*
X144295Y030417D01*
X144296Y030417D01*
X144298Y030419D01*
X144299Y030421D01*
X144302Y030424D01*
X144304Y030428D01*
X144307Y030432D01*
X14431Y030436D01*
X144315Y030447D01*
X14432Y030459D01*
X144323Y030473D01*
X144324Y030481D01*
X144324Y030489D01*
Y03049D01*
Y030492D01*
Y030494D01*
X144324Y030497D01*
X144323Y030501D01*
X144323Y030505D01*
X14432Y030516D01*
X144317Y030528D01*
X144312Y03054D01*
X144308Y030547D01*
X144304Y030553D01*
X144299Y030559D01*
X144294Y030564D01*
X144293Y030565D01*
X144293Y030565D01*
X144291Y030567D01*
X144288Y030569D01*
X144285Y030572D01*
X144282Y030574D01*
X144278Y030577D01*
X144273Y030579D01*
X144262Y030585D01*
X144249Y03059D01*
X144234Y030593D01*
X144227Y030594D01*
X144218Y030594D01*
D02*
G37*
G36*
X146567Y028622D02*
X146554D01*
X146551Y028621D01*
X146545D01*
X146539Y02862D01*
X146532Y028619D01*
X146524Y028617D01*
X146515Y028616D01*
X146506Y028613D01*
X146496Y02861D01*
X146486Y028606D01*
X146476Y028601D01*
X146465Y028595D01*
X146454Y028588D01*
X146444Y028581D01*
X146434Y028572D01*
X146433Y028571D01*
X146432Y02857D01*
X146429Y028566D01*
X146426Y028562D01*
X146422Y028557D01*
X146418Y02855D01*
X146413Y028542D01*
X146408Y028533D01*
X146403Y028522D01*
X146398Y02851D01*
X146395Y028496D01*
X146391Y028481D01*
X146387Y028465D01*
X146385Y028447D01*
X146383Y028428D01*
X146382Y028407D01*
Y028406D01*
Y028403D01*
X146383Y028398D01*
Y028391D01*
X146384Y028384D01*
X146385Y028375D01*
X146386Y028365D01*
X146388Y028354D01*
X146391Y028343D01*
X146395Y02833D01*
X146398Y028319D01*
X146403Y028307D01*
X146409Y028294D01*
X146416Y028283D01*
X146423Y028272D01*
X146432Y028261D01*
X146432Y02826D01*
X146434Y028259D01*
X146437Y028256D01*
X146441Y028253D01*
X146446Y028249D01*
X146452Y028244D01*
X146458Y028239D01*
X146466Y028235D01*
X146474Y02823D01*
X146484Y028225D01*
X146494Y02822D01*
X146505Y028217D01*
X146517Y028213D01*
X14653Y02821D01*
X146543Y028209D01*
X146557Y028208D01*
X14656D01*
X146564Y028209D01*
X146569Y028209D01*
X146576Y02821D01*
X146583Y028211D01*
X146592Y028213D01*
X146601Y028215D01*
X146611Y028218D01*
X146621Y028221D01*
X146631Y028225D01*
X146642Y028231D01*
X146653Y028237D01*
X146663Y028244D01*
X146673Y028252D01*
X146683Y028262D01*
X146683Y028262D01*
X146685Y028264D01*
X146687Y028267D01*
X14669Y028272D01*
X146694Y028277D01*
X146699Y028284D01*
X146703Y028292D01*
X146708Y028301D01*
X146712Y028311D01*
X146717Y028323D01*
X146721Y028335D01*
X146725Y028349D01*
X146728Y028364D01*
X14673Y028379D01*
X146732Y028396D01*
X146733Y028414D01*
Y028415D01*
Y028417D01*
Y02842D01*
X146732Y028425D01*
Y02843D01*
X146731Y028436D01*
X146731Y028444D01*
X14673Y028451D01*
X146728Y028469D01*
X146724Y028487D01*
X146718Y028505D01*
X146711Y028524D01*
Y028524D01*
X14671Y028526D01*
X146709Y028528D01*
X146707Y028531D01*
X146705Y028535D01*
X146702Y02854D01*
X146695Y02855D01*
X146686Y028562D01*
X146676Y028573D01*
X146664Y028585D01*
X146649Y028596D01*
X146649Y028596D01*
X146648Y028597D01*
X146645Y028598D01*
X146642Y0286D01*
X146638Y028602D01*
X146634Y028604D01*
X146629Y028606D01*
X146623Y028609D01*
X146616Y028611D01*
X146609Y028613D01*
X146594Y028618D01*
X146577Y028621D01*
X146567Y028622D01*
D02*
G37*
G36*
X146405Y032872D02*
X146392D01*
X146389Y032871D01*
X146383D01*
X146377Y03287D01*
X14637Y032869D01*
X146362Y032867D01*
X146353Y032866D01*
X146344Y032863D01*
X146334Y03286D01*
X146323Y032856D01*
X146313Y032851D01*
X146303Y032845D01*
X146292Y032838D01*
X146282Y032831D01*
X146272Y032822D01*
X146271Y032821D01*
X14627Y03282D01*
X146267Y032816D01*
X146264Y032812D01*
X14626Y032807D01*
X146256Y0328D01*
X146251Y032792D01*
X146246Y032783D01*
X146241Y032772D01*
X146236Y03276D01*
X146232Y032746D01*
X146229Y032731D01*
X146225Y032715D01*
X146222Y032697D01*
X146221Y032678D01*
X14622Y032657D01*
Y032656D01*
Y032653D01*
X146221Y032648D01*
Y032641D01*
X146222Y032634D01*
X146223Y032625D01*
X146224Y032615D01*
X146226Y032604D01*
X146229Y032593D01*
X146232Y03258D01*
X146236Y032569D01*
X146241Y032557D01*
X146247Y032544D01*
X146254Y032533D01*
X146261Y032522D01*
X14627Y032511D01*
X14627Y03251D01*
X146272Y032509D01*
X146275Y032506D01*
X146279Y032503D01*
X146284Y032499D01*
X14629Y032494D01*
X146296Y032489D01*
X146304Y032485D01*
X146312Y03248D01*
X146322Y032475D01*
X146332Y03247D01*
X146343Y032467D01*
X146355Y032463D01*
X146368Y03246D01*
X146381Y032459D01*
X146395Y032458D01*
X146398D01*
X146402Y032459D01*
X146407Y032459D01*
X146414Y03246D01*
X146421Y032461D01*
X14643Y032463D01*
X146439Y032465D01*
X146449Y032468D01*
X146459Y032471D01*
X146469Y032475D01*
X14648Y032481D01*
X146491Y032487D01*
X146501Y032494D01*
X146511Y032502D01*
X14652Y032512D01*
X146521Y032512D01*
X146523Y032514D01*
X146525Y032517D01*
X146528Y032522D01*
X146532Y032527D01*
X146537Y032534D01*
X146541Y032542D01*
X146545Y032551D01*
X14655Y032561D01*
X146555Y032573D01*
X146559Y032585D01*
X146563Y032599D01*
X146566Y032614D01*
X146568Y032629D01*
X14657Y032646D01*
X14657Y032664D01*
Y032665D01*
Y032667D01*
Y03267D01*
X14657Y032675D01*
Y03268D01*
X146569Y032686D01*
X146569Y032694D01*
X146568Y032701D01*
X146565Y032719D01*
X146562Y032737D01*
X146556Y032755D01*
X146549Y032774D01*
Y032774D01*
X146548Y032776D01*
X146547Y032778D01*
X146545Y032781D01*
X146543Y032785D01*
X14654Y03279D01*
X146533Y0328D01*
X146524Y032812D01*
X146514Y032823D01*
X146502Y032835D01*
X146487Y032846D01*
X146487Y032846D01*
X146486Y032847D01*
X146483Y032848D01*
X14648Y03285D01*
X146476Y032852D01*
X146472Y032854D01*
X146467Y032856D01*
X146461Y032859D01*
X146454Y032861D01*
X146447Y032863D01*
X146432Y032868D01*
X146414Y032871D01*
X146405Y032872D01*
D02*
G37*
%LPD*%
D10*
X146116Y03545D02*
G03*
X146116Y03545I-00125J0D01*
G01*
X15105Y04625D02*
G03*
X15025Y04625I-0004J0D01*
G01*
Y04425D02*
G03*
X15105Y04425I0004J0D01*
G01*
X1386Y03045D02*
G03*
X1386Y03045I-0017J0D01*
G01*
X13215Y0326D02*
G03*
X13215Y0326I-0017J0D01*
G01*
X1407Y03445D02*
G03*
X1415Y03445I0004J0D01*
G01*
Y03595D02*
G03*
X1407Y03595I-0004J0D01*
G01*
X13995Y0312D02*
G03*
X13915Y0312I-0004J0D01*
G01*
Y0297D02*
G03*
X13995Y0297I0004J0D01*
G01*
X1273Y03335D02*
G03*
X1265Y03335I-0004J0D01*
G01*
Y03185D02*
G03*
X1273Y03185I0004J0D01*
G01*
X1484Y045116D02*
G03*
X1484Y045116I-001J0D01*
G01*
X127287Y029063D02*
G03*
X127301Y029051I-000387J-000463D01*
G01*
X124964Y03012D02*
G03*
X124964Y03012I-000064J0D01*
G01*
X126984Y03013D02*
G03*
X126984Y03013I-000064J0D01*
G01*
X125288Y029062D02*
G03*
X125301Y029051I-000388J-000462D01*
G01*
X131937Y029063D02*
G03*
X131951Y029051I-000387J-000463D01*
G01*
X129614Y03012D02*
G03*
X129614Y03012I-000064J0D01*
G01*
X131634Y03013D02*
G03*
X131634Y03013I-000064J0D01*
G01*
X129938Y029062D02*
G03*
X129951Y029051I-000388J-000462D01*
G01*
X14385Y0355D02*
Y03555D01*
Y03535D02*
Y0354D01*
X14375Y03545D02*
X14395D01*
X14385Y0354D02*
Y0355D01*
X1333Y04905D02*
X13719D01*
Y04813D02*
Y04905D01*
X1333Y04813D02*
X13719D01*
X1333D02*
Y04905D01*
X15065Y04545D02*
Y04575D01*
Y0447D02*
Y045D01*
X15035Y04545D02*
X1509D01*
X15035Y045D02*
X1509D01*
X15105Y04425D02*
Y04625D01*
X15025Y04425D02*
Y04625D01*
X129391Y050561D02*
X135391D01*
X129391Y051151D02*
Y051731D01*
X135391D01*
Y050561D02*
Y051731D01*
X129391Y050561D02*
Y051151D01*
X14398Y04872D02*
Y04948D01*
X14583Y04872D02*
Y04948D01*
X14398Y04872D02*
X14583D01*
Y0491D02*
X14617D01*
X14398Y04948D02*
X14583D01*
X14363Y0491D02*
X14398D01*
X13963Y04872D02*
Y04948D01*
X14148Y04872D02*
Y04948D01*
X13963Y04872D02*
X14148D01*
Y0491D02*
X14182D01*
X13963Y04948D02*
X14148D01*
X13928Y0491D02*
X13963D01*
X13615Y02745D02*
Y02795D01*
X13415Y02745D02*
X13615D01*
X13415D02*
Y02845D01*
X13615D01*
Y02795D02*
Y02845D01*
X13385Y02795D02*
X13415D01*
X13615D02*
X13645D01*
X13574Y02748D02*
Y02845D01*
X13615Y02774D02*
Y02795D01*
Y02811D01*
X1411Y03535D02*
Y03555D01*
Y03495D02*
Y03515D01*
X14085D02*
X14135D01*
X14085Y03535D02*
X14135D01*
X1407Y03445D02*
Y03595D01*
X1415Y03445D02*
Y03595D01*
X13955Y0301D02*
Y0303D01*
Y0305D02*
Y0307D01*
X1393Y0305D02*
X1398D01*
X1393Y0303D02*
X1398D01*
X13995Y0297D02*
Y0312D01*
X13915Y0297D02*
Y0312D01*
X1269Y03225D02*
Y03245D01*
Y03265D02*
Y03285D01*
X12665Y03265D02*
X12715D01*
X12665Y03245D02*
X12715D01*
X1273Y03185D02*
Y03335D01*
X1265Y03185D02*
Y03335D01*
X13398Y03443D02*
Y03473D01*
Y03443D02*
X13448D01*
Y03473D01*
X13797Y03442D02*
Y03472D01*
Y03442D02*
X13847D01*
Y03472D01*
X13272Y03235D02*
Y03375D01*
X13972Y03235D02*
Y03475D01*
X13272D02*
X13972D01*
X13272Y03375D02*
Y03475D01*
Y03235D02*
X13972D01*
X12619Y03488D02*
Y03581D01*
Y03488D02*
X1332D01*
Y03581D01*
X12619D02*
X1332D01*
X1467Y04465D02*
X1469D01*
X1468Y04455D02*
Y04475D01*
X1239Y0276D02*
X1279D01*
X1259Y02781D02*
Y02932D01*
X12384Y03015D02*
Y0304D01*
X1239Y0291D02*
Y0306D01*
X1279D01*
Y03042D02*
Y0306D01*
X12785Y03042D02*
X1279D01*
X12785Y03011D02*
Y03042D01*
Y03011D02*
X1279D01*
Y0276D02*
Y03011D01*
X1239Y0276D02*
Y0291D01*
X12392Y0296D02*
X12789D01*
X12855Y0276D02*
X13255D01*
X13055Y02781D02*
Y02932D01*
X12849Y03015D02*
Y0304D01*
X12855Y0291D02*
Y0306D01*
X13255D01*
Y03042D02*
Y0306D01*
X1325Y03042D02*
X13255D01*
X1325Y03011D02*
Y03042D01*
Y03011D02*
X13255D01*
Y0276D02*
Y03011D01*
X12855Y0276D02*
Y0291D01*
X12857Y0296D02*
X13254D01*
D11*
X14316Y047293D02*
G03*
X142734Y04772I-000427J0D01*
G01*
X124765Y047696D02*
G03*
X124265Y047196I0J-0005D01*
G01*
Y037052D02*
G03*
X124765Y036552I0005J0D01*
G01*
X142662D02*
G03*
X143162Y037052I0J0005D01*
G01*
X124265Y037052D02*
Y047196D01*
X124765Y047696D02*
X142734Y04772D01*
X14316Y047293D02*
X143162Y037052D01*
X124765Y036552D02*
X142662D01*
X1404Y0273D02*
Y0339D01*
Y0273D02*
X1491D01*
X1404Y0339D02*
X1491D01*
Y0273D02*
Y0339D01*
D12*
X125831Y04675D02*
G03*
X125831Y04675I-000591J0D01*
G01*
X142881Y04682D02*
G03*
X142881Y04682I-000591J0D01*
G01*
X125809Y037491D02*
G03*
X125809Y037491I-000591J0D01*
G01*
X142853Y03748D02*
G03*
X142853Y03748I-000591J0D01*
G01*
X1363Y0312D02*
G03*
X13675Y03075I00045J0D01*
G01*
X137D02*
G03*
X1375Y03115I00005J00045D01*
G01*
D02*
G03*
X1371Y03165I-00045J00005D01*
G01*
X13675D02*
G03*
X1363Y0312I0J-00045D01*
G01*
X1303Y0338D02*
G03*
X12985Y03335I0J-00045D01*
G01*
X13105Y0333D02*
G03*
X13065Y0338I-00045J00005D01*
G01*
X13055Y0329D02*
G03*
X13105Y0333I00005J00045D01*
G01*
X12985Y03335D02*
G03*
X1303Y0329I00045J0D01*
G01*
X1049Y0485D02*
G03*
X1044Y048I0J-0005D01*
G01*
Y03135D02*
G03*
X1049Y03085I0005J0D01*
G01*
X12255D02*
G03*
X12305Y03135I0J0005D01*
G01*
Y048D02*
G03*
X12255Y0485I-0005J0D01*
G01*
X1369Y0288D02*
Y02925D01*
X13665Y02903D02*
X13715D01*
X1366Y03075D02*
X1371D01*
X13675Y03165D02*
X1371D01*
X13665Y0307D02*
Y03075D01*
X13525Y0307D02*
X13855D01*
X1288Y03285D02*
X1321D01*
X1302D02*
Y0329D01*
X1303Y0338D02*
X13065D01*
X13015Y0329D02*
X13065D01*
X1302Y03118D02*
X1307D01*
X13045Y03095D02*
Y0314D01*
X1044Y03135D02*
Y048D01*
X1049Y03085D02*
X12255D01*
X12305Y03135D02*
Y048D01*
X1049Y0485D02*
X12255D01*
X160081Y041444D02*
X1589Y041838D01*
X160081Y041444D02*
X1589Y04105D01*
X159912Y041444D02*
X1589Y041107D01*
X159237Y041725D02*
Y041219D01*
X1589Y04195D02*
Y041613D01*
Y041275D02*
Y040938D01*
X160081Y040617D02*
X1589D01*
X160081Y040561D02*
X1589D01*
X160081Y039886D02*
X1589D01*
X160081Y03983D02*
X1589D01*
X160081Y040786D02*
Y040392D01*
Y040055D02*
Y039661D01*
X159519Y040561D02*
Y039886D01*
X1589Y040786D02*
Y040392D01*
Y040055D02*
Y039661D01*
X160081Y039352D02*
X1589D01*
X160081Y039296D02*
X1589D01*
X160081Y039521D02*
Y038959D01*
X160025Y03879D01*
X159912Y038677D01*
X1598Y038621D01*
X159631Y038565D01*
X15935D01*
X159181Y038621D01*
X159069Y038677D01*
X158956Y03879D01*
X1589Y038959D01*
Y039521D01*
X160081Y038959D02*
X160025Y038846D01*
X159912Y038734D01*
X1598Y038677D01*
X159631Y038621D01*
X15935D01*
X159181Y038677D01*
X159069Y038734D01*
X158956Y038846D01*
X1589Y038959D01*
X160081Y038239D02*
X1589D01*
X160081Y038183D02*
X1589D01*
X160081Y037508D02*
X1589D01*
X160081Y037452D02*
X1589D01*
X160081Y038407D02*
Y038014D01*
Y037676D02*
Y037283D01*
X159519Y038183D02*
Y037508D01*
X1589Y038407D02*
Y038014D01*
Y037676D02*
Y037283D01*
X11245Y0395D02*
Y0389D01*
X11285D01*
X11345D02*
X11305D01*
X11345Y0393D01*
Y0394D01*
X11335Y0395D01*
X11315D01*
X11305Y0394D01*
X11365Y039D02*
X11375Y0389D01*
X11395D01*
X114049Y039D01*
Y0394D01*
X11395Y0395D01*
X11375D01*
X11365Y0394D01*
Y0393D01*
X11375Y0392D01*
X114049D01*
X114249Y0394D02*
X114349Y0395D01*
X114549D01*
X114649Y0394D01*
Y0393D01*
X114549Y0392D01*
X114649Y0391D01*
Y039D01*
X114549Y0389D01*
X114349D01*
X114249Y039D01*
Y0391D01*
X114349Y0392D01*
X114249Y0393D01*
Y0394D01*
X114349Y0392D02*
X114549D01*
X12432Y04866D02*
Y04816D01*
X12442Y04806D01*
X12462D01*
X12472Y04816D01*
Y04866D01*
X12532Y04806D02*
X12492D01*
X12532Y04846D01*
Y04856D01*
X12522Y04866D01*
X12502D01*
X12492Y04856D01*
X14408Y03754D02*
X14398Y03764D01*
X14378D01*
X14368Y03754D01*
Y03714D01*
X14378Y03704D01*
X14398D01*
X14408Y03714D01*
X14428Y03754D02*
X14438Y03764D01*
X14458D01*
X14468Y03754D01*
Y03744D01*
X14458Y03734D01*
X14448D01*
X14458D01*
X14468Y03724D01*
Y03714D01*
X14458Y03704D01*
X14438D01*
X14428Y03714D01*
X14656Y04344D02*
Y04404D01*
X14676Y04384D01*
X14696Y04404D01*
Y04344D01*
X14716Y04404D02*
Y04354D01*
X14726Y04344D01*
X14746D01*
X14756Y04354D01*
Y04404D01*
X14776Y04344D02*
X14796D01*
X14786D01*
Y04404D01*
X14776Y04394D01*
X128141Y051701D02*
Y051201D01*
X128241Y051101D01*
X128441D01*
X128541Y051201D01*
Y051701D01*
X128741Y051601D02*
X128841Y051701D01*
X12904D01*
X12914Y051601D01*
Y051501D01*
X12904Y051401D01*
X128941D01*
X12904D01*
X12914Y051301D01*
Y051201D01*
X12904Y051101D01*
X128841D01*
X128741Y051201D01*
X13376Y05007D02*
X13356D01*
X13366D01*
Y04957D01*
X13356Y04947D01*
X13346D01*
X13336Y04957D01*
X13396Y04947D02*
Y05007D01*
X13426D01*
X13436Y04997D01*
Y04977D01*
X13426Y04967D01*
X13396D01*
X134959Y05007D02*
X13476Y04997D01*
X13456Y04977D01*
Y04957D01*
X13466Y04947D01*
X13486D01*
X134959Y04957D01*
Y04967D01*
X13486Y04977D01*
X13456D01*
X135159Y04947D02*
X135359D01*
X135259D01*
Y05007D01*
X135159Y04997D01*
X12922Y03514D02*
X12912Y03524D01*
X12892D01*
X12882Y03514D01*
Y03474D01*
X12892Y03464D01*
X12912D01*
X12922Y03474D01*
X12982Y03464D02*
X12942D01*
X12982Y03504D01*
Y03514D01*
X12972Y03524D01*
X12952D01*
X12942Y03514D01*
X14046Y03484D02*
Y03434D01*
X14056Y03424D01*
X14076D01*
X14086Y03434D01*
Y03484D01*
X14106Y03424D02*
X14126D01*
X14116D01*
Y03484D01*
X14106Y03474D01*
X1242Y03155D02*
X124D01*
X1239Y03145D01*
Y03105D01*
X124Y03095D01*
X1242D01*
X1243Y03105D01*
Y03145D01*
X1242Y03155D01*
X1245D02*
Y03105D01*
X1246Y03095D01*
X1248D01*
X1249Y03105D01*
Y03155D01*
X1251D02*
X125499D01*
X1253D01*
Y03095D01*
X12666Y03682D02*
X12646D01*
X12656D01*
Y03632D01*
X12646Y03622D01*
X12636D01*
X12626Y03632D01*
X12686Y03622D02*
Y03682D01*
X12716D01*
X12726Y03672D01*
Y03652D01*
X12716Y03642D01*
X12686D01*
X12746Y03622D02*
X12766D01*
X12756D01*
Y03682D01*
X12746Y03672D01*
X13278Y03554D02*
Y03614D01*
X13298Y03594D01*
X13318Y03614D01*
Y03554D01*
X13368Y03614D02*
X13348D01*
X13338Y03604D01*
Y03564D01*
X13348Y03554D01*
X13368D01*
X13378Y03564D01*
Y03604D01*
X13368Y03614D01*
X13398D02*
X134379D01*
X13418D01*
Y03554D01*
X134879Y03614D02*
X134679D01*
X134579Y03604D01*
Y03564D01*
X134679Y03554D01*
X134879D01*
X134979Y03564D01*
Y03604D01*
X134879Y03614D01*
X135179Y03554D02*
Y03614D01*
X135479D01*
X135579Y03604D01*
Y03584D01*
X135479Y03574D01*
X135179D01*
X135379D02*
X135579Y03554D01*
X12856Y03155D02*
X12876D01*
X12866D01*
Y03095D01*
X12856D01*
X12876D01*
X12906D02*
Y03155D01*
X12946Y03095D01*
Y03155D01*
X13306Y02942D02*
Y02882D01*
X13336D01*
X13346Y02892D01*
Y02932D01*
X13336Y02942D01*
X13306D01*
X13366Y02882D02*
X13386D01*
X13376D01*
Y02942D01*
X13366Y02932D01*
X14989Y04748D02*
X14979Y04758D01*
X14959D01*
X14949Y04748D01*
Y04708D01*
X14959Y04698D01*
X14979D01*
X14989Y04708D01*
X15009Y04748D02*
X15019Y04758D01*
X15039D01*
X15049Y04748D01*
Y04738D01*
X15039Y04728D01*
X15049Y04718D01*
Y04708D01*
X15039Y04698D01*
X15019D01*
X15009Y04708D01*
Y04718D01*
X15019Y04728D01*
X15009Y04738D01*
Y04748D01*
X15019Y04728D02*
X15039D01*
X14116Y03718D02*
X14106Y03728D01*
X14086D01*
X14076Y03718D01*
Y03678D01*
X14086Y03668D01*
X14106D01*
X14116Y03678D01*
X14136Y03728D02*
X14176D01*
Y03718D01*
X14136Y03678D01*
Y03668D01*
X13962Y03244D02*
X13952Y03254D01*
X13932D01*
X13922Y03244D01*
Y03204D01*
X13932Y03194D01*
X13952D01*
X13962Y03204D01*
X14022Y03254D02*
X14002Y03244D01*
X13982Y03224D01*
Y03204D01*
X13992Y03194D01*
X14012D01*
X14022Y03204D01*
Y03214D01*
X14012Y03224D01*
X13982D01*
X12696Y03458D02*
X12686Y03468D01*
X12666D01*
X12656Y03458D01*
Y03418D01*
X12666Y03408D01*
X12686D01*
X12696Y03418D01*
X12756Y03468D02*
X12716D01*
Y03438D01*
X12736Y03448D01*
X12746D01*
X12756Y03438D01*
Y03418D01*
X12746Y03408D01*
X12726D01*
X12716Y03418D01*
X14686Y04695D02*
X14676Y04705D01*
X14656D01*
X14646Y04695D01*
Y04655D01*
X14656Y04645D01*
X14676D01*
X14686Y04655D01*
X14736Y04645D02*
Y04705D01*
X14706Y04675D01*
X14746D01*
X13895Y0292D02*
X13905Y0291D01*
X13925D01*
X13935Y0292D01*
Y0296D01*
X13925Y0297D01*
X13905D01*
X13895Y0296D01*
X13875Y0297D02*
X13855D01*
X13865D01*
Y0291D01*
X13875Y0292D01*
D13*
X1536Y0421D02*
Y0431D01*
X146502Y0421D02*
Y0431D01*
X154698D01*
Y0421D02*
Y0431D01*
X146502Y0421D02*
X154698D01*
D14*
X136765Y04912D02*
D03*
X132725Y03587D02*
D03*
D15*
X13605Y02795D02*
D03*
M02*
