G04*
G04 #@! TF.GenerationSoftware,Altium Limited,Altium Designer,21.3.2 (30)*
G04*
G04 Layer_Color=2752767*
%FSTAX24Y24*%
%MOIN*%
G70*
G04*
G04 #@! TF.SameCoordinates,529C8F2E-CDB4-460A-A293-509601535585*
G04*
G04*
G04 #@! TF.FilePolarity,Positive*
G04*
G01*
G75*
%ADD54C,0.0020*%
%ADD55C,0.0027*%
D54*
X14532Y03537D02*
Y03553D01*
X14548D01*
Y03537D01*
X14532D01*
X14432D02*
Y03553D01*
X14448D01*
Y03537D01*
X14432D01*
X1541Y04252D02*
X15402Y04268D01*
X15418D01*
X1541Y04252D01*
X1531D02*
X15302Y04268D01*
X15318D01*
X1531Y04252D01*
X1521D02*
X15202Y04268D01*
X15218D01*
X1521Y04252D01*
X1511D02*
X15102Y04268D01*
X15118D01*
X1511Y04252D01*
X1501D02*
X15002Y04268D01*
X15018D01*
X1501Y04252D01*
X1491D02*
X14902Y04268D01*
X14918D01*
X1491Y04252D01*
X1481D02*
X14802Y04268D01*
X14818D01*
X1481Y04252D01*
X1471D02*
X14702Y04268D01*
X14718D01*
X1471Y04252D01*
X1537Y03782D02*
X15374Y03786D01*
X15378D01*
X15374Y0379D01*
X15378Y03794D01*
X15374D01*
X1537Y03798D01*
X15366Y03794D01*
X15362D01*
X15366Y0379D01*
X15362Y03786D01*
X15366D01*
X1537Y03782D01*
X1476Y03777D02*
X14764Y03781D01*
X14768D01*
X14764Y03785D01*
X14768Y03789D01*
X14764D01*
X1476Y03793D01*
X14756Y03789D01*
X14752D01*
X14756Y03785D01*
X14752Y03781D01*
X14756D01*
X1476Y03777D01*
X15057Y04617D02*
X15061Y04625D01*
X15057Y04633D01*
X15065Y04629D01*
X15073Y04633D01*
X15069Y04625D01*
X15073Y04617D01*
X15065Y04621D01*
X15057Y04617D01*
Y04417D02*
X15061Y04425D01*
X15057Y04433D01*
X15065Y04429D01*
X15073Y04433D01*
X15069Y04425D01*
X15073Y04417D01*
X15065Y04421D01*
X15057Y04417D01*
X130351Y051111D02*
Y051071D01*
X130431D01*
Y051111D01*
X130471D01*
Y051191D01*
X130431D01*
Y051231D01*
X130351D01*
Y051191D01*
X130311D01*
Y051111D01*
X130351D01*
X134351D02*
Y051071D01*
X134431D01*
Y051111D01*
X134471D01*
Y051191D01*
X134431D01*
Y051231D01*
X134351D01*
Y051191D01*
X134311D01*
Y051111D01*
X134351D01*
X133351D02*
Y051071D01*
X133431D01*
Y051111D01*
X133471D01*
Y051191D01*
X133431D01*
Y051231D01*
X133351D01*
Y051191D01*
X133311D01*
Y051111D01*
X133351D01*
X132351D02*
Y051071D01*
X132431D01*
Y051111D01*
X132471D01*
Y051191D01*
X132431D01*
Y051231D01*
X132351D01*
Y051191D01*
X132311D01*
Y051111D01*
X132351D01*
X131351D02*
Y051071D01*
X131431D01*
Y051111D01*
X131471D01*
Y051191D01*
X131431D01*
Y051231D01*
X131351D01*
Y051191D01*
X131311D01*
Y051111D01*
X131351D01*
X14657Y04902D02*
X14661Y0491D01*
X14657Y04918D01*
X14665Y04914D01*
X14673Y04918D01*
X14669Y0491D01*
X14673Y04902D01*
X14665Y04906D01*
X14657Y04902D01*
X14307D02*
X14311Y0491D01*
X14307Y04918D01*
X14315Y04914D01*
X14323Y04918D01*
X14319Y0491D01*
X14323Y04902D01*
X14315Y04906D01*
X14307Y04902D01*
X14222D02*
X14226Y0491D01*
X14222Y04918D01*
X1423Y04914D01*
X14238Y04918D01*
X14234Y0491D01*
X14238Y04902D01*
X1423Y04906D01*
X14222Y04902D01*
X13872D02*
X13876Y0491D01*
X13872Y04918D01*
X1388Y04914D01*
X13888Y04918D01*
X13884Y0491D01*
X13888Y04902D01*
X1388Y04906D01*
X13872Y04902D01*
X13332Y02787D02*
X13336D01*
X1334Y02791D01*
X13344Y02787D01*
X13348D01*
Y02791D01*
X13344Y02795D01*
X13348Y02799D01*
Y02803D01*
X13344D01*
X1334Y02799D01*
X13336Y02803D01*
X13332D01*
Y02799D01*
X13336Y02795D01*
X13332Y02791D01*
Y02787D01*
X13682D02*
X13686D01*
X1369Y02791D01*
X13694Y02787D01*
X13698D01*
Y02791D01*
X13694Y02795D01*
X13698Y02799D01*
Y02803D01*
X13694D01*
X1369Y02799D01*
X13686Y02803D01*
X13682D01*
Y02799D01*
X13686Y02795D01*
X13682Y02791D01*
Y02787D01*
Y02962D02*
Y02978D01*
X13698D01*
Y02962D01*
X13682D01*
Y03112D02*
Y03128D01*
X13698D01*
Y03112D01*
X13682D01*
X13037Y03327D02*
Y03343D01*
X13053D01*
Y03327D01*
X13037D01*
Y03177D02*
Y03193D01*
X13053D01*
Y03177D01*
X13037D01*
X14102Y03437D02*
X14106Y03445D01*
X14102Y03453D01*
X1411Y03449D01*
X14118Y03453D01*
X14114Y03445D01*
X14118Y03437D01*
X1411Y03441D01*
X14102Y03437D01*
Y03587D02*
X14106Y03595D01*
X14102Y03603D01*
X1411Y03599D01*
X14118Y03603D01*
X14114Y03595D01*
X14118Y03587D01*
X1411Y03591D01*
X14102Y03587D01*
X13947Y03112D02*
X13951Y0312D01*
X13947Y03128D01*
X13955Y03124D01*
X13963Y03128D01*
X13959Y0312D01*
X13963Y03112D01*
X13955Y03116D01*
X13947Y03112D01*
Y02962D02*
X13951Y0297D01*
X13947Y02978D01*
X13955Y02974D01*
X13963Y02978D01*
X13959Y0297D01*
X13963Y02962D01*
X13955Y02966D01*
X13947Y02962D01*
X12682Y03327D02*
X12686Y03335D01*
X12682Y03343D01*
X1269Y03339D01*
X12698Y03343D01*
X12694Y03335D01*
X12698Y03327D01*
X1269Y03331D01*
X12682Y03327D01*
Y03177D02*
X12686Y03185D01*
X12682Y03193D01*
X1269Y03189D01*
X12698Y03193D01*
X12694Y03185D01*
X12698Y03177D01*
X1269Y03181D01*
X12682Y03177D01*
X10392Y0286D02*
X104Y02868D01*
X10408Y0286D01*
X104Y02852D01*
X10392Y0286D01*
Y0509D02*
X104Y05098D01*
X10408Y0509D01*
X104Y05082D01*
X10392Y0509D01*
X15942D02*
X1595Y05098D01*
X15958Y0509D01*
X1595Y05082D01*
X15942Y0509D01*
Y0286D02*
X1595Y02868D01*
X15958Y0286D01*
X1595Y02852D01*
X15942Y0286D01*
X120587Y032383D02*
X120667Y032463D01*
X120747Y032383D01*
X120667Y032303D01*
X120587Y032383D01*
X10602D02*
X1061Y032463D01*
X10618Y032383D01*
X1061Y032303D01*
X10602Y032383D01*
X120587Y04695D02*
X120667Y04703D01*
X120747Y04695D01*
X120667Y04687D01*
X120587Y04695D01*
X10602D02*
X1061Y04703D01*
X10618Y04695D01*
X1061Y04687D01*
X10602Y04695D01*
X13368Y03371D02*
Y03367D01*
X13376D01*
Y03371D01*
X1338D01*
Y03379D01*
X13376D01*
Y03383D01*
X13368D01*
Y03379D01*
X13364D01*
Y03371D01*
X13368D01*
X13568D02*
Y03367D01*
X13576D01*
Y03371D01*
X1358D01*
Y03379D01*
X13576D01*
Y03383D01*
X13568D01*
Y03379D01*
X13564D01*
Y03371D01*
X13568D01*
X13668D02*
Y03367D01*
X13676D01*
Y03371D01*
X1368D01*
Y03379D01*
X13676D01*
Y03383D01*
X13668D01*
Y03379D01*
X13664D01*
Y03371D01*
X13668D01*
X13768D02*
Y03367D01*
X13776D01*
Y03371D01*
X1378D01*
Y03379D01*
X13776D01*
Y03383D01*
X13768D01*
Y03379D01*
X13764D01*
Y03371D01*
X13768D01*
X13868D02*
Y03367D01*
X13876D01*
Y03371D01*
X1388D01*
Y03379D01*
X13876D01*
Y03383D01*
X13868D01*
Y03379D01*
X13864D01*
Y03371D01*
X13868D01*
X13468D02*
Y03367D01*
X13476D01*
Y03371D01*
X1348D01*
Y03379D01*
X13476D01*
Y03383D01*
X13468D01*
Y03379D01*
X13464D01*
Y03371D01*
X13468D01*
X14732Y04457D02*
Y04473D01*
X14748D01*
Y04457D01*
X14732D01*
Y04557D02*
Y04573D01*
X14748D01*
Y04557D01*
X14732D01*
X12482Y02852D02*
Y02868D01*
X12498D01*
Y02852D01*
X12482D01*
X12486Y02856D02*
Y02864D01*
X12494D01*
Y02856D01*
X12486D01*
X12682Y02852D02*
Y02868D01*
X12698D01*
Y02852D01*
X12682D01*
X12686Y02856D02*
Y02864D01*
X12694D01*
Y02856D01*
X12686D01*
X12947Y02852D02*
Y02868D01*
X12963D01*
Y02852D01*
X12947D01*
X12951Y02856D02*
Y02864D01*
X12959D01*
Y02856D01*
X12951D01*
X13147Y02852D02*
Y02868D01*
X13163D01*
Y02852D01*
X13147D01*
X13151Y02856D02*
Y02864D01*
X13159D01*
Y02856D01*
X13151D01*
D55*
X13983Y04715D02*
G03*
X13983Y04715I-00008J0D01*
G01*
X13883D02*
G03*
X13883Y04715I-00008J0D01*
G01*
X14083D02*
G03*
X14083Y04715I-00008J0D01*
G01*
X13783D02*
G03*
X13783Y04715I-00008J0D01*
G01*
X13683D02*
G03*
X13683Y04715I-00008J0D01*
G01*
X13583D02*
G03*
X13583Y04715I-00008J0D01*
G01*
X13483D02*
G03*
X13483Y04715I-00008J0D01*
G01*
X13383D02*
G03*
X13383Y04715I-00008J0D01*
G01*
X13283D02*
G03*
X13283Y04715I-00008J0D01*
G01*
X13183D02*
G03*
X13183Y04715I-00008J0D01*
G01*
X13083D02*
G03*
X13083Y04715I-00008J0D01*
G01*
X12983D02*
G03*
X12983Y04715I-00008J0D01*
G01*
X12883D02*
G03*
X12883Y04715I-00008J0D01*
G01*
X12783D02*
G03*
X12783Y04715I-00008J0D01*
G01*
X12683D02*
G03*
X12683Y04715I-00008J0D01*
G01*
X1398Y03715D02*
G03*
X1398Y03715I-00008J0D01*
G01*
X1388D02*
G03*
X1388Y03715I-00008J0D01*
G01*
X1378D02*
G03*
X1378Y03715I-00008J0D01*
G01*
X1368D02*
G03*
X1368Y03715I-00008J0D01*
G01*
X1358D02*
G03*
X1358Y03715I-00008J0D01*
G01*
X1348D02*
G03*
X1348Y03715I-00008J0D01*
G01*
X1338D02*
G03*
X1338Y03715I-00008J0D01*
G01*
X1328D02*
G03*
X1328Y03715I-00008J0D01*
G01*
X1318D02*
G03*
X1318Y03715I-00008J0D01*
G01*
X1308D02*
G03*
X1308Y03715I-00008J0D01*
G01*
X1298D02*
G03*
X1298Y03715I-00008J0D01*
G01*
X1288D02*
G03*
X1288Y03715I-00008J0D01*
G01*
X1278D02*
G03*
X1278Y03715I-00008J0D01*
G01*
X1268D02*
G03*
X1268Y03715I-00008J0D01*
G01*
X1408D02*
G03*
X1408Y03715I-00008J0D01*
G01*
X13382Y0486D02*
G03*
X13382Y0486I-00008J0D01*
G01*
X13483D02*
G03*
X13483Y0486I-00008J0D01*
G01*
X13581D02*
G03*
X13581Y0486I-00008J0D01*
G01*
X13682D02*
G03*
X13682Y0486I-00008J0D01*
G01*
X12778Y03535D02*
G03*
X12778Y03535I-00008J0D01*
G01*
X12878D02*
G03*
X12878Y03535I-00008J0D01*
G01*
X13278D02*
G03*
X13278Y03535I-00008J0D01*
G01*
X13178D02*
G03*
X13178Y03535I-00008J0D01*
G01*
X13078D02*
G03*
X13078Y03535I-00008J0D01*
G01*
X12978D02*
G03*
X12978Y03535I-00008J0D01*
G01*
X12678D02*
G03*
X12678Y03535I-00008J0D01*
G01*
X14118Y0332D02*
G03*
X14118Y0332I-00008J0D01*
G01*
Y0322D02*
G03*
X14118Y0322I-00008J0D01*
G01*
Y028D02*
G03*
X14118Y028I-00008J0D01*
G01*
Y029D02*
G03*
X14118Y029I-00008J0D01*
G01*
X14848Y028D02*
G03*
X14848Y028I-00008J0D01*
G01*
Y029D02*
G03*
X14848Y029I-00008J0D01*
G01*
Y0322D02*
G03*
X14848Y0322I-00008J0D01*
G01*
Y0332D02*
G03*
X14848Y0332I-00008J0D01*
G01*
M02*
